<svg xmlns="http://www.w3.org/2000/svg" viewBox="0 0 57 57"><path d="M28.5 0C14.475 0 3 11.475 3 25.5V50c0 2.2 1.8 4 4 4h6.777c4.16 2.021 9.237 3 14.723 3s10.563-.979 14.723-3H50c2.2 0 4-1.8 4-4V25.5C54 11.475 42.525 0 28.5 0z" fill="#6e5847"/><path d="M3.869 29.894A25.515 25.515 0 0 0 3 36.5C3 50.583 14.417 57 28.5 57S54 50.583 54 36.5C54 22.842 42.495 11.661 29 11h-1c-13.495.661-25 11.842-25 25.5C3 50.583 14.417 57 28.5 57S54 50.583 54 36.5" fill="#fdc794"/><path d="M18.369 33.85c-4.407 0-7.369-2.534-7.369-6.307a6.039 6.039 0 0 1 6.031-6.032 4.982 4.982 0 0 1 4.976 4.976 4.145 4.145 0 0 1-4.141 4.14 3.484 3.484 0 0 1-3.48-3.48 2.964 2.964 0 0 1 2.96-2.96 1 1 0 1 1 0 2 .962.962 0 0 0-.96.96c0 .816.664 1.48 1.48 1.48 1.181 0 2.141-.96 2.141-2.14a2.98 2.98 0 0 0-2.976-2.976A4.036 4.036 0 0 0 13 27.543c0 3.175 2.773 4.307 5.369 4.307 3.225 0 5-2.131 5-6a1 1 0 1 1 2 0c0 4.934-2.682 8-7 8zM40.338 32.188a4.982 4.982 0 0 1-4.976-4.976 4.146 4.146 0 0 1 4.141-4.141 3.485 3.485 0 0 1 3.48 3.481 2.964 2.964 0 0 1-2.96 2.96 1 1 0 1 1 0-2c.529 0 .96-.431.96-.96 0-.816-.664-1.481-1.48-1.481-1.181 0-2.141.96-2.141 2.141a2.98 2.98 0 0 0 2.976 2.976 4.036 4.036 0 0 0 4.031-4.032c0-3.175-2.773-4.307-5.369-4.307-3.225 0-5 2.131-5 6a1 1 0 1 1-2 0c0-4.935 2.683-8 7-8 4.407 0 7.369 2.534 7.369 6.307a6.039 6.039 0 0 1-6.031 6.032z" fill="#f9a671"/><path d="M18 47c0-6.075 4.925-9 11-9s11 2.925 11 9-4.925 1-11 1-11 5.075-11-1z" fill="#802d40"/><path d="M29.007 48.014c1.798 0 3.494.445 4.993.913C33.96 46.2 31.744 44 29.007 44s-4.953 2.2-4.993 4.927c1.499-.468 3.195-.913 4.993-.913z" fill="#e64c3c"/></svg>