<svg xmlns="http://www.w3.org/2000/svg" viewBox="0 0 58 58"><path d="M29.392 54.999c11.246.156 17.52-4.381 21.008-9.189 3.603-4.966 4.764-11.283 3.647-17.323-4.043-21.845-24.655-21.66-24.655-21.66S8.781 6.642 4.738 28.488c-1.118 6.04.044 12.356 3.647 17.323 3.487 4.807 9.761 9.344 21.007 9.188z" fill="#fdc794"/><path d="M4.499 30.125c-.453-.429-.985-.687-1.559-.687-1.624 0-2.94 1.981-2.94 4.424 0 2.443 1.316 4.424 2.939 4.424.687 0 1.311-.37 1.811-.964a23.635 23.635 0 0 1-.251-7.197zM57.823 26.298c-.563-2.377-2.3-3.999-3.879-3.622-.491.117-.898.43-1.225.855a32.34 32.34 0 0 1 1.328 4.957c.155.837.261 1.679.328 2.522.52.284 1.072.402 1.608.274 1.579-.377 2.403-2.609 1.84-4.986z" fill="#f9a671"/><path d="M13.9 16.999a.997.997 0 0 1-.707-.293l-5-5a.999.999 0 1 1 1.414-1.414l5 5a.999.999 0 0 1-.707 1.707zM16.901 13.999a1 1 0 0 1-.896-.553l-3-6a1 1 0 0 1 1.789-.895l3 6a1 1 0 0 1-.893 1.448zM20.9 11.999a.999.999 0 0 1-.948-.684l-2-6a1 1 0 1 1 1.897-.633l2 6a1 1 0 0 1-.949 1.317zM25.899 10.999a1 1 0 0 1-.985-.836l-1-6a.999.999 0 0 1 .822-1.15.994.994 0 0 1 1.15.822l1 6a.999.999 0 0 1-.987 1.164zM29.9 10.999a1 1 0 0 1-1-1v-6a1 1 0 1 1 2 0v6a1 1 0 0 1-1 1zM33.9 10.999a1 1 0 0 1-.948-1.317l2-6a1 1 0 1 1 1.897.633l-2 6c-.14.419-.53.684-.949.684zM37.9 11.999a1 1 0 0 1-.948-1.317l2-6a1 1 0 1 1 1.897.633l-2 6c-.14.419-.53.684-.949.684zM40.899 13.999a1 1 0 0 1-.893-1.447l3-6a1 1 0 0 1 1.789.895l-3 6a1 1 0 0 1-.896.552z" fill="#5e5f62"/><ellipse cx="20" cy="24.499" rx="6" ry="7.5" fill="#fff"/><ellipse cx="20" cy="24.499" rx="3" ry="4.5" fill="#7f5b53"/><ellipse cx="38" cy="24.499" rx="6" ry="7.5" fill="#fff"/><ellipse cx="38" cy="24.499" rx="3" ry="4.5" fill="#7f5b53"/><circle cx="29" cy="42.999" r="7" fill="#802d40"/></svg>