<svg xmlns="http://www.w3.org/2000/svg" viewBox="0 0 58 58"><path d="M29.392 54.999c11.246.156 17.52-4.381 21.008-9.189 3.603-4.966 4.764-11.283 3.647-17.323C50.004 6.642 29.392 6.826 29.392 6.826S8.781 6.642 4.738 28.488c-1.118 6.04.044 12.356 3.647 17.323 3.487 4.807 9.761 9.344 21.007 9.188z" fill="#fdc794"/><path d="M4.499 30.125c-.453-.429-.985-.687-1.559-.687-1.624 0-2.94 1.98-2.94 4.424 0 2.443 1.316 4.424 2.939 4.424.687 0 1.311-.37 1.811-.964a23.637 23.637 0 0 1-.251-7.197zM57.823 26.298c-.563-2.377-2.3-3.999-3.879-3.622-.491.117-.898.43-1.225.855a32.34 32.34 0 0 1 1.328 4.957c.155.837.261 1.679.328 2.522.52.284 1.072.402 1.608.274 1.579-.377 2.403-2.609 1.84-4.986z" fill="#f9a671"/><path d="M13.9 16.998a.997.997 0 0 1-.707-.293l-5-5a.999.999 0 1 1 1.414-1.414l5 5a.999.999 0 0 1-.707 1.707zM16.901 13.998a1 1 0 0 1-.896-.553l-3-6a1 1 0 0 1 1.789-.895l3 6a1 1 0 0 1-.893 1.448zM20.9 11.998c-.419 0-.809-.265-.949-.684l-2-6a1 1 0 0 1 1.898-.632l2 6a1 1 0 0 1-.949 1.316zM25.899 10.998a1 1 0 0 1-.985-.836l-1-6a.999.999 0 0 1 .822-1.15.995.995 0 0 1 1.151.822l1 6a.999.999 0 0 1-.988 1.164zM29.9 10.998a1 1 0 0 1-1-1v-6a1 1 0 1 1 2 0v6a1 1 0 0 1-1 1zM33.9 10.998a1 1 0 0 1-.948-1.317l2-6a1 1 0 1 1 1.897.633l-2 6a1 1 0 0 1-.949.684zM37.9 11.998a1 1 0 0 1-.948-1.317l2-6a.999.999 0 1 1 1.897.633l-2 6a1 1 0 0 1-.949.684zM40.899 13.998a1 1 0 0 1-.893-1.447l3-6a1 1 0 1 1 1.789.895l-3 6a1 1 0 0 1-.896.552z" fill="#5e5f62"/><path d="M19.02 49.761a.999.999 0 0 1-.885-1.462A20.863 20.863 0 0 1 30.451 37.97c5.348-1.684 11.034-1.182 16.012 1.414.49.255.68.859.424 1.349a.996.996 0 0 1-1.349.425 18.883 18.883 0 0 0-14.487-1.28 18.877 18.877 0 0 0-11.143 9.346 1.001 1.001 0 0 1-.888.537z" fill="#f9a671"/><path d="M43 42.998a1 1 0 1 1 0-2c1.654 0 3-1.346 3-3a1 1 0 1 1 2 0c0 2.757-2.243 5-5 5zM21 50.998c-2.757 0-5-2.243-5-5a1 1 0 1 1 2 0c0 1.654 1.346 3 3 3a1 1 0 1 1 0 2z" fill="#f9a671"/><circle cx="17.127" cy="27.543" r="7.719" fill="#f9a671"/><circle cx="36.499" cy="24.362" r="9.5" fill="#f9a671"/><path d="M27.047 25.317c.051.509.153 1 .28 1.479l18.646-1.882a9.48 9.48 0 0 0-.022-1.505 9.465 9.465 0 0 0-.593-2.453l-18.22 1.839a9.493 9.493 0 0 0-.091 2.522zM9.869 30.171c.27.747.645 1.426 1.1 2.028l13.87-5.022a7.697 7.697 0 0 0-.454-2.262 7.69 7.69 0 0 0-.772-1.548l-14.142 5.12c.07.563.197 1.128.398 1.684z" fill="#fff"/><circle cx="16.44" cy="27.895" r="2" fill="#7f5b53"/><circle cx="37.133" cy="23.796" r="2" fill="#7f5b53"/></svg>