<?xml version="1.0" encoding="utf-8"?>
<!-- Generator: Adobe Illustrator 22.0.1, SVG Export Plug-In . SVG Version: 6.00 Build 0)  -->
<svg version="1.1" id="Layer_1" xmlns="http://www.w3.org/2000/svg" xmlns:xlink="http://www.w3.org/1999/xlink" x="0px" y="0px"
	 viewBox="0 0 382.4 98" style="enable-background:new 0 0 382.4 98;" xml:space="preserve">
<path d="M57.9,0l35.9,96l-21.9,0l-7.3-21.4l-35.9,0L21.2,96L0,96L36.3,0L57.9,0z M59.2,58.9L47.1,23.7h-0.3L34.3,58.9L59.2,58.9z"/>
<path d="M119.3,0l0,35h0.3c2.3-3.6,5.5-6.2,9.5-7.9c4-1.7,8.1-2.5,12.4-2.5c3.5,0,6.9,0.7,10.4,2.2c3.4,1.4,6.5,3.6,9.2,6.6
	s5,6.7,6.7,11.4c1.7,4.6,2.6,10.1,2.6,16.5s-0.9,11.9-2.6,16.5c-1.7,4.6-3.9,8.4-6.7,11.4c-2.7,3-5.8,5.2-9.2,6.6
	c-3.4,1.4-6.9,2.2-10.4,2.2c-5.1,0-9.7-0.8-13.7-2.4c-4-1.6-7.1-4.3-9.1-8.2h-0.3V96l-18.2,0l0-96L119.3,0z M150.2,52.8
	c-0.6-2.7-1.6-5.1-3-7.1c-1.3-2.1-3-3.7-5-4.9s-4.5-1.8-7.3-1.8c-2.8,0-5.2,0.6-7.3,1.8c-2.1,1.2-3.8,2.8-5.1,4.9
	c-1.3,2.1-2.3,4.4-3,7.1c-0.6,2.7-0.9,5.5-0.9,8.5c0,2.9,0.3,5.6,0.9,8.3s1.6,5.1,3,7.1c1.3,2.1,3,3.7,5.1,4.9
	c2.1,1.2,4.5,1.8,7.3,1.8c2.9,0,5.3-0.6,7.3-1.8s3.7-2.8,5-4.9s2.3-4.4,3-7.1c0.6-2.7,0.9-5.5,0.9-8.3
	C151.1,58.4,150.8,55.5,150.2,52.8z"/>
<path d="M182.7,46.2c1.7-4.5,4.1-8.4,7.3-11.6c3.1-3.2,6.9-5.6,11.3-7.4c4.4-1.7,9.3-2.6,14.8-2.6s10.4,0.9,14.9,2.6
	c4.5,1.7,8.2,4.2,11.4,7.4c3.1,3.2,5.6,7,7.3,11.6c1.7,4.5,2.6,9.6,2.6,15.1c0,5.6-0.9,10.6-2.6,15.1s-4.1,8.3-7.3,11.5
	c-3.1,3.2-6.9,5.6-11.4,7.3s-9.4,2.6-14.9,2.6s-10.4-0.9-14.8-2.6c-4.4-1.7-8.2-4.1-11.3-7.3c-3.1-3.2-5.6-7-7.3-11.5
	c-1.7-4.5-2.6-9.5-2.6-15.1C180.2,55.8,181,50.7,182.7,46.2z M200.1,69.4c0.5,2.6,1.5,5,2.8,7.1s3,3.8,5.2,5
	c2.2,1.3,4.8,1.9,8.1,1.9c3.2,0,5.9-0.6,8.1-1.9c2.2-1.3,3.9-2.9,5.2-5s2.2-4.5,2.8-7.1c0.5-2.6,0.8-5.4,0.8-8.1
	c0-2.8-0.3-5.5-0.8-8.2s-1.5-5.1-2.8-7.1c-1.3-2.1-3-3.7-5.2-5s-4.9-1.9-8.1-1.9c-3.2,0-5.9,0.7-8.1,1.9c-2.2,1.3-3.9,3-5.2,5
	c-1.3,2.1-2.2,4.4-2.8,7.1c-0.5,2.7-0.8,5.4-0.8,8.2S199.5,66.8,200.1,69.4z"/>
<path d="M311.5,96v-9.7h-0.4c-2.4,4-5.6,6.9-9.4,8.7c-3.9,1.8-7.8,2.7-11.8,2.7c-5.1,0-9.3-0.7-12.6-2c-3.3-1.3-5.8-3.2-7.7-5.7
	c-1.9-2.5-3.2-5.5-4-9c-0.8-3.5-1.1-7.5-1.1-11.8V26.5l19.1,0v39.3c0,5.7,0.9,10,2.7,12.8s5,4.2,9.5,4.2c5.2,0,9-1.5,11.3-4.6
	c2.3-3.1,3.5-8.2,3.5-15.3V26.5l19.1,0V96L311.5,96z"/>
<path d="M382.4,26.5v12.8l-14,0l0,34.4c0,3.2,0.5,5.4,1.6,6.5c1.1,1.1,3.2,1.6,6.5,1.6c1.1,0,2.1,0,3.1-0.1s1.9-0.2,2.8-0.4V96
	c-1.6,0.3-3.4,0.4-5.4,0.5s-3.9,0.1-5.8,0.1c-3,0-5.8-0.2-8.4-0.6c-2.6-0.4-5-1.2-7-2.4c-2-1.2-3.6-2.8-4.8-5
	c-1.2-2.2-1.7-5-1.7-8.5v-41l-11.6,0V26.5l11.6,0l0-20.9l19.1,0v20.8l14,0V26.5z"/>
</svg>
