<svg xmlns="http://www.w3.org/2000/svg" viewBox="0 0 382.4 98"><path d="M57.9 0l35.9 96H71.9l-7.3-21.4H28.7L21.2 96H0L36.3 0h21.6zm1.3 58.9L47.1 23.7h-.3L34.3 58.9h24.9zM119.3 0v35h.3c2.3-3.6 5.5-6.2 9.5-7.9 4-1.7 8.1-2.5 12.4-2.5 3.5 0 6.9.7 10.4 2.2 3.4 1.4 6.5 3.6 9.2 6.6s5 6.7 6.7 11.4c1.7 4.6 2.6 10.1 2.6 16.5s-.9 11.9-2.6 16.5c-1.7 4.6-3.9 8.4-6.7 11.4-2.7 3-5.8 5.2-9.2 6.6-3.4 1.4-6.9 2.2-10.4 2.2-5.1 0-9.7-.8-13.7-2.4-4-1.6-7.1-4.3-9.1-8.2h-.3V96h-18.2V0h19.1zm30.9 52.8c-.6-2.7-1.6-5.1-3-7.1-1.3-2.1-3-3.7-5-4.9s-4.5-1.8-7.3-1.8-5.2.6-7.3 1.8c-2.1 1.2-3.8 2.8-5.1 4.9-1.3 2.1-2.3 4.4-3 7.1-.6 2.7-.9 5.5-.9 8.5 0 2.9.3 5.6.9 8.3s1.6 5.1 3 7.1c1.3 2.1 3 3.7 5.1 4.9 2.1 1.2 4.5 1.8 7.3 1.8 2.9 0 5.3-.6 7.3-1.8s3.7-2.8 5-4.9 2.3-4.4 3-7.1c.6-2.7.9-5.5.9-8.3 0-2.9-.3-5.8-.9-8.5zM182.7 46.2c1.7-4.5 4.1-8.4 7.3-11.6 3.1-3.2 6.9-5.6 11.3-7.4 4.4-1.7 9.3-2.6 14.8-2.6s10.4.9 14.9 2.6c4.5 1.7 8.2 4.2 11.4 7.4 3.1 3.2 5.6 7 7.3 11.6 1.7 4.5 2.6 9.6 2.6 15.1 0 5.6-.9 10.6-2.6 15.1s-4.1 8.3-7.3 11.5c-3.1 3.2-6.9 5.6-11.4 7.3s-9.4 2.6-14.9 2.6-10.4-.9-14.8-2.6c-4.4-1.7-8.2-4.1-11.3-7.3-3.1-3.2-5.6-7-7.3-11.5-1.7-4.5-2.6-9.5-2.6-15.1.1-5.5.9-10.6 2.6-15.1zm17.4 23.2c.5 2.6 1.5 5 2.8 7.1s3 3.8 5.2 5c2.2 1.3 4.8 1.9 8.1 1.9 3.2 0 5.9-.6 8.1-1.9 2.2-1.3 3.9-2.9 5.2-5s2.2-4.5 2.8-7.1c.5-2.6.8-5.4.8-8.1 0-2.8-.3-5.5-.8-8.2s-1.5-5.1-2.8-7.1c-1.3-2.1-3-3.7-5.2-5s-4.9-1.9-8.1-1.9c-3.2 0-5.9.7-8.1 1.9-2.2 1.3-3.9 3-5.2 5-1.3 2.1-2.2 4.4-2.8 7.1-.5 2.7-.8 5.4-.8 8.2s.2 5.5.8 8.1zM311.5 96v-9.7h-.4c-2.4 4-5.6 6.9-9.4 8.7-3.9 1.8-7.8 2.7-11.8 2.7-5.1 0-9.3-.7-12.6-2-3.3-1.3-5.8-3.2-7.7-5.7-1.9-2.5-3.2-5.5-4-9-.8-3.5-1.1-7.5-1.1-11.8V26.5h19.1v39.3c0 5.7.9 10 2.7 12.8s5 4.2 9.5 4.2c5.2 0 9-1.5 11.3-4.6 2.3-3.1 3.5-8.2 3.5-15.3V26.5h19.1V96h-18.2zM382.4 26.5v12.8h-14v34.4c0 3.2.5 5.4 1.6 6.5 1.1 1.1 3.2 1.6 6.5 1.6 1.1 0 2.1 0 3.1-.1s1.9-.2 2.8-.4V96c-1.6.3-3.4.4-5.4.5s-3.9.1-5.8.1c-3 0-5.8-.2-8.4-.6-2.6-.4-5-1.2-7-2.4s-3.6-2.8-4.8-5c-1.2-2.2-1.7-5-1.7-8.5v-41h-11.6V26.5h11.6V5.6h19.1v20.8h14v.1z"/></svg>