<svg xmlns="http://www.w3.org/2000/svg" viewBox="0 0 97.8 382.4"><path d="M0 324.5l96-35.9v21.9l-21.4 7.3v35.9l21.4 7.5v21.2L0 346.1v-21.6zm58.9-1.3l-35.2 12.1v.3l35.2 12.5v-24.9zM0 263.1h35v-.3c-3.6-2.3-6.2-5.5-7.9-9.5-1.7-4-2.5-8.1-2.5-12.4 0-3.5.7-6.9 2.2-10.4 1.4-3.4 3.6-6.5 6.6-9.2 3-2.7 6.7-5 11.4-6.7 4.6-1.7 10.1-2.6 16.5-2.6s11.9.9 16.5 2.6c4.6 1.7 8.4 3.9 11.4 6.7 3 2.7 5.2 5.8 6.6 9.2 1.4 3.4 2.2 6.9 2.2 10.4 0 5.1-.8 9.7-2.4 13.7-1.6 4-4.3 7.1-8.2 9.1v.3H96v18.2H0v-19.1zm52.8-30.9c-2.7.6-5.1 1.6-7.1 3-2.1 1.3-3.7 3-4.9 5-1.2 2-1.8 4.5-1.8 7.3s.6 5.2 1.8 7.3c1.2 2.1 2.8 3.8 4.9 5.1 2.1 1.3 4.4 2.3 7.1 3 2.7.6 5.5.9 8.5.9 2.9 0 5.6-.3 8.3-.9 2.7-.6 5.1-1.6 7.1-3 2.1-1.3 3.7-3 4.9-5.1 1.2-2.1 1.8-4.5 1.8-7.3 0-2.9-.6-5.3-1.8-7.3s-2.8-3.7-4.9-5c-2.1-1.3-4.4-2.3-7.1-3-2.7-.6-5.5-.9-8.3-.9-2.9 0-5.8.3-8.5.9zM46.2 199.7c-4.5-1.7-8.4-4.1-11.6-7.3-3.2-3.1-5.6-6.9-7.4-11.3-1.7-4.4-2.6-9.3-2.6-14.8s.9-10.4 2.6-14.9 4.2-8.2 7.4-11.4c3.2-3.1 7-5.6 11.6-7.3 4.5-1.7 9.6-2.6 15.1-2.6 5.6 0 10.6.9 15.1 2.6 4.5 1.7 8.3 4.1 11.5 7.3 3.2 3.1 5.6 6.9 7.3 11.4s2.6 9.4 2.6 14.9-.9 10.4-2.6 14.8c-1.7 4.4-4.1 8.2-7.3 11.3-3.2 3.1-7 5.6-11.5 7.3-4.5 1.7-9.5 2.6-15.1 2.6-5.5-.1-10.6-.9-15.1-2.6zm23.2-17.4c2.6-.5 5-1.5 7.1-2.8 2.1-1.3 3.8-3 5-5.2 1.3-2.2 1.9-4.8 1.9-8.1 0-3.2-.6-5.9-1.9-8.1-1.3-2.2-2.9-3.9-5-5.2-2.1-1.3-4.5-2.2-7.1-2.8-2.6-.5-5.4-.8-8.1-.8-2.8 0-5.5.3-8.2.8-2.7.5-5.1 1.5-7.1 2.8-2.1 1.3-3.7 3-5 5.2-1.3 2.2-1.9 4.9-1.9 8.1 0 3.2.7 5.9 1.9 8.1 1.3 2.2 3 3.9 5 5.2 2.1 1.3 4.4 2.2 7.1 2.8 2.7.5 5.4.8 8.2.8 2.8 0 5.5-.2 8.1-.8zM96 70.9h-9.7v.4c4 2.4 6.9 5.6 8.7 9.4 1.8 3.9 2.7 7.8 2.7 11.8 0 5.1-.7 9.3-2 12.6-1.3 3.3-3.2 5.8-5.7 7.7-2.5 1.9-5.5 3.2-9 4-3.5.8-7.5 1.1-11.8 1.1H26.5V98.8h39.3c5.7 0 10-.9 12.8-2.7 2.8-1.8 4.2-5 4.2-9.5 0-5.2-1.5-9-4.6-11.3-3.1-2.3-8.2-3.5-15.3-3.5H26.5V52.7H96v18.2zM26.5 0h12.8v14h34.4c3.2 0 5.4-.5 6.5-1.6 1.1-1.1 1.6-3.2 1.6-6.5 0-1.1 0-2.1-.1-3.1S81.5.9 81.3 0H96c.3 1.6.4 3.4.5 5.4.1 2 .1 3.9.1 5.8 0 3-.2 5.8-.6 8.4-.4 2.6-1.2 5-2.4 7s-2.8 3.6-5 4.8c-2.2 1.2-5 1.7-8.5 1.7h-41v11.6H26.5V33.1H5.6V14h20.8V0z"/></svg>