<?xml version="1.0" encoding="utf-8"?>
<!-- Generator: Adobe Illustrator 22.0.1, SVG Export Plug-In . SVG Version: 6.00 Build 0)  -->
<svg version="1.1" id="Layer_1" xmlns="http://www.w3.org/2000/svg" xmlns:xlink="http://www.w3.org/1999/xlink" x="0px" y="0px"
	 viewBox="0 0 97.8 382.4" style="enable-background:new 0 0 97.8 382.4;" xml:space="preserve">
<path d="M0,324.5l96-35.9v21.9l-21.4,7.3v35.9l21.4,7.5v21.2L0,346.1V324.5z M58.9,323.2l-35.2,12.1v0.3l35.2,12.5V323.2z"/>
<path d="M0,263.1h35v-0.3c-3.6-2.3-6.2-5.5-7.9-9.5c-1.7-4-2.5-8.1-2.5-12.4c0-3.5,0.7-6.9,2.2-10.4c1.4-3.4,3.6-6.5,6.6-9.2
	c3-2.7,6.7-5,11.4-6.7c4.6-1.7,10.1-2.6,16.5-2.6c6.4,0,11.9,0.9,16.5,2.6c4.6,1.7,8.4,3.9,11.4,6.7c3,2.7,5.2,5.8,6.6,9.2
	c1.4,3.4,2.2,6.9,2.2,10.4c0,5.1-0.8,9.7-2.4,13.7c-1.6,4-4.3,7.1-8.2,9.1v0.3H96v18.2H0V263.1z M52.8,232.2c-2.7,0.6-5.1,1.6-7.1,3
	c-2.1,1.3-3.7,3-4.9,5c-1.2,2-1.8,4.5-1.8,7.3c0,2.8,0.6,5.2,1.8,7.3c1.2,2.1,2.8,3.8,4.9,5.1c2.1,1.3,4.4,2.3,7.1,3
	c2.7,0.6,5.5,0.9,8.5,0.9c2.9,0,5.6-0.3,8.3-0.9c2.7-0.6,5.1-1.6,7.1-3c2.1-1.3,3.7-3,4.9-5.1c1.2-2.1,1.8-4.5,1.8-7.3
	c0-2.9-0.6-5.3-1.8-7.3s-2.8-3.7-4.9-5c-2.1-1.3-4.4-2.3-7.1-3c-2.7-0.6-5.5-0.9-8.3-0.9C58.4,231.3,55.5,231.6,52.8,232.2z"/>
<path d="M46.2,199.7c-4.5-1.7-8.4-4.1-11.6-7.3c-3.2-3.1-5.6-6.9-7.4-11.3c-1.7-4.4-2.6-9.3-2.6-14.8c0-5.5,0.9-10.4,2.6-14.9
	s4.2-8.2,7.4-11.4c3.2-3.1,7-5.6,11.6-7.3c4.5-1.7,9.6-2.6,15.1-2.6c5.6,0,10.6,0.9,15.1,2.6c4.5,1.7,8.3,4.1,11.5,7.3
	c3.2,3.1,5.6,6.9,7.3,11.4s2.6,9.4,2.6,14.9c0,5.5-0.9,10.4-2.6,14.8c-1.7,4.4-4.1,8.2-7.3,11.3c-3.2,3.1-7,5.6-11.5,7.3
	c-4.5,1.7-9.5,2.6-15.1,2.6C55.8,202.2,50.7,201.4,46.2,199.7z M69.4,182.3c2.6-0.5,5-1.5,7.1-2.8c2.1-1.3,3.8-3,5-5.2
	c1.3-2.2,1.9-4.8,1.9-8.1c0-3.2-0.6-5.9-1.9-8.1c-1.3-2.2-2.9-3.9-5-5.2c-2.1-1.3-4.5-2.2-7.1-2.8c-2.6-0.5-5.4-0.8-8.1-0.8
	c-2.8,0-5.5,0.3-8.2,0.8c-2.7,0.5-5.1,1.5-7.1,2.8c-2.1,1.3-3.7,3-5,5.2c-1.3,2.2-1.9,4.9-1.9,8.1c0,3.2,0.7,5.9,1.9,8.1
	c1.3,2.2,3,3.9,5,5.2c2.1,1.3,4.4,2.2,7.1,2.8c2.7,0.5,5.4,0.8,8.2,0.8C64.1,183.1,66.8,182.9,69.4,182.3z"/>
<path d="M96,70.9h-9.7v0.4c4,2.4,6.9,5.6,8.7,9.4c1.8,3.9,2.7,7.8,2.7,11.8c0,5.1-0.7,9.3-2,12.6c-1.3,3.3-3.2,5.8-5.7,7.7
	c-2.5,1.9-5.5,3.2-9,4c-3.5,0.8-7.5,1.1-11.8,1.1H26.5V98.8h39.3c5.7,0,10-0.9,12.8-2.7c2.8-1.8,4.2-5,4.2-9.5c0-5.2-1.5-9-4.6-11.3
	c-3.1-2.3-8.2-3.5-15.3-3.5H26.5V52.7H96V70.9z"/>
<path d="M26.5,0h12.8v14h34.4c3.2,0,5.4-0.5,6.5-1.6c1.1-1.1,1.6-3.2,1.6-6.5c0-1.1,0-2.1-0.1-3.1c-0.1-1-0.2-1.9-0.4-2.8H96
	c0.3,1.6,0.4,3.4,0.5,5.4c0.1,2,0.1,3.9,0.1,5.8c0,3-0.2,5.8-0.6,8.4c-0.4,2.6-1.2,5-2.4,7c-1.2,2-2.8,3.6-5,4.8
	c-2.2,1.2-5,1.7-8.5,1.7h-41v11.6H26.5V33.1H5.6V14h20.8V0z"/>
</svg>
