<?xml version="1.0" encoding="utf-8"?>
<!-- Generator: Adobe Illustrator 22.0.1, SVG Export Plug-In . SVG Version: 6.00 Build 0)  -->
<svg version="1.1" id="Capa_1" xmlns="http://www.w3.org/2000/svg" xmlns:xlink="http://www.w3.org/1999/xlink" x="0px" y="0px"
	 viewBox="0 0 430.1 267.6" style="enable-background:new 0 0 430.1 267.6;" xml:space="preserve">
<style type="text/css">
	.st0{fill:#FFFFFF;}
</style>
<g>
	<path id="Behance" class="st0" d="M388.4,37.9H280.7V11.1h107.8L388.4,37.9L388.4,37.9z M208.9,147.6c7,10.8,10.4,23.8,10.4,39.2
		c0,15.9-3.9,30.1-11.9,42.7c-5.1,8.3-11.4,15.4-18.9,21c-8.5,6.5-18.6,11-30.2,13.4c-11.6,2.4-24.2,3.6-37.8,3.6H0V0h129.2
		c32.6,0.5,55.7,10,69.3,28.5c8.2,11.4,12.2,25,12.2,40.9c0,16.4-4.1,29.5-12.4,39.4c-4.6,5.6-11.4,10.6-20.4,15.2
		C191.7,129,202,136.8,208.9,147.6z M61.7,105.5h56.6c11.6,0,21-2.2,28.3-6.6c7.2-4.4,10.9-12.3,10.9-23.5
		c0-12.4-4.8-20.7-14.4-24.7c-8.2-2.8-18.8-4.2-31.6-4.2H61.7V105.5z M163,183c0-13.9-5.7-23.5-17-28.7c-6.3-2.9-15.3-4.4-26.8-4.5
		H61.7v71.3h56.6c11.6,0,20.6-1.5,27.1-4.7C157.1,210.6,163,199.5,163,183z M428.4,139.5c1.3,8.8,1.9,21.5,1.7,38.1H290.5
		c0.8,19.3,7.4,32.7,20,40.4c7.6,4.8,16.8,7.2,27.6,7.2c11.4,0,20.7-2.9,27.8-8.8c3.9-3.1,7.3-7.6,10.3-13.2h51.2
		c-1.3,11.4-7.5,22.9-18.6,34.6c-17.2,18.6-41.2,28-72.1,28c-25.5,0-48-7.9-67.5-23.6C249.8,226.5,240,201,240,165.5
		c0-33.3,8.8-58.7,26.4-76.4C284,71.3,306.9,62.5,335,62.5c16.7,0,31.7,3,45.1,9s24.4,15.4,33.1,28.4
		C421,111.3,426.1,124.5,428.4,139.5z M378.1,144.5c-0.9-13.3-5.4-23.4-13.4-30.3c-7.9-6.9-17.9-10.4-29.7-10.4
		c-12.9,0-22.8,3.7-29.9,11s-11.5,17.2-13.4,29.7H378.1L378.1,144.5z"/>
</g>
</svg>
