<?xml version="1.0" encoding="UTF-8"?>
<svg width="452px" height="397px" viewBox="0 0 452 397" version="1.1" xmlns="http://www.w3.org/2000/svg" xmlns:xlink="http://www.w3.org/1999/xlink">
    <!-- Generator: Sketch 53 (72520) - https://sketchapp.com -->
    <title>Path</title>
    <desc>Created with Sketch.</desc>
    <defs>
        <linearGradient x1="100%" y1="69.8516312%" x2="0%" y2="30.1239384%" id="linearGradient-1">
            <stop stop-color="#FBAB7E" offset="0%"></stop>
            <stop stop-color="#F7CE68" offset="100%"></stop>
        </linearGradient>
    </defs>
    <g id="Page-2" stroke="none" stroke-width="1" fill="none" fill-rule="evenodd">
        <g id="Desktop-HD" transform="translate(-844.000000, -2092.000000)" fill="url(#linearGradient-1)">
            <path d="M1189.35386,2154.13887 C1228.55386,2180.43887 1279.55386,2192.43887 1292.15386,2219.73887 C1304.65386,2246.93887 1278.65386,2289.33887 1258.15386,2327.73887 C1237.55386,2366.03887 1222.55386,2400.33887 1196.35386,2427.63887 C1170.25386,2454.93887 1132.95386,2475.43887 1089.45386,2484.03887 C1045.95386,2492.63887 996.253859,2489.53887 949.753859,2468.73887 C903.353859,2448.03887 860.253859,2409.73887 847.853859,2363.33887 C835.453859,2317.03887 853.853859,2262.63887 890.453859,2233.93887 C926.953859,2205.23887 981.653859,2202.13887 1018.95386,2175.23887 C1056.15386,2148.33887 1075.95386,2097.63887 1099.45386,2092.43887 C1122.95386,2087.33887 1150.25386,2127.83887 1189.35386,2154.13887 Z" id="Path"></path>
        </g>
    </g>
</svg>