<svg id="Layer_1" xmlns="http://www.w3.org/2000/svg" viewBox="0 0 561 296.6"><style>.st0{fill:#fff}</style><path class="st0" d="M58.6 170.1c3.3-2.5 6.7-4.9 10-7.5 12-9.6 25.1-15.6 40.8-12.6 8.2 1.6 15.1 11.3 13.5 19.5-2.4 12.2-5.6 24.2-8.6 36.2-5.3 21.3-13 42.2-12.2 64.7.2 6.2 4.8 11.2 10.8 10.8 11.4-.9 19.8-7.9 28.6-14.1.9-.7 1.1-3.4.6-4.9-3.4-10.2-3.9-20.8-2.3-31.1 3.3-21.8 11.1-41.9 26.7-58.2 5.6-5.8 11-12 17.4-16.7 8-5.9 17.4-9.2 27.5-9 9.5.1 16.3 5.7 20.3 13.9 3.3 6.6 1.1 13.3-2.5 19.4-8.4 14.3-16.7 28.7-25.4 42.9-10.3 16.7-23.4 31.2-37.9 44.4-3 2.7-2.7 4.7 1.3 5 5.8.4 12.4 1 17.5-1.2 9.9-4.3 19.8-9.5 28.3-16.1 14.3-11 28.4-22.7 41-35.5 7.8-7.9 14.7-17.1 16.1-29.5 1.1-10.1 4.3-20.2 7.7-29.8 6.2-17.7 12.5-35.4 20.2-52.4 6.6-14.4 14.9-28.1 23.2-41.5 8.6-13.8 18.1-27 27.2-40.5 2.8-4.1 11.8-2.7 14.6 2.6.9 1.7 1.5 4.1 1 5.9-5 16.6-10 33.3-15.6 49.7-3.1 9.2-7.2 18.2-11.1 27.2-4.2 9.7-8.5 19.4-13.2 28.9-5 10.1-9.9 20.3-15.8 29.9-8.4 13.6-17.9 26.5-26.1 40.3-2.5 4.3-2.9 10.2-3.2 15.4-.6 12.7-.7 25.5-.8 38.3 0 1.9 1.4 3.8 2.1 5.7 1.7-1.1 3.9-1.9 5.1-3.5 9-11.4 18.1-22.9 26.7-34.6 7.7-10.6 14.5-21.9 22.2-32.4 4.9-6.7 5.2-14.5 7-22 4.4-17.7 8.6-35.4 13.6-53 3.7-13.2 7.8-26.4 12.9-39.1 7.5-18.8 16.3-37 29.9-52.5 5.2-5.9 9.5-12.8 14.8-18.6 4.4-4.7 9.5-8.9 14.7-12.6 2-1.4 6.1-1.9 8.2-.8 3.6 1.9 6.6 5.2 5 10.2-3.8 12-7.1 24.1-11.3 35.9-4.7 13.1-10 26-15.4 38.8-3.6 8.5-7.5 17-11.7 25.2-7.6 14.9-15.2 29.8-23.4 44.5-6.5 11.7-14 23-20.8 34.6-2.2 3.7-4.6 7.7-5.1 11.7-1.1 9-1.3 18.2-1.6 27.4-.1 1.8 1 3.7 2 7.4 5.4-4.9 10.1-8.7 14.2-13 13.6-14 27.1-28.2 40.6-42.3 4.9-5.2 9.1-11.5 14.9-15.3 10.9-7.1 22.5-13.4 34.4-18.8 8.2-3.7 17.2-5.6 26-7.8 5-1.2 12.5 5.1 14.7 11.4 2.8 8.3 4.4 16.7 3.5 25.5-.2 2.3 0 4.6 0 8 5.7-2.3 10.7-4.5 15.7-6.4 11.6-4.5 23.1-9.1 34.8-13.2 2.5-.9 5.5-.1 8.8-.1-2.5 8.4-8.7 11.8-14.2 14.7-13.3 7.1-27.1 13.2-40.9 19.3-5.1 2.2-9.4 4.1-11.9 10-4.5 10.9-11.9 20.2-20.3 28.6-4.6 4.6-9.1 9.4-13.8 13.8-2.1 2-4.9 3.3-7.3 5-9.4 6.7-19.1 12.8-29.8 17.6-5.6 2.5-10.6 6.3-17 5.1-5.7-1.1-11.6-2.1-16.7-4.7-6.6-3.3-9.3-10-9.7-17-.4-5.7.5-11.6.9-17.4.1-1.4.4-2.8.7-4.2-.4-.3-.7-.6-1.1-.9-1.4 1.1-2.9 2-4.2 3.2-5.3 5-10.4 10.3-15.8 15.1-5 4.4-15 2.1-17.5-4.3-2.7-6.9-4.5-14.1-6.8-21.4-.4.2-1.5.4-1.9 1.1-4.9 7.1-9.3 14.6-14.6 21.3-8.9 11.5-18.4 22.6-27.7 33.8-6.7 8-20.6 5-24.4-6.6-4-12.2-4.7-24.7-4.5-37.4 0-1.2.1-2.3.1-3.5 0-.3-.3-.5-.8-1.1-.7.6-1.5 1-2.2 1.6-16.7 16-35 29.9-54.3 42.4-6.4 4.1-13.7 8.2-21 9.5-9.1 1.6-19 1.2-26.7-5.7-3.5-3.2-5.8-2.4-9.3.1-8.9 6.4-18 12.5-29.3 14-11.2 1.6-20.5-2-27.2-10.9-4.9-6.5-5.3-14.5-5.3-22.4.1-19.2 6.5-37.1 11.3-55.3 2.9-11.2 5.8-22.5 8.6-33.7.4-1.4.4-3 .4-4.5.1-5.2-1.6-6.5-6.6-5.2-15.5 3.9-27.6 13.3-38 25-14.5 16.4-24 35.6-31.2 56.2-3.8 11-7.7 21.9-11.5 32.8-1.2 3.4-1.8 7.1-3.4 10.2-2.1 3.9-5.8 4.4-9.9 3.2-3.4-1.1-4.7-3.4-5.7-6.7-1.8-6.1 1.6-10.4 3.5-15.4 3.5-9.1 6.3-18.5 9.7-27.6C19.8 225.6 27 209 33 192c8.7-24.4 17.3-48.8 24.6-73.6C64.3 95.7 70.3 72.8 72.2 49c.2-3 .7-6.8 5.2-6.6 3.6.2 9.3 6.2 8.8 9.4-1.2 8.4-1.9 16.9-4 25.1-6.5 25.7-13.6 51.2-20.4 76.8-1.4 5.4-2.9 10.8-4.4 16.2.7-.4 1-.1 1.2.2zm359.3 26.5c-5.6 9.9-11.5 19.3-16.3 29.2-3.4 7-6.3 14.5-7.5 22.1-1.8 11.6 2.1 16 12.9 15 4.4-.4 8.9-1.7 12.8-3.8 19.2-10.3 36.2-23.4 50.2-40.2 1.8-2.2 2.8-5 4.3-7.7-9.6 1.2-18.3 2.7-27.1 3.3-13 .8-22.8-5.4-27.8-16.7-.2-.2-.4-.3-1.5-1.2zm-263.7 57.7l1.8.6c1.6-1 3.6-1.7 4.8-3.1 9.3-10.6 19.4-20.7 27.3-32.2 10.4-15.1 19.3-31.3 28.5-47.3 1.1-2 1.2-5.6.1-7.5-.7-1.4-4.3-1.9-6.5-1.7-14.9 1.2-24.4 11.2-33.2 21.6-11.1 13.2-17.5 28.9-21 45.6-1.5 7.9-1.2 16-1.8 24zM488.5 172c-.2 0-.4-.1-.5-.1-.2-3 0-6.1-.6-8.9-.5-2.3-2-4.3-3-6.5-2 1.1-4 2.1-5.9 3.2-1.4.8-2.6 2.3-4 2.4-8.5.9-15.3 4.9-21.3 10.8-3.3 3.2-6.5 6.6-10.4 8.9-4.2 2.6-5.4 6.4-5.9 10.6-.2 1.3 1.4 3.6 2.7 4.1 2.7 1 5.9 2 8.7 1.5 10.3-1.6 20.6-3.5 30.7-5.9 2.7-.6 6-3.1 6.9-5.5 1.6-4.5 1.8-9.7 2.6-14.6zM421.2 29.7c-16.7 6.6-59 97-57.1 121.6 23.2-38.6 42.4-79 57.1-121.6zm-129.1 136c9.9-7.3 46.6-87.8 44.3-96.2-18.9 29.9-34.9 60.8-44.3 96.2z"/></svg>