<svg id="Layer_1" xmlns="http://www.w3.org/2000/svg" viewBox="0 0 15.4 15.4"><style>.st0{fill:#fff}</style><g id="objects"><path class="st0" d="M11.7 0h-8C1.7 0 0 1.7 0 3.7v8c0 2 1.7 3.7 3.7 3.7h8c2 0 3.7-1.7 3.7-3.7v-8c0-2.1-1.6-3.7-3.7-3.7zm-4 12.5c-2.6 0-4.8-2.1-4.8-4.8 0-2.6 2.1-4.8 4.8-4.8 2.6 0 4.8 2.1 4.8 4.8 0 2.6-2.2 4.8-4.8 4.8zm5-8.7c-.6 0-1.1-.5-1.1-1.1s.5-1.1 1.1-1.1 1.1.5 1.1 1.1-.5 1.1-1.1 1.1z"/><path class="st0" d="M7.7 4.5C6 4.5 4.5 5.9 4.5 7.7s1.4 3.2 3.2 3.2c1.7 0 3.2-1.4 3.2-3.2S9.4 4.5 7.7 4.5z"/></g></svg>