<svg id="Layer_1" xmlns="http://www.w3.org/2000/svg" viewBox="0 0 76.2 111.1"><style>.st0{fill:#211e1f}.st1{fill:#40bca9}.st2{fill:#221f1f}</style><path class="st0" d="M10.1 12.8H18v28l14.1-14.4h9.7L28.1 39.5l15 22.5h-9.6L22.6 44.8l-4.7 4.6v12.8h-7.8V12.8z"/><circle class="st1" cx="70" cy="45.6" r="6.1"/><path class="st0" d="M.1.1v71.5H10v-3.2H3.2V3.2H10V.1H3.2zM68.4 57.1v11.3H18v3.2h53.6V57.1zM71.6 34.1V.1H18v3.1h50.4v30.9z"/><g><path class="st2" d="M8.3 81.9c-.2-.3-.4-.5-.6-.7s-.5-.3-.8-.4-.6-.2-.9-.2c-.6 0-1.1.1-1.5.3-.4.2-.8.5-1 .9-.3.4-.4.8-.6 1.3-.1.5-.2 1-.2 1.5s.1 1 .2 1.5.3.9.6 1.3.6.7 1 .9c.4.2.9.3 1.5.3.8 0 1.4-.2 1.9-.7s.7-1.1.8-2h2.6c-.1.8-.2 1.4-.5 2s-.7 1.1-1.1 1.5c-.5.4-1 .8-1.6 1s-1.3.3-2 .3c-.9 0-1.7-.2-2.5-.5-.7-.3-1.4-.8-1.9-1.3-.5-.6-.9-1.2-1.2-2-.3-.8-.4-1.6-.4-2.4 0-.9.1-1.7.4-2.5s.7-1.4 1.2-2 1.1-1 1.9-1.3c.7-.3 1.6-.5 2.5-.5.7 0 1.3.1 1.9.3.6.2 1.1.5 1.6.8.5.4.9.8 1.2 1.4.3.5.5 1.2.6 1.9H8.8c-.3-.2-.4-.5-.5-.7zM16.5 78.7v4.6h4.9v-4.6H24v12h-2.6v-5.2h-4.9v5.2h-2.6v-12h2.6zM36.2 78.7v2.2h-6.3v2.6h5.8v2.1h-5.8v2.9h6.5v2.2h-9.1v-12h8.9zM38 80.9v-2.2h9.8v2.2h-3.6v9.8h-2.6v-9.8H38zM54.5 78.7l4.5 12h-2.7l-.9-2.7h-4.5l-.9 2.7h-2.7l4.5-12h2.7zm.2 7.3l-1.5-4.4-1.6 4.4h3.1zM63.5 78.7l5 8.1v-8.1H71v12h-2.6l-5-8v8h-2.5v-12h2.6zM3.2 98.9v5l4.7-5h3.3l-4.7 4.7 5.1 7.3H8.3l-3.6-5.4-1.5 1.5v3.9H.6v-12h2.6zM22.6 98.9v2.2h-6.3v2.6h5.8v2.1h-5.8v2.9h6.5v2.2h-9.1v-12h8.9zM27.3 107.9c.1.3.3.5.6.7.2.2.5.3.8.4s.7.1 1 .1c.2 0 .5 0 .8-.1.3 0 .5-.1.8-.2.2-.1.4-.3.6-.5.2-.2.2-.4.2-.7 0-.3-.1-.6-.3-.8-.2-.2-.5-.4-.8-.5s-.7-.3-1.1-.4c-.4-.1-.9-.2-1.3-.3-.4-.1-.9-.2-1.3-.4s-.8-.4-1.1-.6c-.3-.3-.6-.6-.8-1s-.3-.9-.3-1.4c0-.6.1-1.2.4-1.6.3-.5.6-.8 1-1.1.4-.3.9-.5 1.4-.7.5-.1 1.1-.2 1.6-.2.6 0 1.2.1 1.8.2s1.1.4 1.5.7c.4.3.8.7 1.1 1.2s.4 1.1.4 1.8h-2.6c0-.4-.1-.7-.2-.9-.1-.2-.3-.4-.5-.6-.2-.1-.5-.2-.7-.3-.3-.1-.6-.1-.9-.1-.2 0-.4 0-.6.1-.2 0-.4.1-.6.2-.2.1-.3.3-.4.4s-.2.4-.2.6 0 .4.1.6c.1.1.3.3.5.4.3.1.6.2 1.1.4s1.1.3 1.8.5c.2 0 .5.1.9.2s.8.3 1.2.6c.4.3.7.6 1 1s.4 1 .4 1.7c0 .5-.1 1.1-.3 1.5-.2.5-.5.9-1 1.2-.4.3-.9.6-1.6.8-.6.2-1.3.3-2.2.3-.7 0-1.3-.1-1.9-.2s-1.2-.4-1.6-.8c-.5-.3-.9-.8-1.1-1.3-.3-.5-.4-1.2-.4-1.9h2.6c0 .4.1.7.2 1zM39.7 98.9v4.6h4.9v-4.6h2.6v12h-2.6v-5.2h-4.9v5.2h-2.6v-12h2.6zM56.4 98.9l4.5 12h-2.8l-.9-2.7h-4.5l-.9 2.7h-2.7l4.5-12h2.8zm.1 7.3l-1.5-4.4-1.6 4.4h3.1zM64.6 110.9l-3.9-12h2.7l2.7 8.4 2.7-8.4h2.7l-4 12h-2.9z"/></g></svg>