<svg id="Layer_1" xmlns="http://www.w3.org/2000/svg" viewBox="0 0 111.2 32.7"><style>.st0{fill:#211e1f}.st1{fill:#40bca9}.st2{fill:#221f1f}</style><path class="st0" d="M4.6 5.8h3.6v12.7l6.5-6.5H19l-6.2 5.9 6.8 10.2h-4.4l-4.9-7.9-2.1 2.1v5.8H4.6V5.8z"/><circle class="st1" cx="31.8" cy="20.7" r="2.8"/><path class="st0" d="M0 0v32.5h4.5V31H1.4V1.4h3.1V0H1.4zM31 25.9V31H8.2v1.5h24.3v-6.6zM32.5 15.5V0H8.2v1.4H31v14.1z"/><g><path class="st2" d="M48 3.5c-.2-.3-.4-.5-.6-.7s-.5-.3-.8-.4c-.3-.1-.6-.2-.9-.2-.6 0-1.1.1-1.5.3s-.8.5-1 .9c-.3.4-.4.8-.6 1.3-.1.5-.2 1-.2 1.5s.1 1 .2 1.5.3.9.6 1.3.6.7 1 .9.9.3 1.5.3c.8 0 1.4-.2 1.9-.7s.7-1.1.8-2H51c-.1.8-.2 1.4-.5 2s-.7 1.1-1.1 1.5c-.5.4-1 .8-1.6 1s-1.3.3-2 .3c-.9 0-1.7-.2-2.5-.5-.7-.3-1.4-.8-1.9-1.3-.5-.6-.9-1.2-1.2-2s-.4-1.6-.4-2.4c0-.9.1-1.7.4-2.5.3-.8.7-1.4 1.2-2s1.1-1 1.9-1.3c.6-.1 1.4-.3 2.4-.3.7 0 1.3.1 1.9.3.6.2 1.1.5 1.6.8.5.4.8.8 1.2 1.4.2.5.4 1.1.4 1.8h-2.6c0-.3-.1-.6-.2-.8zM56.2.3v4.6h4.9V.3h2.6v12h-2.6V7.1h-4.9v5.2h-2.6V.3h2.6zM75.9.3v2.2h-6.3v2.6h5.8v2.1h-5.8v2.9h6.5v2.2H67V.3h8.9zM77.7 2.5V.3h9.8v2.2h-3.6v9.8h-2.6V2.5h-3.6zM94.2.3l4.5 12H96l-.9-2.7h-4.5l-1 2.7h-2.7l4.5-12h2.8zm.2 7.4l-1.5-4.4-1.6 4.4h3.1zM103.2.3l5 8.1V.3h2.5v12h-2.6l-5-8v8h-2.5V.3h2.6zM42.9 20.5v5l4.7-5h3.3l-4.7 4.7 5.1 7.3H48l-3.6-5.4-1.5 1.5v3.9h-2.6v-12h2.6zM62.3 20.5v2.2H56v2.6h5.8v2.1H56v2.9h6.5v2.2h-9.1v-12h8.9zM67 29.5c.1.3.3.5.6.7.2.2.5.3.8.4s.7.1 1 .1c.2 0 .5 0 .8-.1.3 0 .5-.1.8-.2.2-.1.4-.3.6-.5s.2-.4.2-.7c0-.3-.1-.6-.3-.8-.2-.2-.5-.4-.8-.5s-.7-.3-1.1-.4-.9-.2-1.3-.3c-.4-.1-.9-.2-1.3-.4s-.8-.4-1.1-.6c-.3-.3-.6-.6-.8-1-.2-.4-.3-.9-.3-1.4 0-.6.1-1.2.4-1.6.3-.5.6-.8 1-1.1.4-.3.9-.5 1.4-.7.5-.1 1.1-.2 1.6-.2.6 0 1.2.1 1.8.2.6.1 1.1.4 1.5.7.4.3.8.7 1.1 1.2.3.5.4 1.1.4 1.8h-2.6c0-.4-.1-.7-.2-.9-.1-.2-.3-.4-.5-.6-.2-.1-.5-.2-.7-.3-.3-.1-.6-.1-.9-.1-.2 0-.4 0-.6.1-.2 0-.4.1-.6.2s-.3.3-.4.4c-.1.2-.2.4-.2.6s0 .4.1.6c.1.1.3.3.5.4.3.1.6.2 1.1.4.5.1 1.1.3 1.8.5.2 0 .5.1.9.2s.8.3 1.2.6c.4.3.7.6 1 1s.4 1 .4 1.7c0 .5-.1 1.1-.3 1.5-.2.5-.5.9-1 1.2-.4.3-.9.6-1.6.8-.6.2-1.3.3-2.2.3-.7 0-1.3-.1-1.9-.2-.6-.2-1.2-.4-1.6-.8-.5-.3-.9-.8-1.1-1.3-.3-.5-.4-1.2-.4-1.9h2.6c0 .4.1.8.2 1zM79.4 20.5v4.6h4.9v-4.6h2.6v12h-2.6v-5.2h-4.9v5.2h-2.6v-12h2.6zM96.1 20.5l4.5 12h-2.7l-.9-2.7h-4.5l-.9 2.7h-2.7l4.5-12h2.7zm.1 7.4l-1.5-4.4-1.6 4.4h3.1zM104.3 32.5l-3.9-12h2.7l2.7 8.4 2.7-8.4h2.7l-4 12h-2.9z"/></g></svg>