<svg id="Layer_1" xmlns="http://www.w3.org/2000/svg" viewBox="0 0 120.5 520.4"><style>.st0{fill:#f54123}</style><path class="st0" d="M0 477c0-6 .9-11.1 2.6-15.3 1.8-4.2 4.1-7.7 6.9-10.3 2.9-2.6 6.1-4.6 9.8-5.8 3.7-1.2 7.5-1.8 11.4-1.8 3.9 0 7.7.6 11.4 1.8 3.7 1.2 7 3.1 9.9 5.8 2.9 2.6 5.2 6.1 6.9 10.3 1.7 4.2 2.6 9.3 2.6 15.3v22.2H96v21.1H0V477zm45.2 5.8c0-2.4-.2-4.8-.5-7-.4-2.2-1.1-4.2-2.1-5.9-1-1.7-2.5-3.1-4.4-4.1-1.9-1-4.4-1.5-7.4-1.5s-5.5.5-7.4 1.5c-1.9 1-3.3 2.4-4.4 4.1-1 1.7-1.7 3.7-2.1 5.9-.4 2.2-.5 4.6-.5 7v16.4h28.8v-16.4zM26.5 414.4h12.9v-.3c-2.2-.9-4.1-2.1-6-3.6-1.8-1.5-3.4-3.3-4.7-5.2-1.3-2-2.3-4.1-3-6.3-.7-2.2-1.1-4.6-1.1-7 0-1.3.2-2.6.7-4.2h17.8c-.2.9-.3 2-.5 3.2-.1 1.3-.2 2.5-.2 3.6 0 3.5.6 6.5 1.8 8.9 1.2 2.4 2.8 4.4 4.8 5.9s4.4 2.5 7.1 3.2c2.7.6 5.6.9 8.7.9h31.4v19.1H26.5v-18.2zM46.2 382.3c-4.5-1.7-8.4-4.1-11.6-7.3-3.2-3.1-5.7-6.9-7.4-11.3-1.7-4.4-2.6-9.3-2.6-14.8s.9-10.4 2.6-14.9c1.8-4.4 4.2-8.2 7.4-11.4 3.2-3.1 7-5.6 11.6-7.3 4.5-1.7 9.6-2.6 15.1-2.6 5.6 0 10.6.9 15.1 2.6 4.5 1.7 8.3 4.1 11.5 7.3 3.2 3.1 5.6 6.9 7.3 11.4s2.6 9.4 2.6 14.9-.9 10.4-2.6 14.8-4.1 8.2-7.3 11.3c-3.2 3.1-7 5.6-11.5 7.3-4.5 1.7-9.5 2.6-15.1 2.6-5.5-.1-10.5-.9-15.1-2.6zm23.3-17.4c2.6-.5 5-1.5 7.1-2.8 2.1-1.3 3.8-3 5-5.2 1.3-2.2 1.9-4.8 1.9-8.1s-.6-5.9-1.9-8.1c-1.3-2.2-2.9-3.9-5-5.2-2.1-1.3-4.5-2.2-7.1-2.8-2.6-.5-5.4-.8-8.1-.8-2.8 0-5.5.3-8.2.8-2.7.5-5.1 1.5-7.1 2.8-2.1 1.3-3.7 3.1-5 5.2-1.3 2.2-2 4.9-2 8.1s.7 5.9 2 8.1c1.3 2.2 3 3.9 5 5.2 2.1 1.3 4.4 2.2 7.1 2.8s5.4.8 8.2.8c2.8 0 5.5-.3 8.1-.8zM15.7 298.7H0v-19.1h15.7v19.1zm89 7.4c0-2-.4-3.7-1.1-5.2-.8-1.5-2.4-2.2-5-2.2h-72v-19.1h73c3.6 0 6.7.4 9.3 1.1 2.6.8 4.8 2.1 6.5 3.9 1.8 1.8 3 4.3 3.9 7.5.9 3.1 1.3 7.1 1.3 12 0 2.2-.2 4.3-.5 6.1h-15.7c.1-1.1.3-2.4.3-4.1zM79.4 242.5c2.8-2.9 4.2-7 4.2-12.4 0-3.9-1-7.2-2.9-10s-4-4.5-6.1-5.1v-16.8c8.3 2.7 14.3 6.8 17.9 12.4 3.6 5.6 5.4 12.3 5.4 20.2 0 5.5-.9 10.4-2.6 14.8-1.8 4.4-4.2 8.1-7.5 11.2-3.2 3.1-7.1 5.4-11.6 7.1-4.5 1.7-9.4 2.5-14.8 2.5-5.2 0-10-.9-14.5-2.6-4.5-1.7-8.4-4.1-11.6-7.3-3.3-3.1-5.9-6.9-7.7-11.2-1.9-4.4-2.8-9.2-2.8-14.5 0-5.9 1.1-11.1 3.4-15.5s5.4-8 9.2-10.8c3.9-2.8 8.3-4.9 13.2-6.1 4.9-1.3 10.1-1.7 15.5-1.3v50.2c6-.3 10.5-1.9 13.3-4.8zm-36.6-21.6c-2.5 2.3-3.8 5.8-3.8 10.4 0 3.1.5 5.6 1.5 7.6s2.3 3.6 3.8 4.8c1.5 1.2 3.1 2.1 4.8 2.6 1.7.5 3.2.8 4.6.9v-31.1c-4.7 1-8.4 2.6-10.9 4.8zM39 152.5c0 3.1.7 5.6 2.1 7.7 1.4 2.1 3.2 3.7 5.4 5 2.2 1.3 4.6 2.2 7.3 2.8 2.6.5 5.3.8 7.9.8 2.5 0 5.1-.3 7.7-.8 2.6-.5 5-1.4 7.1-2.6 2.1-1.2 3.8-2.8 5.2-4.9 1.3-2.1 2-4.6 2-7.5 0-4.6-1.3-8.1-3.8-10.6-2.6-2.5-6-4-10.3-4.6v-18.4c9.2 1.3 16.3 4.8 21.1 10.8 4.8 5.9 7.3 13.5 7.3 22.7 0 5.2-.9 10-2.6 14.3-1.8 4.4-4.2 8.1-7.3 11.1-3.1 3.1-6.9 5.4-11.2 7.1-4.4 1.7-9.1 2.6-14.3 2.6-5.4 0-10.4-.8-15-2.4-4.6-1.6-8.6-3.9-12-6.9-3.4-3-6-6.8-7.9-11.2-1.9-4.4-2.8-9.4-2.8-15.1 0-4.1.5-8.1 1.6-11.9 1.1-3.8 2.7-7.2 4.9-10.2 2.2-3 4.9-5.5 8.2-7.3 3.3-1.9 7.2-3 11.6-3.2v18.7c-8.2 1.1-12.2 5.8-12.2 14zM26.5 70.3h12.8v14h34.5c3.2 0 5.4-.5 6.5-1.6 1.1-1.1 1.6-3.2 1.6-6.5 0-1.1 0-2.1-.1-3.1s-.2-1.9-.4-2.8h14.8c.3 1.6.4 3.4.5 5.4.1 2 .1 3.9.1 5.8 0 3-.2 5.8-.6 8.4-.4 2.6-1.2 5-2.4 7s-2.8 3.6-5 4.8c-2.2 1.2-5 1.8-8.5 1.8h-41v11.6H26.5v-11.6H5.7V84.3h20.9v-14zM78.8 45c1.5-.9 2.7-2 3.6-3.3.9-1.3 1.6-2.9 2.1-4.6.4-1.7.7-3.6.7-5.5 0-1.3-.2-2.8-.5-4.2-.3-1.5-.8-2.8-1.5-4-.7-1.2-1.6-2.2-2.7-3-1.1-.8-2.5-1.2-4.2-1.2-2.9 0-5 1.9-6.5 5.7-1.4 3.8-2.9 9.1-4.3 16-.6 2.8-1.4 5.5-2.2 8.1-.9 2.6-2 5-3.4 7.1-1.4 2.1-3.1 3.7-5.2 5C52.6 62.4 50 63 47 63c-4.5 0-8.2-.9-11-2.6-2.9-1.8-5.1-4.1-6.8-6.9-1.7-2.9-2.8-6.1-3.5-9.7-.7-3.6-1-7.3-1-11s.4-7.4 1.1-11c.7-3.5 1.9-6.7 3.6-9.5 1.7-2.8 4-5.1 6.8-6.9 2.8-1.8 6.4-2.9 10.7-3.3v18.2c-3.7.3-6.2 1.7-7.5 4.2-1.3 2.5-2 5.5-2 8.9 0 1.1.1 2.2.2 3.5.1 1.3.4 2.4.9 3.4s1.1 1.9 2 2.6c.9.7 2 1.1 3.4 1.1 1.7 0 3.1-.6 4.2-1.9 1.1-1.3 2-2.9 2.6-4.9.7-2 1.3-4.3 1.8-6.9.5-2.6 1.1-5.2 1.8-7.9.6-2.8 1.4-5.5 2.3-8.1.9-2.6 2.1-5 3.6-7.1 1.5-2.1 3.3-3.7 5.5-5C67.8.6 70.5 0 73.8 0c4.6 0 8.4.9 11.5 2.8 3.1 1.8 5.6 4.2 7.5 7.2 1.9 3 3.2 6.3 4 10.2.8 3.8 1.1 7.7 1.1 11.6 0 4-.4 8-1.2 11.8-.8 3.9-2.2 7.3-4 10.3-1.9 3-4.4 5.5-7.5 7.4-3.1 1.9-7 3-11.6 3.2V46.3c2 0 3.7-.4 5.2-1.3z"/></svg>