<svg id="Layer_1" xmlns="http://www.w3.org/2000/svg" viewBox="0 0 520.3 120.6"><style>.st0{fill:#f54123}</style><path class="st0" d="M43.3 0c6 0 11.1.9 15.3 2.6 4.2 1.8 7.7 4.1 10.3 6.9 2.6 2.9 4.6 6.1 5.8 9.8 1.2 3.7 1.8 7.5 1.8 11.4s-.6 7.7-1.8 11.4c-1.2 3.7-3.1 7-5.8 9.9-2.6 2.9-6.1 5.2-10.3 6.9-4.2 1.7-9.3 2.6-15.3 2.6H21.1V96H0V0h43.3zm-5.8 45.2c2.4 0 4.8-.2 7-.5 2.2-.4 4.2-1.1 5.9-2.1 1.7-1 3.1-2.5 4.1-4.4s1.5-4.4 1.5-7.4-.5-5.5-1.5-7.4-2.4-3.3-4.1-4.4c-1.7-1-3.7-1.7-5.9-2.1-2.2-.4-4.6-.5-7-.5H21.1v28.8h16.4zM105.9 26.5v12.9h.3c.9-2.2 2.1-4.1 3.6-6 1.5-1.8 3.3-3.4 5.2-4.7 2-1.3 4.1-2.3 6.3-3 2.2-.7 4.6-1.1 7-1.1 1.3 0 2.6.2 4.2.7v17.8c-.9-.2-2-.3-3.2-.5-1.3-.1-2.5-.2-3.6-.2-3.5 0-6.5.6-8.9 1.8-2.4 1.2-4.4 2.8-5.9 4.8s-2.5 4.4-3.2 7.1c-.6 2.7-.9 5.6-.9 8.7v31.4H87.7V26.5h18.2zM138 46.2c1.7-4.5 4.1-8.4 7.3-11.6 3.1-3.2 6.9-5.7 11.3-7.4s9.3-2.6 14.8-2.6 10.4.9 14.9 2.6c4.4 1.8 8.2 4.2 11.4 7.4 3.1 3.2 5.6 7 7.3 11.6 1.7 4.5 2.6 9.6 2.6 15.1 0 5.6-.9 10.6-2.6 15.1-1.7 4.5-4.1 8.3-7.3 11.5-3.1 3.2-6.9 5.6-11.4 7.3-4.5 1.7-9.4 2.6-14.9 2.6s-10.4-.9-14.8-2.6c-4.4-1.7-8.2-4.1-11.3-7.3-3.1-3.2-5.6-7-7.3-11.5-1.7-4.5-2.6-9.5-2.6-15.1.1-5.5.9-10.5 2.6-15.1zm17.4 23.3c.5 2.6 1.5 5 2.8 7.1 1.3 2.1 3 3.8 5.2 5 2.2 1.3 4.8 1.9 8.1 1.9s5.9-.6 8.1-1.9 3.9-2.9 5.2-5c1.3-2.1 2.2-4.5 2.8-7.1.5-2.6.8-5.4.8-8.1 0-2.8-.3-5.5-.8-8.2s-1.5-5.1-2.8-7.1c-1.3-2.1-3.1-3.7-5.2-5-2.2-1.3-4.9-2-8.1-2s-5.9.7-8.1 2c-2.2 1.3-3.9 3-5.2 5-1.3 2.1-2.2 4.4-2.8 7.1s-.8 5.4-.8 8.2c0 2.8.3 5.5.8 8.1zM221.6 15.7V0h19.1v15.7h-19.1zm-7.4 89c2 0 3.7-.4 5.2-1.1 1.5-.8 2.2-2.4 2.2-5v-72h19.1v73c0 3.6-.4 6.7-1.1 9.3-.8 2.6-2.1 4.8-3.9 6.5-1.8 1.8-4.3 3-7.5 3.9-3.1.9-7.1 1.3-12 1.3-2.2 0-4.3-.2-6.1-.5v-15.7c1.1.1 2.4.3 4.1.3zM277.8 79.4c2.9 2.8 7 4.2 12.4 4.2 3.9 0 7.2-1 10-2.9s4.5-4 5.1-6.1h16.8c-2.7 8.3-6.8 14.3-12.4 17.9-5.6 3.6-12.3 5.4-20.2 5.4-5.5 0-10.4-.9-14.8-2.6-4.4-1.8-8.1-4.2-11.2-7.5-3.1-3.2-5.4-7.1-7.1-11.6s-2.5-9.4-2.5-14.8c0-5.2.9-10 2.6-14.5 1.7-4.5 4.1-8.4 7.3-11.6 3.1-3.3 6.9-5.9 11.2-7.7 4.4-1.9 9.2-2.8 14.5-2.8 5.9 0 11.1 1.1 15.5 3.4s8 5.4 10.8 9.2c2.8 3.9 4.9 8.3 6.1 13.2 1.3 4.9 1.7 10.1 1.3 15.5H273c.3 6 1.9 10.5 4.8 13.3zm21.6-36.6c-2.3-2.5-5.8-3.8-10.4-3.8-3.1 0-5.6.5-7.6 1.5s-3.6 2.3-4.8 3.8c-1.2 1.5-2.1 3.1-2.6 4.8s-.8 3.2-.9 4.6h31.1c-1-4.7-2.6-8.4-4.8-10.9zM367.8 39c-3.1 0-5.6.7-7.7 2.1-2.1 1.4-3.7 3.2-5 5.4s-2.2 4.6-2.8 7.3c-.5 2.6-.8 5.3-.8 7.9 0 2.5.3 5.1.8 7.7s1.4 5 2.6 7.1c1.2 2.1 2.8 3.8 4.9 5.2 2.1 1.3 4.6 2 7.5 2 4.6 0 8.1-1.3 10.6-3.8 2.5-2.6 4-6 4.6-10.3h18.4c-1.3 9.2-4.8 16.3-10.8 21.1-5.9 4.8-13.5 7.3-22.7 7.3-5.2 0-10-.9-14.3-2.6-4.4-1.8-8.1-4.2-11.1-7.3-3.1-3.1-5.4-6.9-7.1-11.2-1.7-4.4-2.6-9.1-2.6-14.3 0-5.4.8-10.4 2.4-15 1.6-4.6 3.9-8.6 6.9-12s6.8-6 11.2-7.9 9.4-2.8 15.1-2.8c4.1 0 8.1.5 11.9 1.6 3.8 1.1 7.2 2.7 10.2 4.9s5.5 4.9 7.3 8.2c1.9 3.3 3 7.2 3.2 11.6h-18.7C380.7 43 376 39 367.8 39zM450 26.5v12.8h-14v34.5c0 3.2.5 5.4 1.6 6.5s3.2 1.6 6.5 1.6c1.1 0 2.1 0 3.1-.1s1.9-.2 2.8-.4v14.8c-1.6.3-3.4.4-5.4.5s-3.9.1-5.8.1c-3 0-5.8-.2-8.4-.6-2.6-.4-5-1.2-7-2.4s-3.6-2.8-4.8-5-1.8-5-1.8-8.5v-41h-11.6V26.5h11.6V5.7H436v20.9l14-.1zM475.3 78.8c.9 1.5 2 2.7 3.3 3.6 1.3.9 2.9 1.6 4.6 2.1 1.7.4 3.6.7 5.5.7 1.3 0 2.8-.2 4.2-.5 1.5-.3 2.8-.8 4-1.5 1.2-.7 2.2-1.6 3-2.7.8-1.1 1.2-2.5 1.2-4.2 0-2.9-1.9-5-5.7-6.5-3.8-1.4-9.1-2.9-16-4.3-2.8-.6-5.5-1.4-8.1-2.2-2.6-.9-5-2-7.1-3.4s-3.7-3.1-5-5.2c-1.3-2.1-1.9-4.7-1.9-7.7 0-4.5.9-8.2 2.6-11 1.8-2.9 4.1-5.1 6.9-6.8 2.9-1.7 6.1-2.8 9.7-3.5 3.6-.7 7.3-1 11-1s7.4.4 11 1.1c3.5.7 6.7 1.9 9.5 3.6 2.8 1.7 5.1 4 6.9 6.8 1.8 2.8 2.9 6.4 3.3 10.7H500c-.3-3.7-1.7-6.2-4.2-7.5s-5.5-2-8.9-2c-1.1 0-2.2.1-3.5.2-1.3.1-2.4.4-3.4.9s-1.9 1.1-2.6 2c-.7.9-1.1 2-1.1 3.4 0 1.7.6 3.1 1.9 4.2 1.3 1.1 2.9 2 4.9 2.6 2 .7 4.3 1.3 6.9 1.8 2.6.5 5.2 1.1 7.9 1.8 2.8.6 5.5 1.4 8.1 2.3 2.6.9 5 2.1 7.1 3.6 2.1 1.5 3.7 3.3 5 5.5 1.6 2.1 2.2 4.8 2.2 8.1 0 4.6-.9 8.4-2.8 11.5-1.8 3.1-4.2 5.6-7.2 7.5-3 1.9-6.3 3.2-10.2 4-3.8.8-7.7 1.1-11.6 1.1-4 0-8-.4-11.8-1.2-3.9-.8-7.3-2.2-10.3-4-3-1.9-5.5-4.4-7.4-7.5-1.9-3.1-3-7-3.2-11.6H474c0 2 .4 3.7 1.3 5.2z"/></svg>