<?xml version="1.0" encoding="utf-8"?>
<!-- Generator: Adobe Illustrator 22.0.1, SVG Export Plug-In . SVG Version: 6.00 Build 0)  -->
<svg version="1.1" id="Layer_1" xmlns="http://www.w3.org/2000/svg" xmlns:xlink="http://www.w3.org/1999/xlink" x="0px" y="0px"
	 viewBox="0 0 101.6 82.6" style="enable-background:new 0 0 101.6 82.6;" xml:space="preserve">
<g>
	<path d="M101.6,9.8c-3.7,1.7-7.8,2.8-12,3.3c4.3-2.6,7.6-6.7,9.2-11.5c-4,2.4-8.5,4.1-13.2,5.1C81.8,2.5,76.3,0,70.3,0
		C58.8,0,49.5,9.3,49.5,20.8c0,1.6,0.2,3.2,0.5,4.8c-17.3-0.9-32.7-9.2-43-21.8c-1.8,3.1-2.8,6.7-2.8,10.5c0,7.2,3.7,13.6,9.3,17.4
		c-3.4-0.1-6.6-1-9.4-2.6c0,0.1,0,0.2,0,0.3c0,10.1,7.2,18.5,16.7,20.4c-1.7,0.5-3.6,0.7-5.5,0.7c-1.3,0-2.7-0.1-3.9-0.4
		c2.7,8.3,10.3,14.3,19.5,14.5c-7.1,5.6-16.1,8.9-25.9,8.9c-1.7,0-3.3-0.1-5-0.3c9.2,5.9,20.2,9.4,32,9.4
		c38.3,0,59.3-31.8,59.3-59.3c0-0.9,0-1.8-0.1-2.7C95.3,17.6,98.8,14,101.6,9.8L101.6,9.8z"/>
</g>
</svg>
