<svg xmlns="http://www.w3.org/2000/svg" viewBox="0 0 101.6 82.6"><path d="M101.6 9.8c-3.7 1.7-7.8 2.8-12 3.3 4.3-2.6 7.6-6.7 9.2-11.5-4 2.4-8.5 4.1-13.2 5.1C81.8 2.5 76.3 0 70.3 0 58.8 0 49.5 9.3 49.5 20.8c0 1.6.2 3.2.5 4.8-17.3-.9-32.7-9.2-43-21.8-1.8 3.1-2.8 6.7-2.8 10.5 0 7.2 3.7 13.6 9.3 17.4-3.4-.1-6.6-1-9.4-2.6v.3c0 10.1 7.2 18.5 16.7 20.4-1.7.5-3.6.7-5.5.7-1.3 0-2.7-.1-3.9-.4 2.7 8.3 10.3 14.3 19.5 14.5-7.1 5.6-16.1 8.9-25.9 8.9-1.7 0-3.3-.1-5-.3 9.2 5.9 20.2 9.4 32 9.4 38.3 0 59.3-31.8 59.3-59.3 0-.9 0-1.8-.1-2.7 4.1-3 7.6-6.6 10.4-10.8z"/></svg>