<svg width="2605" height="422" viewBox="0 0 2605 422" xmlns="http://www.w3.org/2000/svg"><title>Artboard</title><g fill="none" fill-rule="evenodd"><path fill="#FFF" d="M2183 0h422v422h-422z"/><path d="M132.152 216.065c-3.352-21.302-15.92-31.952-37.706-31.952-8.14 0-14.963 1.855-20.47 5.564-5.506 3.71-9.995 8.497-13.466 14.36-3.472 5.865-5.925 12.327-7.362 19.387-1.436 7.06-2.155 14.062-2.155 21.002 0 6.702.719 13.523 2.155 20.464 1.437 6.94 3.77 13.223 7.003 18.848 3.232 5.624 7.6 10.232 13.107 13.822s12.21 5.385 20.11 5.385c12.21 0 21.607-3.41 28.19-10.232 6.584-6.821 10.714-15.976 12.39-27.464h49.197c-3.351 24.652-12.927 43.44-28.728 56.364C138.616 334.538 118.387 341 93.727 341c-13.885 0-26.633-2.334-38.245-7-11.61-4.668-21.486-11.19-29.626-19.567s-14.484-18.369-19.033-29.977C2.274 272.848 0 260.103 0 246.221c0-14.36 2.095-27.703 6.284-40.03 4.19-12.325 10.355-22.976 18.495-31.951 8.14-8.975 18.075-15.976 29.806-21.002 11.73-5.026 25.137-7.54 40.22-7.54 11.012 0 21.606 1.437 31.78 4.309 10.176 2.872 19.273 7.24 27.293 13.104 8.02 5.864 14.544 13.163 19.572 21.9 5.027 8.735 7.9 19.087 8.618 31.054h-49.916zM211.874 80h50.994v96.574h1.077c6.464-10.77 14.723-18.61 24.778-23.516 10.056-4.906 19.871-7.36 29.447-7.36 13.647 0 24.839 1.856 33.577 5.565 8.738 3.71 15.621 8.856 20.649 15.438 5.027 6.582 8.559 14.6 10.594 24.053 2.034 9.454 3.052 19.925 3.052 31.414v114.165h-50.994v-104.83c0-15.319-2.394-26.747-7.182-34.286-4.788-7.54-13.287-11.31-25.496-11.31-13.886 0-23.941 4.13-30.166 12.387-6.224 8.257-9.336 21.84-9.336 40.747v97.292h-50.994V80zm337.922 143.604c-2.395-12.925-6.644-22.737-12.749-29.439-6.105-6.701-15.382-10.052-27.83-10.052-8.14 0-14.904 1.376-20.29 4.128-5.387 2.753-9.696 6.163-12.928 10.232-3.232 4.069-5.507 8.377-6.823 12.925-1.317 4.547-2.095 8.616-2.335 12.206h82.955zm-82.955 32.31c.719 16.515 4.908 28.482 12.57 35.902 7.66 7.42 18.673 11.129 33.037 11.129 10.295 0 19.153-2.573 26.574-7.719 7.422-5.146 11.97-10.59 13.646-16.335h44.889c-7.182 22.259-18.195 38.175-33.038 47.749-14.843 9.573-32.798 14.36-53.866 14.36-14.604 0-27.771-2.334-39.502-7-11.731-4.668-21.666-11.31-29.806-19.926-8.14-8.616-14.424-18.908-18.854-30.875-4.429-11.967-6.643-25.13-6.643-39.49 0-13.882 2.274-26.807 6.823-38.774 4.549-11.967 11.013-22.318 19.392-31.054 8.38-8.736 18.374-15.617 29.985-20.643 11.612-5.026 24.48-7.54 38.605-7.54 15.8 0 29.566 3.052 41.297 9.156 11.731 6.103 21.367 14.3 28.908 24.592 7.542 10.291 12.988 22.019 16.34 35.183 3.352 13.163 4.549 26.925 3.591 41.286H466.841zm228.753-105.19h37.347v34.107h-37.347v91.906c0 8.617 1.436 14.36 4.309 17.233 2.873 2.872 8.619 4.308 17.237 4.308 2.873 0 5.626-.12 8.26-.36a71.458 71.458 0 0 0 7.541-1.076v39.49c-4.31.719-9.097 1.198-14.364 1.437-5.267.24-10.414.359-15.442.359-7.9 0-15.382-.539-22.444-1.616-7.063-1.077-13.287-3.17-18.674-6.282-5.387-3.112-9.636-7.54-12.748-13.284-3.113-5.744-4.669-13.283-4.669-22.617V184.83h-30.883v-34.106H644.6V95.078h50.994v55.647zm59.612 57.083c.718-11.967 3.71-21.9 8.977-29.797 5.267-7.899 11.97-14.241 20.11-19.028 8.14-4.787 17.298-8.197 27.472-10.232a156.228 156.228 0 0 1 30.704-3.051c9.337 0 18.794.658 28.37 1.974 9.576 1.317 18.314 3.89 26.215 7.719 7.9 3.83 14.364 9.155 19.392 15.976 5.027 6.821 7.54 15.856 7.54 27.105v96.574c0 8.377.48 16.395 1.437 24.053.958 7.66 2.634 13.403 5.028 17.233h-51.712a73.139 73.139 0 0 1-2.334-8.796 76.57 76.57 0 0 1-1.257-9.155c-8.14 8.377-17.716 14.241-28.729 17.592A115.34 115.34 0 0 1 812.663 341c-8.858 0-17.117-1.077-24.778-3.231-7.661-2.154-14.365-5.505-20.11-10.052-5.746-4.548-10.235-10.292-13.467-17.233-3.232-6.94-4.848-15.198-4.848-24.771 0-10.531 1.855-19.207 5.566-26.029 3.711-6.82 8.5-12.266 14.365-16.335 5.865-4.068 12.568-7.12 20.11-9.154a214.734 214.734 0 0 1 22.803-4.847 389.87 389.87 0 0 1 22.624-2.872c7.422-.718 14.005-1.795 19.75-3.231 5.747-1.436 10.295-3.53 13.647-6.283 3.352-2.752 4.908-6.761 4.668-12.027 0-5.504-.897-9.872-2.693-13.104-1.795-3.23-4.19-5.744-7.182-7.539-2.993-1.795-6.464-2.991-10.414-3.59-3.95-.598-8.2-.897-12.749-.897-10.055 0-17.955 2.154-23.7 6.462-5.747 4.308-9.098 11.488-10.056 21.54h-50.993zm117.787 37.696c-2.154 1.915-4.848 3.411-8.08 4.488-3.231 1.077-6.703 1.975-10.414 2.693-3.71.718-7.6 1.316-11.67 1.795-4.07.478-8.14 1.077-12.21 1.795a92.11 92.11 0 0 0-11.312 2.872c-3.711 1.197-6.943 2.812-9.696 4.846-2.753 2.035-4.968 4.608-6.644 7.72-1.676 3.11-2.514 7.06-2.514 11.846 0 4.548.838 8.377 2.514 11.489 1.676 3.111 3.95 5.564 6.823 7.36 2.873 1.795 6.225 3.051 10.055 3.77 3.83.717 7.781 1.076 11.85 1.076 10.056 0 17.837-1.675 23.343-5.026 5.506-3.35 9.576-7.36 12.21-12.027 2.633-4.667 4.25-9.394 4.848-14.18.598-4.788.897-8.617.897-11.49v-19.027zm90.496-94.778h48.48v25.849h1.077c6.464-10.77 14.843-18.61 25.137-23.516 10.295-4.906 20.829-7.36 31.602-7.36 13.646 0 24.838 1.856 33.577 5.565 8.738 3.71 15.62 8.856 20.648 15.438 5.028 6.582 8.56 14.6 10.594 24.053 2.035 9.454 3.053 19.925 3.053 31.414v114.165h-50.994v-104.83c0-15.319-2.394-26.747-7.182-34.286-4.788-7.54-13.287-11.31-25.497-11.31-13.885 0-23.94 4.13-30.165 12.387-6.224 8.257-9.337 21.84-9.337 40.747v97.292H963.49V150.725zM1280.94 80h50.993v137.5l64.28-66.775h60.331l-70.026 68.212 77.927 117.396h-61.767l-50.994-82.931-19.75 19.027v63.904h-50.994V80zm326.43 143.604c-2.394-12.925-6.644-22.737-12.748-29.439-6.105-6.701-15.382-10.052-27.831-10.052-8.14 0-14.903 1.376-20.29 4.128-5.387 2.753-9.696 6.163-12.928 10.232-3.232 4.069-5.506 8.377-6.823 12.925-1.317 4.547-2.095 8.616-2.334 12.206h82.954zm-82.954 32.31c.718 16.515 4.908 28.482 12.569 35.902 7.66 7.42 18.673 11.129 33.038 11.129 10.294 0 19.152-2.573 26.574-7.719 7.421-5.146 11.97-10.59 13.646-16.335h44.888c-7.182 22.259-18.194 38.175-33.038 47.749-14.843 9.573-32.798 14.36-53.866 14.36-14.604 0-27.771-2.334-39.502-7-11.73-4.668-21.666-11.31-29.806-19.926-8.14-8.616-14.424-18.908-18.853-30.875-4.43-11.967-6.644-25.13-6.644-39.49 0-13.882 2.275-26.807 6.823-38.774 4.55-11.967 11.013-22.318 19.392-31.054 8.38-8.736 18.375-15.617 29.986-20.643s24.479-7.54 38.604-7.54c15.8 0 29.567 3.052 41.298 9.156 11.73 6.103 21.366 14.3 28.908 24.592 7.541 10.291 12.988 22.019 16.34 35.183 3.351 13.163 4.548 26.925 3.59 41.286h-133.947zm203.614 20.105c0 5.505 1.138 10.232 3.412 14.181 2.274 3.95 5.207 7.18 8.798 9.693s7.721 4.368 12.39 5.565c4.668 1.197 9.516 1.795 14.543 1.795 3.591 0 7.362-.419 11.312-1.256 3.95-.838 7.542-2.154 10.773-3.95a24.49 24.49 0 0 0 8.08-7.18c2.155-2.991 3.232-6.761 3.232-11.309 0-7.658-5.087-13.403-15.262-17.232-10.174-3.83-24.36-7.659-42.554-11.488a251.757 251.757 0 0 1-21.726-5.924c-7.063-2.274-13.347-5.265-18.853-8.975-5.507-3.71-9.936-8.377-13.287-14.002-3.352-5.624-5.028-12.505-5.028-20.643 0-11.967 2.334-21.78 7.003-29.438 4.668-7.66 10.833-13.703 18.494-18.13 7.66-4.428 16.28-7.54 25.856-9.335 9.576-1.795 19.391-2.692 29.447-2.692 10.055 0 19.81.957 29.267 2.872 9.456 1.915 17.895 5.146 25.317 9.693 7.422 4.548 13.586 10.59 18.494 18.13 4.908 7.54 7.84 17.053 8.798 28.541h-48.48c-.718-9.813-4.428-16.454-11.132-19.925-6.703-3.47-14.603-5.205-23.7-5.205-2.874 0-5.986.18-9.338.538-3.351.36-6.404 1.137-9.157 2.334a18.858 18.858 0 0 0-7.003 5.205c-1.915 2.274-2.872 5.326-2.872 9.155 0 4.548 1.675 8.257 5.027 11.13 3.352 2.872 7.72 5.205 13.108 7 5.386 1.795 11.55 3.41 18.494 4.847a860.92 860.92 0 0 1 21.187 4.667 215.466 215.466 0 0 1 21.726 6.103c7.063 2.393 13.347 5.565 18.853 9.514 5.507 3.949 9.936 8.855 13.287 14.72 3.352 5.863 5.028 13.103 5.028 21.72 0 12.206-2.454 22.437-7.362 30.695-4.908 8.257-11.312 14.898-19.212 19.925-7.9 5.026-16.938 8.556-27.113 10.59-10.175 2.035-20.529 3.052-31.063 3.052-10.773 0-21.307-1.077-31.601-3.231-10.295-2.154-19.452-5.744-27.472-10.77-8.02-5.027-14.604-11.668-19.751-19.925-5.147-8.258-7.96-18.609-8.44-31.055h48.48zM1881.371 80h50.993v96.574h1.078c6.464-10.77 14.723-18.61 24.778-23.516 10.055-4.906 19.87-7.36 29.447-7.36 13.646 0 24.838 1.856 33.577 5.565 8.738 3.71 15.621 8.856 20.649 15.438 5.027 6.582 8.558 14.6 10.593 24.053 2.035 9.454 3.053 19.925 3.053 31.414v114.165h-50.994v-104.83c0-15.319-2.394-26.747-7.182-34.286-4.788-7.54-13.287-11.31-25.497-11.31-13.885 0-23.94 4.13-30.165 12.387-6.224 8.257-9.337 21.84-9.337 40.747v97.292h-50.993V80zm210.797 127.807c.718-11.967 3.71-21.9 8.977-29.797 5.267-7.899 11.97-14.241 20.11-19.028 8.14-4.787 17.298-8.197 27.472-10.232a156.228 156.228 0 0 1 30.704-3.051c9.337 0 18.793.658 28.37 1.974 9.576 1.317 18.314 3.89 26.215 7.719 7.9 3.83 14.364 9.155 19.392 15.976 5.027 6.821 7.54 15.856 7.54 27.105v96.574c0 8.377.48 16.395 1.437 24.053.958 7.66 2.634 13.403 5.028 17.233H2215.7a73.139 73.139 0 0 1-2.334-8.796 76.57 76.57 0 0 1-1.257-9.155c-8.14 8.377-17.716 14.241-28.729 17.592a115.34 115.34 0 0 1-33.756 5.026c-8.858 0-17.117-1.077-24.778-3.231-7.661-2.154-14.365-5.505-20.11-10.052-5.746-4.548-10.235-10.292-13.467-17.233-3.232-6.94-4.848-15.198-4.848-24.771 0-10.531 1.855-19.207 5.566-26.029 3.711-6.82 8.5-12.266 14.365-16.335 5.865-4.068 12.568-7.12 20.11-9.154a214.733 214.733 0 0 1 22.803-4.847 389.869 389.869 0 0 1 22.624-2.872c7.422-.718 14.005-1.795 19.75-3.231 5.747-1.436 10.295-3.53 13.647-6.283 3.352-2.752 4.908-6.761 4.668-12.027 0-5.504-.897-9.872-2.693-13.104-1.795-3.23-4.19-5.744-7.182-7.539-2.993-1.795-6.464-2.991-10.414-3.59-3.95-.598-8.2-.897-12.749-.897-10.055 0-17.955 2.154-23.7 6.462-5.747 4.308-9.098 11.488-10.056 21.54h-50.993zm117.787 37.696c-2.154 1.915-4.848 3.411-8.08 4.488-3.231 1.077-6.703 1.975-10.414 2.693-3.71.718-7.6 1.316-11.67 1.795-4.07.478-8.14 1.077-12.21 1.795a92.11 92.11 0 0 0-11.312 2.872c-3.711 1.197-6.943 2.812-9.696 4.846-2.753 2.035-4.968 4.608-6.644 7.72-1.676 3.11-2.514 7.06-2.514 11.846 0 4.548.838 8.377 2.514 11.489 1.676 3.111 3.95 5.564 6.823 7.36 2.873 1.795 6.225 3.051 10.055 3.77 3.83.717 7.781 1.076 11.85 1.076 10.056 0 17.837-1.675 23.343-5.026 5.506-3.35 9.576-7.36 12.21-12.027 2.633-4.667 4.25-9.394 4.848-14.18.598-4.788.897-8.617.897-11.49v-19.027zm193.201 90.83h-56.74l-63.561-185.608h53.507l39.143 126.73h.718l39.143-126.73H2466l-62.844 185.608z" fill="#000"/><circle fill="#40BCA9" cx="2516.5" cy="310.5" r="30.5"/></g></svg>