<?xml version="1.0" encoding="UTF-8"?>
<svg width="385px" height="419px" viewBox="0 0 385 419" version="1.1" xmlns="http://www.w3.org/2000/svg" xmlns:xlink="http://www.w3.org/1999/xlink">
    <!-- Generator: Sketch 53 (72520) - https://sketchapp.com -->
    <title>Path</title>
    <desc>Created with Sketch.</desc>
    <defs>
        <linearGradient x1="92.0585677%" y1="75.7294004%" x2="7.94143233%" y2="24.2389356%" id="linearGradient-1">
            <stop stop-color="#8EC5FC" offset="0%"></stop>
            <stop stop-color="#E0C3FC" offset="100%"></stop>
        </linearGradient>
    </defs>
    <g id="Page-2" stroke="none" stroke-width="1" fill="none" fill-rule="evenodd">
        <g id="Desktop-HD" transform="translate(-195.000000, -1601.000000)" fill="url(#linearGradient-1)">
            <path d="M548.408697,1624.9888 C577.408697,1654.6888 580.008697,1712.1888 579.008697,1758.9888 C578.108697,1805.8888 573.708697,1842.1888 563.508697,1877.4888 C553.308697,1912.7888 537.308697,1947.1888 510.508697,1975.0888 C483.708697,2003.0888 446.108697,2024.5888 412.608697,2018.9888 C379.108697,2013.2888 349.708697,1980.3888 310.908697,1956.3888 C272.108697,1932.2888 223.808697,1917.0888 204.708697,1885.8888 C185.608697,1854.6888 195.808697,1807.5888 225.508697,1782.3888 C255.208697,1757.1888 304.508697,1754.0888 338.308697,1725.8888 C372.108697,1697.6888 390.308697,1644.4888 427.108697,1618.7888 C463.908697,1593.1888 519.408697,1595.1888 548.408697,1624.9888 Z" id="Path"></path>
        </g>
    </g>
</svg>