<?xml version="1.0" encoding="utf-8"?>
<!-- Generator: Adobe Illustrator 22.0.1, SVG Export Plug-In . SVG Version: 6.00 Build 0)  -->
<svg version="1.1" id="Layer_1" xmlns="http://www.w3.org/2000/svg" xmlns:xlink="http://www.w3.org/1999/xlink" x="0px" y="0px"
	 viewBox="0 0 15.4 15.4" style="enable-background:new 0 0 15.4 15.4;" xml:space="preserve">
<style type="text/css">
	.st0{fill:#FFFFFF;}
</style>
<g id="background">
</g>
<g id="objects">
	<g>
		<path class="st0" d="M11.7,0h-8C1.7,0,0,1.7,0,3.7v8c0,2,1.7,3.7,3.7,3.7h8c2,0,3.7-1.7,3.7-3.7v-8C15.4,1.6,13.8,0,11.7,0z
			 M7.7,12.5c-2.6,0-4.8-2.1-4.8-4.8c0-2.6,2.1-4.8,4.8-4.8c2.6,0,4.8,2.1,4.8,4.8C12.5,10.3,10.3,12.5,7.7,12.5z M12.7,3.8
			c-0.6,0-1.1-0.5-1.1-1.1s0.5-1.1,1.1-1.1s1.1,0.5,1.1,1.1S13.3,3.8,12.7,3.8z"/>
		<path class="st0" d="M7.7,4.5C6,4.5,4.5,5.9,4.5,7.7s1.4,3.2,3.2,3.2c1.7,0,3.2-1.4,3.2-3.2S9.4,4.5,7.7,4.5z"/>
	</g>
</g>
</svg>
