<?xml version="1.0" encoding="utf-8"?>
<!-- Generator: Adobe Illustrator 22.0.1, SVG Export Plug-In . SVG Version: 6.00 Build 0)  -->
<svg version="1.1"
	 id="Layer_1" xmlns:cc="http://creativecommons.org/ns#" xmlns:dc="http://purl.org/dc/elements/1.1/" xmlns:inkscape="http://www.inkscape.org/namespaces/inkscape" xmlns:rdf="http://www.w3.org/1999/02/22-rdf-syntax-ns#" xmlns:sodipodi="http://sodipodi.sourceforge.net/DTD/sodipodi-0.dtd" xmlns:svg="http://www.w3.org/2000/svg"
	 xmlns="http://www.w3.org/2000/svg" xmlns:xlink="http://www.w3.org/1999/xlink" x="0px" y="0px" viewBox="0 0 70 70"
	 style="enable-background:new 0 0 70 70;" xml:space="preserve">
<g transform="translate(0,-952.36218)">
	<path d="M17,952.4c-9.4,0-17,7.6-17,17v36c0,9.4,7.6,17,17,17h36c9.4,0,17-7.6,17-17v-36c0-9.4-7.6-17-17-17H17z M17,958.4h36
		c6.1,0,11,4.9,11,11v36c0,6.1-4.9,11-11,11H17c-6.1,0-11-4.9-11-11v-36C6,963.2,10.9,958.4,17,958.4z M55,964.4c-2.2,0-4,1.8-4,4
		c0,2.2,1.8,4,4,4c2.2,0,4-1.8,4-4C59,966.2,57.2,964.4,55,964.4z M35,970.4c-9.4,0-17,7.6-17,17s7.6,17,17,17s17-7.6,17-17
		C52,978,44.4,970.4,35,970.4z M35,976.4c6.1,0,11,4.9,11,11s-4.9,11-11,11s-11-4.9-11-11C24,981.3,28.9,976.4,35,976.4z"/>
</g>
</svg>
