<?xml version="1.0" encoding="utf-8"?>
<!-- Generator: Adobe Illustrator 22.0.1, SVG Export Plug-In . SVG Version: 6.00 Build 0)  -->
<svg version="1.1" id="Layer_1" xmlns="http://www.w3.org/2000/svg" xmlns:xlink="http://www.w3.org/1999/xlink" x="0px" y="0px"
	 viewBox="0 0 16.2 15.4" style="enable-background:new 0 0 16.2 15.4;" xml:space="preserve">
<g>
	<g>
		<path d="M16.2,9.4v6h-3.5V9.8c0-1.4-0.5-2.4-1.8-2.4c-1,0-1.5,0.6-1.8,1.3C9,8.9,9,9.2,9,9.5l0,5.9H5.6c0,0,0-9.5,0-10.5h3.5v1.5
			l0,0l0,0l0,0c0.5-0.7,1.3-1.7,3.1-1.7C14.5,4.8,16.2,6.2,16.2,9.4L16.2,9.4z M2,0C0.8,0,0,0.8,0,1.8s0.8,1.8,1.9,1.8l0,0
			c1.2,0,2-0.8,2-1.8S3.2,0,2,0L2,0z M0.2,15.4h3.5V5H0.2V15.4z"/>
	</g>
</g>
</svg>
