<?xml version="1.0" encoding="utf-8"?>
<!-- Generator: Adobe Illustrator 22.0.1, SVG Export Plug-In . SVG Version: 6.00 Build 0)  -->
<svg version="1.1" id="Layer_1" xmlns="http://www.w3.org/2000/svg" xmlns:xlink="http://www.w3.org/1999/xlink" x="0px" y="0px"
	 viewBox="0 0 40.8 40.8" style="enable-background:new 0 0 40.8 40.8;" xml:space="preserve">
<path d="M0.7,13.5h8.5v27.2H0.7V13.5z M4.9,0c2.7,0,4.9,2.2,4.9,4.9c0,2.7-2.2,4.9-4.9,4.9C2.2,9.8,0,7.6,0,4.9C0,2.2,2.2,0,4.9,0"
	/>
<path d="M14.5,13.5h8.1v3.7h0.1c1.1-2.1,3.9-4.4,8-4.4c8.6,0,10.1,5.6,10.1,13v14.9h-8.5V27.5c0-3.2-0.1-7.2-4.4-7.2
	c-4.4,0-5.1,3.4-5.1,7v13.5h-8.5V13.5z"/>
</svg>
