<?xml version="1.0" encoding="utf-8"?>
<!-- Generator: Adobe Illustrator 22.0.1, SVG Export Plug-In . SVG Version: 6.00 Build 0)  -->
<svg version="1.1" id="Layer_1" xmlns="http://www.w3.org/2000/svg" xmlns:xlink="http://www.w3.org/1999/xlink" x="0px" y="0px"
	 viewBox="0 0 111.2 32.7" style="enable-background:new 0 0 111.2 32.7;" xml:space="preserve">
<style type="text/css">
	.st0{fill:#211E1F;}
	.st1{fill:#40BCA9;}
	.st2{fill:#221F1F;}
</style>
<g>
	<g>
		<path class="st0" d="M4.6,5.8h3.6v12.7l6.5-6.5H19l-6.2,5.9l6.8,10.2h-4.4l-4.9-7.9l-2.1,2.1v5.8H4.6V5.8z"/>
	</g>
	<circle class="st1" cx="31.8" cy="20.7" r="2.8"/>
	<g>
		<polygon class="st0" points="0,0 0,1.4 0,31 0,32.5 1.4,32.5 4.5,32.5 4.5,31 1.4,31 1.4,1.4 4.5,1.4 4.5,0 1.4,0 		"/>
	</g>
	<g>
		<polygon class="st0" points="31,25.9 31,31 8.2,31 8.2,32.5 31,32.5 32.5,32.5 32.5,31 32.5,25.9 		"/>
	</g>
	<g>
		<polygon class="st0" points="32.5,15.5 32.5,1.4 32.5,0 31,0 8.2,0 8.2,1.4 31,1.4 31,15.5 		"/>
	</g>
</g>
<g>
	<path class="st2" d="M48,3.5c-0.2-0.3-0.4-0.5-0.6-0.7s-0.5-0.3-0.8-0.4c-0.3-0.1-0.6-0.2-0.9-0.2c-0.6,0-1.1,0.1-1.5,0.3
		s-0.8,0.5-1,0.9c-0.3,0.4-0.4,0.8-0.6,1.3c-0.1,0.5-0.2,1-0.2,1.5s0.1,1,0.2,1.5s0.3,0.9,0.6,1.3c0.3,0.4,0.6,0.7,1,0.9
		s0.9,0.3,1.5,0.3c0.8,0,1.4-0.2,1.9-0.7s0.7-1.1,0.8-2H51c-0.1,0.8-0.2,1.4-0.5,2s-0.7,1.1-1.1,1.5c-0.5,0.4-1,0.8-1.6,1
		s-1.3,0.3-2,0.3c-0.9,0-1.7-0.2-2.5-0.5c-0.7-0.3-1.4-0.8-1.9-1.3c-0.5-0.6-0.9-1.2-1.2-2s-0.4-1.6-0.4-2.4c0-0.9,0.1-1.7,0.4-2.5
		c0.3-0.8,0.7-1.4,1.2-2s1.1-1,1.9-1.3C43.9,0.2,44.7,0,45.7,0c0.7,0,1.3,0.1,1.9,0.3c0.6,0.2,1.1,0.5,1.6,0.8
		c0.5,0.4,0.8,0.8,1.2,1.4c0.2,0.5,0.4,1.1,0.4,1.8h-2.6C48.2,4,48.1,3.7,48,3.5z"/>
	<path class="st2" d="M56.2,0.3v4.6h4.9V0.3h2.6v12h-2.6V7.1h-4.9v5.2h-2.6v-12C53.6,0.3,56.2,0.3,56.2,0.3z"/>
	<path class="st2" d="M75.9,0.3v2.2h-6.3v2.6h5.8v2.1h-5.8v2.9h6.5v2.2H67v-12C67,0.3,75.9,0.3,75.9,0.3z"/>
	<path class="st2" d="M77.7,2.5V0.3h9.8v2.2h-3.6v9.8h-2.6V2.5H77.7z"/>
	<path class="st2" d="M94.2,0.3l4.5,12H96l-0.9-2.7h-4.5l-1,2.7h-2.7l4.5-12C91.4,0.3,94.2,0.3,94.2,0.3z M94.4,7.7l-1.5-4.4l0,0
		l-1.6,4.4H94.4z"/>
	<path class="st2" d="M103.2,0.3l5,8.1l0,0V0.3h2.5v12h-2.6l-5-8l0,0v8h-2.5v-12C100.6,0.3,103.2,0.3,103.2,0.3z"/>
	<path class="st2" d="M42.9,20.5v5l4.7-5h3.3l-4.7,4.7l5.1,7.3H48l-3.6-5.4l-1.5,1.5v3.9h-2.6v-12H42.9z"/>
	<path class="st2" d="M62.3,20.5v2.2H56v2.6h5.8v2.1H56v2.9h6.5v2.2h-9.1v-12H62.3z"/>
	<path class="st2" d="M67,29.5c0.1,0.3,0.3,0.5,0.6,0.7c0.2,0.2,0.5,0.3,0.8,0.4s0.7,0.1,1,0.1c0.2,0,0.5,0,0.8-0.1
		c0.3,0,0.5-0.1,0.8-0.2c0.2-0.1,0.4-0.3,0.6-0.5s0.2-0.4,0.2-0.7c0-0.3-0.1-0.6-0.3-0.8c-0.2-0.2-0.5-0.4-0.8-0.5s-0.7-0.3-1.1-0.4
		s-0.9-0.2-1.3-0.3c-0.4-0.1-0.9-0.2-1.3-0.4c-0.4-0.2-0.8-0.4-1.1-0.6c-0.3-0.3-0.6-0.6-0.8-1c-0.2-0.4-0.3-0.9-0.3-1.4
		c0-0.6,0.1-1.2,0.4-1.6c0.3-0.5,0.6-0.8,1-1.1c0.4-0.3,0.9-0.5,1.4-0.7c0.5-0.1,1.1-0.2,1.6-0.2c0.6,0,1.2,0.1,1.8,0.2
		c0.6,0.1,1.1,0.4,1.5,0.7c0.4,0.3,0.8,0.7,1.1,1.2c0.3,0.5,0.4,1.1,0.4,1.8h-2.6c0-0.4-0.1-0.7-0.2-0.9c-0.1-0.2-0.3-0.4-0.5-0.6
		c-0.2-0.1-0.5-0.2-0.7-0.3c-0.3-0.1-0.6-0.1-0.9-0.1c-0.2,0-0.4,0-0.6,0.1c-0.2,0-0.4,0.1-0.6,0.2s-0.3,0.3-0.4,0.4
		c-0.1,0.2-0.2,0.4-0.2,0.6s0,0.4,0.1,0.6c0.1,0.1,0.3,0.3,0.5,0.4c0.3,0.1,0.6,0.2,1.1,0.4c0.5,0.1,1.1,0.3,1.8,0.5
		c0.2,0,0.5,0.1,0.9,0.2s0.8,0.3,1.2,0.6c0.4,0.3,0.7,0.6,1,1s0.4,1,0.4,1.7c0,0.5-0.1,1.1-0.3,1.5c-0.2,0.5-0.5,0.9-1,1.2
		c-0.4,0.3-0.9,0.6-1.6,0.8c-0.6,0.2-1.3,0.3-2.2,0.3c-0.7,0-1.3-0.1-1.9-0.2c-0.6-0.2-1.2-0.4-1.6-0.8c-0.5-0.3-0.9-0.8-1.1-1.3
		c-0.3-0.5-0.4-1.2-0.4-1.9h2.6C66.8,28.9,66.9,29.3,67,29.5z"/>
	<path class="st2" d="M79.4,20.5v4.6h4.9v-4.6h2.6v12h-2.6v-5.2h-4.9v5.2h-2.6v-12H79.4z"/>
	<path class="st2" d="M96.1,20.5l4.5,12h-2.7L97,29.8h-4.5l-0.9,2.7h-2.7l4.5-12H96.1z M96.2,27.9l-1.5-4.4l0,0l-1.6,4.4H96.2z"/>
	<path class="st2" d="M104.3,32.5l-3.9-12h2.7l2.7,8.4l0,0l2.7-8.4h2.7l-4,12H104.3z"/>
</g>
</svg>
