<?xml version="1.0" encoding="utf-8"?>
<!-- Generator: Adobe Illustrator 22.0.1, SVG Export Plug-In . SVG Version: 6.00 Build 0)  -->
<svg version="1.1" id="Layer_1" xmlns="http://www.w3.org/2000/svg" xmlns:xlink="http://www.w3.org/1999/xlink" x="0px" y="0px"
	 viewBox="0 0 107.7 32.8" style="enable-background:new 0 0 107.7 32.8;" xml:space="preserve">
<style type="text/css">
	.st0{fill:#211E1F;}
	.st1{fill:#40BCA9;}
	.st2{fill:#221F1F;}
</style>
<g>
	<g>
		<path class="st0" d="M4.6,5.8h3.6v12.7l6.5-6.5H19l-6.2,5.9l6.8,10.2h-4.4l-4.9-7.9l-2.1,2.1v5.8H4.6V5.8z"/>
	</g>
	<circle class="st1" cx="31.8" cy="20.7" r="2.8"/>
	<g>
		<polygon class="st0" points="0,0 0,1.4 0,31 0,32.5 1.4,32.5 4.5,32.5 4.5,31 1.4,31 1.4,1.4 4.5,1.4 4.5,0 1.4,0 		"/>
	</g>
	<g>
		<polygon class="st0" points="31,25.9 31,31 8.2,31 8.2,32.5 31,32.5 32.5,32.5 32.5,31 32.5,25.9 		"/>
	</g>
	<g>
		<polygon class="st0" points="32.5,15.5 32.5,1.4 32.5,0 31,0 8.2,0 8.2,1.4 31,1.4 31,15.5 		"/>
	</g>
</g>
<g>
	<path class="st2" d="M44.4,3.5C44.2,3.2,44,3,43.8,2.8c-0.2-0.2-0.5-0.3-0.8-0.4c-0.3-0.1-0.6-0.2-0.9-0.2c-0.6,0-1.1,0.1-1.5,0.3
		c-0.4,0.2-0.8,0.5-1,0.9c-0.3,0.4-0.4,0.8-0.6,1.3c-0.1,0.5-0.2,1-0.2,1.5c0,0.5,0.1,1,0.2,1.5s0.3,0.9,0.6,1.3
		c0.3,0.4,0.6,0.7,1,0.9c0.4,0.2,0.9,0.3,1.5,0.3c0.8,0,1.4-0.2,1.9-0.7c0.5-0.5,0.7-1.1,0.8-2h2.6c-0.1,0.8-0.2,1.4-0.5,2
		c-0.3,0.6-0.7,1.1-1.1,1.5c-0.5,0.4-1,0.8-1.6,1c-0.6,0.2-1.3,0.3-2,0.3c-0.9,0-1.7-0.2-2.5-0.5c-0.7-0.3-1.4-0.8-1.9-1.3
		c-0.5-0.6-0.9-1.2-1.2-2c-0.3-0.8-0.4-1.6-0.4-2.4c0-0.9,0.1-1.7,0.4-2.5c0.3-0.8,0.7-1.4,1.2-2c0.5-0.6,1.1-1,1.9-1.3
		C40.3,0.2,41.1,0,42.1,0c0.7,0,1.3,0.1,1.9,0.3c0.6,0.2,1.1,0.5,1.6,0.8c0.5,0.4,0.8,0.8,1.2,1.4C47,3,47.2,3.6,47.2,4.3h-2.6
		C44.6,4,44.5,3.7,44.4,3.5z"/>
	<path class="st2" d="M52.6,0.3v4.6h4.9V0.3h2.6v12h-2.6V7.1h-4.9v5.2H50v-12H52.6z"/>
	<path class="st2" d="M72.3,0.3v2.2h-6.3v2.6h5.8v2.1h-5.8v2.9h6.5v2.2h-9.1v-12H72.3z"/>
	<path class="st2" d="M74.1,2.5V0.3h9.8v2.2h-3.6v9.8h-2.6V2.5H74.1z"/>
	<path class="st2" d="M90.6,0.3l4.5,12h-2.7l-0.9-2.7H87L86,12.3h-2.7l4.5-12H90.6z M90.8,7.7l-1.5-4.4h0l-1.6,4.4H90.8z"/>
	<path class="st2" d="M99.6,0.3l5,8.1h0V0.3h2.5v12h-2.6l-5-8h0v8H97v-12H99.6z"/>
	<path class="st2" d="M39.3,20.5v5l4.7-5h3.3l-4.7,4.7l5.1,7.3h-3.3l-3.6-5.4l-1.5,1.5v3.9h-2.6v-12H39.3z"/>
	<path class="st2" d="M58.7,20.5v2.2h-6.3v2.6h5.8v2.1h-5.8v2.9h6.5v2.2h-9.1v-12H58.7z"/>
	<path class="st2" d="M63.4,29.5c0.1,0.3,0.3,0.5,0.6,0.7c0.2,0.2,0.5,0.3,0.8,0.4c0.3,0.1,0.7,0.1,1,0.1c0.2,0,0.5,0,0.8-0.1
		c0.3,0,0.5-0.1,0.8-0.2c0.2-0.1,0.4-0.3,0.6-0.5c0.2-0.2,0.2-0.4,0.2-0.7c0-0.3-0.1-0.6-0.3-0.8c-0.2-0.2-0.5-0.4-0.8-0.5
		c-0.3-0.1-0.7-0.3-1.1-0.4c-0.4-0.1-0.9-0.2-1.3-0.3c-0.4-0.1-0.9-0.2-1.3-0.4c-0.4-0.2-0.8-0.4-1.1-0.6c-0.3-0.3-0.6-0.6-0.8-1
		c-0.2-0.4-0.3-0.9-0.3-1.4c0-0.6,0.1-1.2,0.4-1.6c0.3-0.5,0.6-0.8,1-1.1c0.4-0.3,0.9-0.5,1.4-0.7c0.5-0.1,1.1-0.2,1.6-0.2
		c0.6,0,1.2,0.1,1.8,0.2c0.6,0.1,1.1,0.4,1.5,0.7c0.4,0.3,0.8,0.7,1.1,1.2c0.3,0.5,0.4,1.1,0.4,1.8h-2.6c0-0.4-0.1-0.7-0.2-0.9
		c-0.1-0.2-0.3-0.4-0.5-0.6c-0.2-0.1-0.5-0.2-0.7-0.3c-0.3-0.1-0.6-0.1-0.9-0.1c-0.2,0-0.4,0-0.6,0.1c-0.2,0-0.4,0.1-0.6,0.2
		c-0.2,0.1-0.3,0.3-0.4,0.4c-0.1,0.2-0.2,0.4-0.2,0.6c0,0.2,0,0.4,0.1,0.6c0.1,0.1,0.3,0.3,0.5,0.4c0.3,0.1,0.6,0.2,1.1,0.4
		c0.5,0.1,1.1,0.3,1.8,0.5c0.2,0,0.5,0.1,0.9,0.2c0.4,0.1,0.8,0.3,1.2,0.6c0.4,0.3,0.7,0.6,1,1c0.3,0.4,0.4,1,0.4,1.7
		c0,0.5-0.1,1.1-0.3,1.5c-0.2,0.5-0.5,0.9-1,1.2c-0.4,0.3-0.9,0.6-1.6,0.8c-0.6,0.2-1.3,0.3-2.2,0.3c-0.7,0-1.3-0.1-1.9-0.2
		c-0.6-0.2-1.2-0.4-1.6-0.8c-0.5-0.3-0.9-0.8-1.1-1.3c-0.3-0.5-0.4-1.2-0.4-1.9h2.6C63.2,28.9,63.3,29.3,63.4,29.5z"/>
	<path class="st2" d="M75.8,20.5v4.6h4.9v-4.6h2.6v12h-2.6v-5.2h-4.9v5.2h-2.6v-12H75.8z"/>
	<path class="st2" d="M92.5,20.5l4.5,12h-2.7l-0.9-2.7h-4.5l-0.9,2.7h-2.7l4.5-12H92.5z M92.6,27.9l-1.5-4.4h0l-1.6,4.4H92.6z"/>
	<path class="st2" d="M100.7,32.5l-3.9-12h2.7l2.7,8.4h0l2.7-8.4h2.7l-4,12H100.7z"/>
</g>
</svg>
