<?xml version="1.0" encoding="UTF-8"?>
<svg width="2547px" height="261px" viewBox="0 0 2547 261" version="1.1" xmlns="http://www.w3.org/2000/svg" xmlns:xlink="http://www.w3.org/1999/xlink">
    <!-- Generator: Sketch 53 (72520) - https://sketchapp.com -->
    <title>Group</title>
    <desc>Created with Sketch.</desc>
    <g id="Page-1" stroke="none" stroke-width="1" fill="none" fill-rule="evenodd">
        <g id="Artboard" transform="translate(-25.000000, -145.000000)">
            <g id="Group" transform="translate(25.000000, 145.000000)">
                <path d="M132.152031,136.064649 C128.800333,114.763305 116.231651,104.112792 94.4456094,104.112792 C86.3057697,104.112792 79.4827711,105.967657 73.9764089,109.677442 C68.4700467,113.387226 63.9812319,118.173973 60.5098296,124.037827 C57.0384274,129.90168 54.5845419,136.363789 53.1480996,143.424347 C51.7116573,150.484905 50.9934469,157.485522 50.9934469,164.42641 C50.9934469,171.127956 51.7116573,177.949071 53.1480996,184.889959 C54.5845419,191.830846 56.9187256,198.113452 60.1507208,203.737964 C63.382716,209.362477 67.7518292,213.969721 73.2581913,217.559835 C78.7645535,221.149949 85.4678504,222.944979 93.3682831,222.944979 C105.578043,222.944979 114.974629,219.534422 121.558322,212.713205 C128.142016,205.891988 132.271726,196.737334 133.947575,185.248968 L183.145478,185.248968 C179.79378,209.901086 170.217641,228.689069 154.416776,241.61348 C138.615911,254.537891 118.386318,261 93.7273919,261 C79.8417829,261 67.0935487,258.666461 55.4823067,253.999312 C43.8710647,249.332164 33.995672,242.810221 25.8558322,234.433287 C17.7159925,226.056354 11.3718008,216.06402 6.82306684,204.455983 C2.27433287,192.847947 0,180.103233 0,166.221458 C0,151.861001 2.09478028,138.517943 6.28440367,126.191884 C10.4740271,113.865826 16.6386662,103.215313 24.7785059,94.2400275 C32.9183456,85.2647419 42.8535892,78.2641242 54.5845347,73.2379642 C66.3154802,68.2118043 79.722074,65.698762 94.8047182,65.698762 C105.817443,65.698762 116.411046,67.1347862 126.585845,70.0068776 C136.760645,72.878969 145.857977,77.2468758 153.878113,83.110729 C161.898249,88.9745823 168.421993,96.2743717 173.449541,105.010316 C178.477089,113.746261 181.349931,124.097602 182.068152,136.064649 L132.152031,136.064649 Z M211.874181,0 L262.867628,0 L262.867628,96.5735901 L263.944954,96.5735901 C270.408945,85.8032474 278.668364,77.9649489 288.72346,73.0584594 C298.778556,68.15197 308.594098,65.698762 318.17038,65.698762 C331.816582,65.698762 343.008694,67.5536266 351.747051,71.2634113 C360.485408,74.973196 367.368258,80.1189492 372.395806,86.7008253 C377.423354,93.2827014 380.954555,101.300503 382.989515,110.75447 C385.024475,120.208438 386.04194,130.679447 386.04194,142.167813 L386.04194,256.332875 L335.048493,256.332875 L335.048493,151.502063 C335.048493,136.184243 332.654458,124.755884 327.866317,117.216644 C323.078176,109.677404 314.579353,105.90784 302.369594,105.90784 C288.483985,105.90784 278.429039,110.03641 272.204456,118.293673 C265.979873,126.550935 262.867628,140.13333 262.867628,159.041265 L262.867628,256.332875 L211.874181,256.332875 L211.874181,0 Z M549.795544,143.603851 C547.401473,130.67944 543.152062,120.866608 537.047182,114.165062 C530.942302,107.463515 521.665418,104.112792 509.216252,104.112792 C501.076412,104.112792 494.313264,105.488982 488.926606,108.241403 C483.539947,110.993824 479.230685,114.404381 475.998689,118.473177 C472.766694,122.541974 470.492361,126.850046 469.175623,131.397524 C467.858884,135.945002 467.080823,140.013737 466.841415,143.603851 L549.795544,143.603851 Z M466.841415,175.914718 C467.559637,192.429244 471.749197,204.396111 479.410223,211.815681 C487.071248,219.23525 498.083808,222.944979 512.448231,222.944979 C522.742734,222.944979 531.600662,220.372103 539.02228,215.226272 C546.443899,210.080442 550.992565,204.635517 552.668414,198.891334 L597.557012,198.891334 C590.3748,221.150043 579.362241,237.065977 564.519004,246.639615 C549.675767,256.213253 531.720507,261 510.652687,261 C496.048857,261 482.881666,258.666461 471.150721,253.999312 C459.419775,249.332164 449.484532,242.690552 441.344692,234.074278 C433.204852,225.458004 426.920511,215.166497 422.491481,203.19945 C418.062451,191.232402 415.847969,178.068848 415.847969,163.708391 C415.847969,149.826616 418.122301,136.902398 422.671035,124.935351 C427.219769,112.968303 433.683663,102.616963 442.06291,93.8810179 C450.442156,85.1450732 460.437251,78.2641242 472.048493,73.2379642 C483.659735,68.2118043 496.527671,65.698762 510.652687,65.698762 C526.453552,65.698762 540.219251,68.7503134 551.950197,74.8535076 C563.681142,80.9567018 573.317131,89.1540063 580.858453,99.4456671 C588.399776,109.737328 593.846204,121.464859 597.197903,134.628611 C600.549602,147.792363 601.746619,161.554261 600.788991,175.914718 L466.841415,175.914718 Z M695.593709,70.7248968 L732.941022,70.7248968 L732.941022,104.830812 L695.593709,104.830812 L695.593709,196.737276 C695.593709,205.353551 697.03013,211.097647 699.903014,213.969739 C702.775899,216.84183 708.521582,218.277854 717.140236,218.277854 C720.013121,218.277854 722.76626,218.158186 725.399738,217.918845 C728.033215,217.679504 730.546952,217.320498 732.941022,216.841816 L732.941022,256.332875 C728.631695,257.050898 723.843626,257.529572 718.576671,257.768913 C713.309716,258.008254 708.162542,258.127923 703.134993,258.127923 C695.234561,258.127923 687.753203,257.589414 680.690695,256.51238 C673.628187,255.435345 667.403697,253.341143 662.017038,250.229711 C656.630379,247.118279 652.380968,242.690538 649.268676,236.946355 C646.156385,231.202172 644.600262,223.663045 644.600262,214.328748 L644.600262,104.830812 L613.716907,104.830812 L613.716907,70.7248968 L644.600262,70.7248968 L644.600262,15.0784044 L695.593709,15.0784044 L695.593709,70.7248968 Z M755.205767,127.807428 C755.923988,115.84038 758.916531,105.90788 764.183486,98.0096286 C769.450441,90.1113773 776.153738,83.7689373 784.293578,78.9821183 C792.433418,74.1952993 801.5906,70.7847419 811.7654,68.7503439 C821.940199,66.7159458 832.174697,65.698762 842.469201,65.698762 C851.806076,65.698762 861.262512,66.3569398 870.838794,67.673315 C880.415076,68.9896902 889.153303,71.5625668 897.053735,75.392022 C904.954168,79.2214772 911.418061,84.5467334 916.445609,91.3679505 C921.473158,98.1891675 923.986894,107.224153 923.986894,118.473177 L923.986894,215.046768 C923.986894,223.423701 924.465701,231.441502 925.423329,239.100413 C926.380957,246.759323 928.056781,252.50342 930.450852,256.332875 L878.739187,256.332875 C877.781559,253.460783 877.003498,250.528901 876.40498,247.537139 C875.806463,244.545377 875.387507,241.493826 875.1481,238.382393 C867.00826,246.759327 857.432121,252.623092 846.419397,255.973865 C835.406673,259.324638 824.15471,261 812.663172,261 C803.805111,261 795.545691,259.922982 787.884666,257.768913 C780.22364,255.614845 773.520343,252.264122 767.774574,247.716644 C762.028805,243.169166 757.53999,237.425069 754.307995,230.484182 C751.076,223.543294 749.460026,215.286155 749.460026,205.712517 C749.460026,195.181515 751.315403,186.505536 755.026212,179.684319 C758.737022,172.863102 763.525091,167.418177 769.390564,163.349381 C775.256036,159.280585 781.959333,156.229034 789.500655,154.194635 C797.041977,152.160237 804.643037,150.54471 812.304063,149.348006 C819.965089,148.151301 827.506298,147.193951 834.927916,146.475928 C842.349535,145.757906 848.93313,144.680888 854.678899,143.244842 C860.424668,141.808796 864.973334,139.714594 868.325033,136.962173 C871.676731,134.209752 873.232854,130.200852 872.993447,124.935351 C872.993447,119.430509 872.095684,115.062602 870.300131,111.831499 C868.504578,108.600396 866.110544,106.087354 863.117955,104.292297 C860.125367,102.49724 856.654017,101.300553 852.703801,100.702201 C848.753584,100.103848 844.504173,99.8046768 839.955439,99.8046768 C829.900343,99.8046768 822.000029,101.958713 816.25426,106.26685 C810.50849,110.574987 807.156842,117.755108 806.199214,127.807428 L755.205767,127.807428 Z M872.993447,165.503439 C870.838783,167.418166 868.145495,168.914025 864.913499,169.991059 C861.681504,171.068093 858.210154,171.965609 854.499345,172.683631 C850.788535,173.401654 846.898229,173.999998 842.828309,174.47868 C838.758389,174.957361 834.688531,175.555705 830.618611,176.273728 C826.788098,176.99175 823.017493,177.9491 819.306684,179.145805 C815.595875,180.342509 812.363928,181.958037 809.610747,183.992435 C806.857566,186.026833 804.643084,188.599709 802.967235,191.711142 C801.291385,194.822574 800.453473,198.77164 800.453473,203.558459 C800.453473,208.105937 801.291385,211.935335 802.967235,215.046768 C804.643084,218.1582 806.917417,220.611408 809.790301,222.406465 C812.663186,224.201522 816.014834,225.458043 819.845347,226.176066 C823.67586,226.894089 827.626017,227.253095 831.695937,227.253095 C841.751033,227.253095 849.531646,225.577733 855.038008,222.22696 C860.54437,218.876187 864.614229,214.867286 867.247706,210.200138 C869.881184,205.532989 871.497157,200.806076 872.095675,196.019257 C872.694193,191.232438 872.993447,187.40304 872.993447,184.530949 L872.993447,165.503439 Z M963.48886,70.7248968 L1011.96855,70.7248968 L1011.96855,96.5735901 L1013.04587,96.5735901 C1019.50986,85.8032474 1027.88898,77.9649489 1038.18349,73.0584594 C1048.47799,68.15197 1059.01174,65.698762 1069.78506,65.698762 C1083.43126,65.698762 1094.62337,67.5536266 1103.36173,71.2634113 C1112.10009,74.973196 1118.98294,80.1189492 1124.01048,86.7008253 C1129.03803,93.2827014 1132.56923,101.300503 1134.60419,110.75447 C1136.63915,120.208438 1137.65662,130.679447 1137.65662,142.167813 L1137.65662,256.332875 L1086.66317,256.332875 L1086.66317,151.502063 C1086.66317,136.184243 1084.26914,124.755884 1079.481,117.216644 C1074.69286,109.677404 1066.19403,105.90784 1053.98427,105.90784 C1040.09866,105.90784 1030.04372,110.03641 1023.81913,118.293673 C1017.59455,126.550935 1014.48231,140.13333 1014.48231,159.041265 L1014.48231,256.332875 L963.48886,256.332875 L963.48886,70.7248968 Z M1280.94102,0 L1331.93447,0 L1331.93447,137.500688 L1396.21494,70.7248968 L1456.54522,70.7248968 L1386.519,138.936726 L1464.44561,256.332875 L1402.6789,256.332875 L1351.68545,173.401651 L1331.93447,192.429161 L1331.93447,256.332875 L1280.94102,256.332875 L1280.94102,0 Z M1607.3709,143.603851 C1604.97683,130.67944 1600.72742,120.866608 1594.62254,114.165062 C1588.51766,107.463515 1579.24078,104.112792 1566.79161,104.112792 C1558.65177,104.112792 1551.88862,105.488982 1546.50197,108.241403 C1541.11531,110.993824 1536.80604,114.404381 1533.57405,118.473177 C1530.34205,122.541974 1528.06772,126.850046 1526.75098,131.397524 C1525.43424,135.945002 1524.65618,140.013737 1524.41678,143.603851 L1607.3709,143.603851 Z M1524.41678,175.914718 C1525.135,192.429244 1529.32456,204.396111 1536.98558,211.815681 C1544.64661,219.23525 1555.65917,222.944979 1570.02359,222.944979 C1580.31809,222.944979 1589.17602,220.372103 1596.59764,215.226272 C1604.01926,210.080442 1608.56793,204.635517 1610.24377,198.891334 L1655.13237,198.891334 C1647.95016,221.150043 1636.9376,237.065977 1622.09436,246.639615 C1607.25113,256.213253 1589.29587,261 1568.22805,261 C1553.62422,261 1540.45703,258.666461 1528.72608,253.999312 C1516.99514,249.332164 1507.05989,242.690552 1498.92005,234.074278 C1490.78021,225.458004 1484.49587,215.166497 1480.06684,203.19945 C1475.63781,191.232402 1473.42333,178.068848 1473.42333,163.708391 C1473.42333,149.826616 1475.69766,136.902398 1480.2464,124.935351 C1484.79513,112.968303 1491.25902,102.616963 1499.63827,93.8810179 C1508.01752,85.1450732 1518.01261,78.2641242 1529.62385,73.2379642 C1541.2351,68.2118043 1554.10303,65.698762 1568.22805,65.698762 C1584.02891,65.698762 1597.79461,68.7503134 1609.52556,74.8535076 C1621.2565,80.9567018 1630.89249,89.1540063 1638.43381,99.4456671 C1645.97514,109.737328 1651.42156,121.464859 1654.77326,134.628611 C1658.12496,147.792363 1659.32198,161.554261 1658.36435,175.914718 L1524.41678,175.914718 Z M1728.03145,196.019257 C1728.03145,201.524099 1729.16862,206.251012 1731.44299,210.200138 C1733.71736,214.149263 1736.65005,217.380318 1740.24115,219.893398 C1743.83226,222.406477 1747.96197,224.261342 1752.63041,225.458047 C1757.29884,226.654752 1762.14676,227.253095 1767.17431,227.253095 C1770.76542,227.253095 1774.53602,226.834255 1778.48624,225.996561 C1782.43645,225.158868 1786.02751,223.842512 1789.2595,222.047455 C1792.4915,220.252398 1795.18479,217.859025 1797.33945,214.867263 C1799.49411,211.875501 1800.57143,208.105937 1800.57143,203.558459 C1800.57143,195.899549 1795.48411,190.155452 1785.30931,186.325997 C1775.13451,182.496542 1760.94985,178.667144 1742.75491,174.837689 C1735.3333,173.162302 1728.09134,171.187769 1721.02883,168.91403 C1713.96633,166.640291 1707.68198,163.648574 1702.17562,159.93879 C1696.66926,156.229005 1692.2403,151.561926 1688.8886,145.937414 C1685.5369,140.312902 1683.86107,133.431953 1683.86107,125.29436 C1683.86107,113.327313 1686.19526,103.514481 1690.8637,95.8555708 C1695.53213,88.1966605 1701.69677,82.1533922 1709.3578,77.7255846 C1717.01882,73.297777 1725.63735,70.1863914 1735.21363,68.3913343 C1744.78991,66.5962771 1754.60545,65.698762 1764.66055,65.698762 C1774.71565,65.698762 1784.47134,66.6561115 1793.92792,68.5708391 C1803.38449,70.4855667 1811.82347,73.716621 1819.24509,78.264099 C1826.6667,82.8115771 1832.83134,88.8548454 1837.73919,96.3940853 C1842.64703,103.933325 1845.57972,113.446985 1846.53735,124.935351 L1798.05767,124.935351 C1797.33945,115.122372 1793.62869,108.48076 1786.92529,105.010316 C1780.2219,101.539873 1772.32158,99.8046768 1763.22412,99.8046768 C1760.35123,99.8046768 1757.23899,99.9841798 1753.88729,100.343191 C1750.53559,100.702203 1747.48319,101.480049 1744.73001,102.676754 C1741.97683,103.873459 1739.64265,105.608654 1737.72739,107.882393 C1735.81214,110.156132 1734.85452,113.207684 1734.85452,117.037139 C1734.85452,121.584617 1736.53035,125.294346 1739.88204,128.166437 C1743.23374,131.038529 1747.60286,133.372068 1752.98952,135.167125 C1758.37617,136.962182 1764.54081,138.577709 1771.48362,140.013755 C1778.42642,141.449801 1785.48882,143.005494 1792.67104,144.68088 C1800.09265,146.356267 1807.33461,148.390635 1814.39712,150.784044 C1821.45962,153.177454 1827.74397,156.348674 1833.25033,160.297799 C1838.75669,164.246925 1843.18565,169.153341 1846.53735,175.017194 C1849.88905,180.881047 1851.56488,188.121002 1851.56488,196.737276 C1851.56488,208.943665 1849.11099,219.175337 1844.20315,227.4326 C1839.2953,235.689862 1832.89126,242.331474 1824.99083,247.357634 C1817.09039,252.383794 1808.05291,255.91402 1797.87811,257.948418 C1787.70331,259.982816 1777.34911,261 1766.8152,261 C1756.04189,261 1745.50813,259.922982 1735.21363,257.768913 C1724.91913,255.614845 1715.76194,252.024784 1707.74181,246.998624 C1699.72167,241.972465 1693.13808,235.330853 1687.99083,227.07359 C1682.84357,218.816327 1680.03058,208.464987 1679.55177,196.019257 L1728.03145,196.019257 Z M1881.3709,0 L1932.36435,0 L1932.36435,96.5735901 L1933.44168,96.5735901 C1939.90567,85.8032474 1948.16509,77.9649489 1958.22018,73.0584594 C1968.27528,68.15197 1978.09082,65.698762 1987.6671,65.698762 C2001.31331,65.698762 2012.50542,67.5536266 2021.24377,71.2634113 C2029.98213,74.973196 2036.86498,80.1189492 2041.89253,86.7008253 C2046.92008,93.2827014 2050.45128,101.300503 2052.48624,110.75447 C2054.5212,120.208438 2055.53866,130.679447 2055.53866,142.167813 L2055.53866,256.332875 L2004.54522,256.332875 L2004.54522,151.502063 C2004.54522,136.184243 2002.15118,124.755884 1997.36304,117.216644 C1992.5749,109.677404 1984.07608,105.90784 1971.86632,105.90784 C1957.98071,105.90784 1947.92576,110.03641 1941.70118,118.293673 C1935.4766,126.550935 1932.36435,140.13333 1932.36435,159.041265 L1932.36435,256.332875 L1881.3709,256.332875 L1881.3709,0 Z M2092.16776,127.807428 C2092.88598,115.84038 2095.87852,105.90788 2101.14548,98.0096286 C2106.41243,90.1113773 2113.11573,83.7689373 2121.25557,78.9821183 C2129.39541,74.1952993 2138.55259,70.7847419 2148.72739,68.7503439 C2158.90219,66.7159458 2169.13669,65.698762 2179.43119,65.698762 C2188.76807,65.698762 2198.2245,66.3569398 2207.80079,67.673315 C2217.37707,68.9896902 2226.11529,71.5625668 2234.01573,75.392022 C2241.91616,79.2214772 2248.38005,84.5467334 2253.4076,91.3679505 C2258.43515,98.1891675 2260.94889,107.224153 2260.94889,118.473177 L2260.94889,215.046768 C2260.94889,223.423701 2261.42769,231.441502 2262.38532,239.100413 C2263.34295,246.759323 2265.01877,252.50342 2267.41284,256.332875 L2215.70118,256.332875 C2214.74355,253.460783 2213.96549,250.528901 2213.36697,247.537139 C2212.76845,244.545377 2212.3495,241.493826 2212.11009,238.382393 C2203.97025,246.759327 2194.39411,252.623092 2183.38139,255.973865 C2172.36866,259.324638 2161.1167,261 2149.62516,261 C2140.7671,261 2132.50768,259.922982 2124.84666,257.768913 C2117.18563,255.614845 2110.48234,252.264122 2104.73657,247.716644 C2098.9908,243.169166 2094.50198,237.425069 2091.26999,230.484182 C2088.03799,223.543294 2086.42202,215.286155 2086.42202,205.712517 C2086.42202,195.181515 2088.2774,186.505536 2091.9882,179.684319 C2095.69901,172.863102 2100.48708,167.418177 2106.35256,163.349381 C2112.21803,159.280585 2118.92133,156.229034 2126.46265,154.194635 C2134.00397,152.160237 2141.60503,150.54471 2149.26606,149.348006 C2156.92708,148.151301 2164.46829,147.193951 2171.88991,146.475928 C2179.31153,145.757906 2185.89512,144.680888 2191.64089,143.244842 C2197.38666,141.808796 2201.93533,139.714594 2205.28702,136.962173 C2208.63872,134.209752 2210.19485,130.200852 2209.95544,124.935351 C2209.95544,119.430509 2209.05768,115.062602 2207.26212,111.831499 C2205.46657,108.600396 2203.07254,106.087354 2200.07995,104.292297 C2197.08736,102.49724 2193.61601,101.300553 2189.66579,100.702201 C2185.71558,100.103848 2181.46617,99.8046768 2176.91743,99.8046768 C2166.86234,99.8046768 2158.96202,101.958713 2153.21625,106.26685 C2147.47048,110.574987 2144.11883,117.755108 2143.16121,127.807428 L2092.16776,127.807428 Z M2209.95544,165.503439 C2207.80078,167.418166 2205.10749,168.914025 2201.87549,169.991059 C2198.6435,171.068093 2195.17215,171.965609 2191.46134,172.683631 C2187.75053,173.401654 2183.86022,173.999998 2179.7903,174.47868 C2175.72038,174.957361 2171.65052,175.555705 2167.5806,176.273728 C2163.75009,176.99175 2159.97949,177.9491 2156.26868,179.145805 C2152.55787,180.342509 2149.32592,181.958037 2146.57274,183.992435 C2143.81956,186.026833 2141.60508,188.599709 2139.92923,191.711142 C2138.25338,194.822574 2137.41547,198.77164 2137.41547,203.558459 C2137.41547,208.105937 2138.25338,211.935335 2139.92923,215.046768 C2141.60508,218.1582 2143.87941,220.611408 2146.75229,222.406465 C2149.62518,224.201522 2152.97683,225.458043 2156.80734,226.176066 C2160.63785,226.894089 2164.58801,227.253095 2168.65793,227.253095 C2178.71303,227.253095 2186.49364,225.577733 2192,222.22696 C2197.50636,218.876187 2201.57622,214.867286 2204.2097,210.200138 C2206.84318,205.532989 2208.45915,200.806076 2209.05767,196.019257 C2209.65618,191.232438 2209.95544,187.40304 2209.95544,184.530949 L2209.95544,165.503439 Z M2403.15596,256.332875 L2346.41678,256.332875 L2282.85452,70.7248968 L2336.36173,70.7248968 L2375.50459,197.455296 L2376.2228,197.455296 L2415.36566,70.7248968 L2466,70.7248968 L2403.15596,256.332875 Z" id="chetan-keshav" fill="#000000"></path>
                <circle id="Oval" fill="#40BCA9" cx="2516.5" cy="230.5" r="30.5"></circle>
            </g>
        </g>
    </g>
</svg>