<?xml version="1.0" encoding="UTF-8"?>
<svg width="2605px" height="422px" viewBox="0 0 2605 422" version="1.1" xmlns="http://www.w3.org/2000/svg" xmlns:xlink="http://www.w3.org/1999/xlink">
    <!-- Generator: Sketch 52.5 (67469) - http://www.bohemiancoding.com/sketch -->
    <title>Artboard</title>
    <desc>Created with Sketch.</desc>
    <g id="Page-1" stroke="none" stroke-width="1" fill="none" fill-rule="evenodd">
        <g id="Artboard" transform="translate(-155.000000, -187.000000)">
            <g id="Group" transform="translate(155.000000, 187.000000)">
                <rect id="Rectangle" fill="#FFFFFF" x="2183" y="0" width="422" height="422"></rect>
                <path d="M132.152031,216.064649 C128.800333,194.763305 116.231651,184.112792 94.4456094,184.112792 C86.3057697,184.112792 79.4827711,185.967657 73.9764089,189.677442 C68.4700467,193.387226 63.9812319,198.173973 60.5098296,204.037827 C57.0384274,209.90168 54.5845419,216.363789 53.1480996,223.424347 C51.7116573,230.484905 50.9934469,237.485522 50.9934469,244.42641 C50.9934469,251.127956 51.7116573,257.949071 53.1480996,264.889959 C54.5845419,271.830846 56.9187256,278.113452 60.1507208,283.737964 C63.382716,289.362477 67.7518292,293.969721 73.2581913,297.559835 C78.7645535,301.149949 85.4678504,302.944979 93.3682831,302.944979 C105.578043,302.944979 114.974629,299.534422 121.558322,292.713205 C128.142016,285.891988 132.271726,276.737334 133.947575,265.248968 L183.145478,265.248968 C179.79378,289.901086 170.217641,308.689069 154.416776,321.61348 C138.615911,334.537891 118.386318,341 93.7273919,341 C79.8417829,341 67.0935487,338.666461 55.4823067,333.999312 C43.8710647,329.332164 33.995672,322.810221 25.8558322,314.433287 C17.7159925,306.056354 11.3718008,296.06402 6.82306684,284.455983 C2.27433287,272.847947 0,260.103233 0,246.221458 C0,231.861001 2.09478028,218.517943 6.28440367,206.191884 C10.4740271,193.865826 16.6386662,183.215313 24.7785059,174.240028 C32.9183456,165.264742 42.8535892,158.264124 54.5845347,153.237964 C66.3154802,148.211804 79.722074,145.698762 94.8047182,145.698762 C105.817443,145.698762 116.411046,147.134786 126.585845,150.006878 C136.760645,152.878969 145.857977,157.246876 153.878113,163.110729 C161.898249,168.974582 168.421993,176.274372 173.449541,185.010316 C178.477089,193.746261 181.349931,204.097602 182.068152,216.064649 L132.152031,216.064649 Z M211.874181,80 L262.867628,80 L262.867628,176.57359 L263.944954,176.57359 C270.408945,165.803247 278.668364,157.964949 288.72346,153.058459 C298.778556,148.15197 308.594098,145.698762 318.17038,145.698762 C331.816582,145.698762 343.008694,147.553627 351.747051,151.263411 C360.485408,154.973196 367.368258,160.118949 372.395806,166.700825 C377.423354,173.282701 380.954555,181.300503 382.989515,190.75447 C385.024475,200.208438 386.04194,210.679447 386.04194,222.167813 L386.04194,336.332875 L335.048493,336.332875 L335.048493,231.502063 C335.048493,216.184243 332.654458,204.755884 327.866317,197.216644 C323.078176,189.677404 314.579353,185.90784 302.369594,185.90784 C288.483985,185.90784 278.429039,190.03641 272.204456,198.293673 C265.979873,206.550935 262.867628,220.13333 262.867628,239.041265 L262.867628,336.332875 L211.874181,336.332875 L211.874181,80 Z M549.795544,223.603851 C547.401473,210.67944 543.152062,200.866608 537.047182,194.165062 C530.942302,187.463515 521.665418,184.112792 509.216252,184.112792 C501.076412,184.112792 494.313264,185.488982 488.926606,188.241403 C483.539947,190.993824 479.230685,194.404381 475.998689,198.473177 C472.766694,202.541974 470.492361,206.850046 469.175623,211.397524 C467.858884,215.945002 467.080823,220.013737 466.841415,223.603851 L549.795544,223.603851 Z M466.841415,255.914718 C467.559637,272.429244 471.749197,284.396111 479.410223,291.815681 C487.071248,299.23525 498.083808,302.944979 512.448231,302.944979 C522.742734,302.944979 531.600662,300.372103 539.02228,295.226272 C546.443899,290.080442 550.992565,284.635517 552.668414,278.891334 L597.557012,278.891334 C590.3748,301.150043 579.362241,317.065977 564.519004,326.639615 C549.675767,336.213253 531.720507,341 510.652687,341 C496.048857,341 482.881666,338.666461 471.150721,333.999312 C459.419775,329.332164 449.484532,322.690552 441.344692,314.074278 C433.204852,305.458004 426.920511,295.166497 422.491481,283.19945 C418.062451,271.232402 415.847969,258.068848 415.847969,243.708391 C415.847969,229.826616 418.122301,216.902398 422.671035,204.935351 C427.219769,192.968303 433.683663,182.616963 442.06291,173.881018 C450.442156,165.145073 460.437251,158.264124 472.048493,153.237964 C483.659735,148.211804 496.527671,145.698762 510.652687,145.698762 C526.453552,145.698762 540.219251,148.750313 551.950197,154.853508 C563.681142,160.956702 573.317131,169.154006 580.858453,179.445667 C588.399776,189.737328 593.846204,201.464859 597.197903,214.628611 C600.549602,227.792363 601.746619,241.554261 600.788991,255.914718 L466.841415,255.914718 Z M695.593709,150.724897 L732.941022,150.724897 L732.941022,184.830812 L695.593709,184.830812 L695.593709,276.737276 C695.593709,285.353551 697.03013,291.097647 699.903014,293.969739 C702.775899,296.84183 708.521582,298.277854 717.140236,298.277854 C720.013121,298.277854 722.76626,298.158186 725.399738,297.918845 C728.033215,297.679504 730.546952,297.320498 732.941022,296.841816 L732.941022,336.332875 C728.631695,337.050898 723.843626,337.529572 718.576671,337.768913 C713.309716,338.008254 708.162542,338.127923 703.134993,338.127923 C695.234561,338.127923 687.753203,337.589414 680.690695,336.51238 C673.628187,335.435345 667.403697,333.341143 662.017038,330.229711 C656.630379,327.118279 652.380968,322.690538 649.268676,316.946355 C646.156385,311.202172 644.600262,303.663045 644.600262,294.328748 L644.600262,184.830812 L613.716907,184.830812 L613.716907,150.724897 L644.600262,150.724897 L644.600262,95.0784044 L695.593709,95.0784044 L695.593709,150.724897 Z M755.205767,207.807428 C755.923988,195.84038 758.916531,185.90788 764.183486,178.009629 C769.450441,170.111377 776.153738,163.768937 784.293578,158.982118 C792.433418,154.195299 801.5906,150.784742 811.7654,148.750344 C821.940199,146.715946 832.174697,145.698762 842.469201,145.698762 C851.806076,145.698762 861.262512,146.35694 870.838794,147.673315 C880.415076,148.98969 889.153303,151.562567 897.053735,155.392022 C904.954168,159.221477 911.418061,164.546733 916.445609,171.36795 C921.473158,178.189168 923.986894,187.224153 923.986894,198.473177 L923.986894,295.046768 C923.986894,303.423701 924.465701,311.441502 925.423329,319.100413 C926.380957,326.759323 928.056781,332.50342 930.450852,336.332875 L878.739187,336.332875 C877.781559,333.460783 877.003498,330.528901 876.40498,327.537139 C875.806463,324.545377 875.387507,321.493826 875.1481,318.382393 C867.00826,326.759327 857.432121,332.623092 846.419397,335.973865 C835.406673,339.324638 824.15471,341 812.663172,341 C803.805111,341 795.545691,339.922982 787.884666,337.768913 C780.22364,335.614845 773.520343,332.264122 767.774574,327.716644 C762.028805,323.169166 757.53999,317.425069 754.307995,310.484182 C751.076,303.543294 749.460026,295.286155 749.460026,285.712517 C749.460026,275.181515 751.315403,266.505536 755.026212,259.684319 C758.737022,252.863102 763.525091,247.418177 769.390564,243.349381 C775.256036,239.280585 781.959333,236.229034 789.500655,234.194635 C797.041977,232.160237 804.643037,230.54471 812.304063,229.348006 C819.965089,228.151301 827.506298,227.193951 834.927916,226.475928 C842.349535,225.757906 848.93313,224.680888 854.678899,223.244842 C860.424668,221.808796 864.973334,219.714594 868.325033,216.962173 C871.676731,214.209752 873.232854,210.200852 872.993447,204.935351 C872.993447,199.430509 872.095684,195.062602 870.300131,191.831499 C868.504578,188.600396 866.110544,186.087354 863.117955,184.292297 C860.125367,182.49724 856.654017,181.300553 852.703801,180.702201 C848.753584,180.103848 844.504173,179.804677 839.955439,179.804677 C829.900343,179.804677 822.000029,181.958713 816.25426,186.26685 C810.50849,190.574987 807.156842,197.755108 806.199214,207.807428 L755.205767,207.807428 Z M872.993447,245.503439 C870.838783,247.418166 868.145495,248.914025 864.913499,249.991059 C861.681504,251.068093 858.210154,251.965609 854.499345,252.683631 C850.788535,253.401654 846.898229,253.999998 842.828309,254.47868 C838.758389,254.957361 834.688531,255.555705 830.618611,256.273728 C826.788098,256.99175 823.017493,257.9491 819.306684,259.145805 C815.595875,260.342509 812.363928,261.958037 809.610747,263.992435 C806.857566,266.026833 804.643084,268.599709 802.967235,271.711142 C801.291385,274.822574 800.453473,278.77164 800.453473,283.558459 C800.453473,288.105937 801.291385,291.935335 802.967235,295.046768 C804.643084,298.1582 806.917417,300.611408 809.790301,302.406465 C812.663186,304.201522 816.014834,305.458043 819.845347,306.176066 C823.67586,306.894089 827.626017,307.253095 831.695937,307.253095 C841.751033,307.253095 849.531646,305.577733 855.038008,302.22696 C860.54437,298.876187 864.614229,294.867286 867.247706,290.200138 C869.881184,285.532989 871.497157,280.806076 872.095675,276.019257 C872.694193,271.232438 872.993447,267.40304 872.993447,264.530949 L872.993447,245.503439 Z M963.48886,150.724897 L1011.96855,150.724897 L1011.96855,176.57359 L1013.04587,176.57359 C1019.50986,165.803247 1027.88898,157.964949 1038.18349,153.058459 C1048.47799,148.15197 1059.01174,145.698762 1069.78506,145.698762 C1083.43126,145.698762 1094.62337,147.553627 1103.36173,151.263411 C1112.10009,154.973196 1118.98294,160.118949 1124.01048,166.700825 C1129.03803,173.282701 1132.56923,181.300503 1134.60419,190.75447 C1136.63915,200.208438 1137.65662,210.679447 1137.65662,222.167813 L1137.65662,336.332875 L1086.66317,336.332875 L1086.66317,231.502063 C1086.66317,216.184243 1084.26914,204.755884 1079.481,197.216644 C1074.69286,189.677404 1066.19403,185.90784 1053.98427,185.90784 C1040.09866,185.90784 1030.04372,190.03641 1023.81913,198.293673 C1017.59455,206.550935 1014.48231,220.13333 1014.48231,239.041265 L1014.48231,336.332875 L963.48886,336.332875 L963.48886,150.724897 Z M1280.94102,80 L1331.93447,80 L1331.93447,217.500688 L1396.21494,150.724897 L1456.54522,150.724897 L1386.519,218.936726 L1464.44561,336.332875 L1402.6789,336.332875 L1351.68545,253.401651 L1331.93447,272.429161 L1331.93447,336.332875 L1280.94102,336.332875 L1280.94102,80 Z M1607.3709,223.603851 C1604.97683,210.67944 1600.72742,200.866608 1594.62254,194.165062 C1588.51766,187.463515 1579.24078,184.112792 1566.79161,184.112792 C1558.65177,184.112792 1551.88862,185.488982 1546.50197,188.241403 C1541.11531,190.993824 1536.80604,194.404381 1533.57405,198.473177 C1530.34205,202.541974 1528.06772,206.850046 1526.75098,211.397524 C1525.43424,215.945002 1524.65618,220.013737 1524.41678,223.603851 L1607.3709,223.603851 Z M1524.41678,255.914718 C1525.135,272.429244 1529.32456,284.396111 1536.98558,291.815681 C1544.64661,299.23525 1555.65917,302.944979 1570.02359,302.944979 C1580.31809,302.944979 1589.17602,300.372103 1596.59764,295.226272 C1604.01926,290.080442 1608.56793,284.635517 1610.24377,278.891334 L1655.13237,278.891334 C1647.95016,301.150043 1636.9376,317.065977 1622.09436,326.639615 C1607.25113,336.213253 1589.29587,341 1568.22805,341 C1553.62422,341 1540.45703,338.666461 1528.72608,333.999312 C1516.99514,329.332164 1507.05989,322.690552 1498.92005,314.074278 C1490.78021,305.458004 1484.49587,295.166497 1480.06684,283.19945 C1475.63781,271.232402 1473.42333,258.068848 1473.42333,243.708391 C1473.42333,229.826616 1475.69766,216.902398 1480.2464,204.935351 C1484.79513,192.968303 1491.25902,182.616963 1499.63827,173.881018 C1508.01752,165.145073 1518.01261,158.264124 1529.62385,153.237964 C1541.2351,148.211804 1554.10303,145.698762 1568.22805,145.698762 C1584.02891,145.698762 1597.79461,148.750313 1609.52556,154.853508 C1621.2565,160.956702 1630.89249,169.154006 1638.43381,179.445667 C1645.97514,189.737328 1651.42156,201.464859 1654.77326,214.628611 C1658.12496,227.792363 1659.32198,241.554261 1658.36435,255.914718 L1524.41678,255.914718 Z M1728.03145,276.019257 C1728.03145,281.524099 1729.16862,286.251012 1731.44299,290.200138 C1733.71736,294.149263 1736.65005,297.380318 1740.24115,299.893398 C1743.83226,302.406477 1747.96197,304.261342 1752.63041,305.458047 C1757.29884,306.654752 1762.14676,307.253095 1767.17431,307.253095 C1770.76542,307.253095 1774.53602,306.834255 1778.48624,305.996561 C1782.43645,305.158868 1786.02751,303.842512 1789.2595,302.047455 C1792.4915,300.252398 1795.18479,297.859025 1797.33945,294.867263 C1799.49411,291.875501 1800.57143,288.105937 1800.57143,283.558459 C1800.57143,275.899549 1795.48411,270.155452 1785.30931,266.325997 C1775.13451,262.496542 1760.94985,258.667144 1742.75491,254.837689 C1735.3333,253.162302 1728.09134,251.187769 1721.02883,248.91403 C1713.96633,246.640291 1707.68198,243.648574 1702.17562,239.93879 C1696.66926,236.229005 1692.2403,231.561926 1688.8886,225.937414 C1685.5369,220.312902 1683.86107,213.431953 1683.86107,205.29436 C1683.86107,193.327313 1686.19526,183.514481 1690.8637,175.855571 C1695.53213,168.19666 1701.69677,162.153392 1709.3578,157.725585 C1717.01882,153.297777 1725.63735,150.186391 1735.21363,148.391334 C1744.78991,146.596277 1754.60545,145.698762 1764.66055,145.698762 C1774.71565,145.698762 1784.47134,146.656111 1793.92792,148.570839 C1803.38449,150.485567 1811.82347,153.716621 1819.24509,158.264099 C1826.6667,162.811577 1832.83134,168.854845 1837.73919,176.394085 C1842.64703,183.933325 1845.57972,193.446985 1846.53735,204.935351 L1798.05767,204.935351 C1797.33945,195.122372 1793.62869,188.48076 1786.92529,185.010316 C1780.2219,181.539873 1772.32158,179.804677 1763.22412,179.804677 C1760.35123,179.804677 1757.23899,179.98418 1753.88729,180.343191 C1750.53559,180.702203 1747.48319,181.480049 1744.73001,182.676754 C1741.97683,183.873459 1739.64265,185.608654 1737.72739,187.882393 C1735.81214,190.156132 1734.85452,193.207684 1734.85452,197.037139 C1734.85452,201.584617 1736.53035,205.294346 1739.88204,208.166437 C1743.23374,211.038529 1747.60286,213.372068 1752.98952,215.167125 C1758.37617,216.962182 1764.54081,218.577709 1771.48362,220.013755 C1778.42642,221.449801 1785.48882,223.005494 1792.67104,224.68088 C1800.09265,226.356267 1807.33461,228.390635 1814.39712,230.784044 C1821.45962,233.177454 1827.74397,236.348674 1833.25033,240.297799 C1838.75669,244.246925 1843.18565,249.153341 1846.53735,255.017194 C1849.88905,260.881047 1851.56488,268.121002 1851.56488,276.737276 C1851.56488,288.943665 1849.11099,299.175337 1844.20315,307.4326 C1839.2953,315.689862 1832.89126,322.331474 1824.99083,327.357634 C1817.09039,332.383794 1808.05291,335.91402 1797.87811,337.948418 C1787.70331,339.982816 1777.34911,341 1766.8152,341 C1756.04189,341 1745.50813,339.922982 1735.21363,337.768913 C1724.91913,335.614845 1715.76194,332.024784 1707.74181,326.998624 C1699.72167,321.972465 1693.13808,315.330853 1687.99083,307.07359 C1682.84357,298.816327 1680.03058,288.464987 1679.55177,276.019257 L1728.03145,276.019257 Z M1881.3709,80 L1932.36435,80 L1932.36435,176.57359 L1933.44168,176.57359 C1939.90567,165.803247 1948.16509,157.964949 1958.22018,153.058459 C1968.27528,148.15197 1978.09082,145.698762 1987.6671,145.698762 C2001.31331,145.698762 2012.50542,147.553627 2021.24377,151.263411 C2029.98213,154.973196 2036.86498,160.118949 2041.89253,166.700825 C2046.92008,173.282701 2050.45128,181.300503 2052.48624,190.75447 C2054.5212,200.208438 2055.53866,210.679447 2055.53866,222.167813 L2055.53866,336.332875 L2004.54522,336.332875 L2004.54522,231.502063 C2004.54522,216.184243 2002.15118,204.755884 1997.36304,197.216644 C1992.5749,189.677404 1984.07608,185.90784 1971.86632,185.90784 C1957.98071,185.90784 1947.92576,190.03641 1941.70118,198.293673 C1935.4766,206.550935 1932.36435,220.13333 1932.36435,239.041265 L1932.36435,336.332875 L1881.3709,336.332875 L1881.3709,80 Z M2092.16776,207.807428 C2092.88598,195.84038 2095.87852,185.90788 2101.14548,178.009629 C2106.41243,170.111377 2113.11573,163.768937 2121.25557,158.982118 C2129.39541,154.195299 2138.55259,150.784742 2148.72739,148.750344 C2158.90219,146.715946 2169.13669,145.698762 2179.43119,145.698762 C2188.76807,145.698762 2198.2245,146.35694 2207.80079,147.673315 C2217.37707,148.98969 2226.11529,151.562567 2234.01573,155.392022 C2241.91616,159.221477 2248.38005,164.546733 2253.4076,171.36795 C2258.43515,178.189168 2260.94889,187.224153 2260.94889,198.473177 L2260.94889,295.046768 C2260.94889,303.423701 2261.42769,311.441502 2262.38532,319.100413 C2263.34295,326.759323 2265.01877,332.50342 2267.41284,336.332875 L2215.70118,336.332875 C2214.74355,333.460783 2213.96549,330.528901 2213.36697,327.537139 C2212.76845,324.545377 2212.3495,321.493826 2212.11009,318.382393 C2203.97025,326.759327 2194.39411,332.623092 2183.38139,335.973865 C2172.36866,339.324638 2161.1167,341 2149.62516,341 C2140.7671,341 2132.50768,339.922982 2124.84666,337.768913 C2117.18563,335.614845 2110.48234,332.264122 2104.73657,327.716644 C2098.9908,323.169166 2094.50198,317.425069 2091.26999,310.484182 C2088.03799,303.543294 2086.42202,295.286155 2086.42202,285.712517 C2086.42202,275.181515 2088.2774,266.505536 2091.9882,259.684319 C2095.69901,252.863102 2100.48708,247.418177 2106.35256,243.349381 C2112.21803,239.280585 2118.92133,236.229034 2126.46265,234.194635 C2134.00397,232.160237 2141.60503,230.54471 2149.26606,229.348006 C2156.92708,228.151301 2164.46829,227.193951 2171.88991,226.475928 C2179.31153,225.757906 2185.89512,224.680888 2191.64089,223.244842 C2197.38666,221.808796 2201.93533,219.714594 2205.28702,216.962173 C2208.63872,214.209752 2210.19485,210.200852 2209.95544,204.935351 C2209.95544,199.430509 2209.05768,195.062602 2207.26212,191.831499 C2205.46657,188.600396 2203.07254,186.087354 2200.07995,184.292297 C2197.08736,182.49724 2193.61601,181.300553 2189.66579,180.702201 C2185.71558,180.103848 2181.46617,179.804677 2176.91743,179.804677 C2166.86234,179.804677 2158.96202,181.958713 2153.21625,186.26685 C2147.47048,190.574987 2144.11883,197.755108 2143.16121,207.807428 L2092.16776,207.807428 Z M2209.95544,245.503439 C2207.80078,247.418166 2205.10749,248.914025 2201.87549,249.991059 C2198.6435,251.068093 2195.17215,251.965609 2191.46134,252.683631 C2187.75053,253.401654 2183.86022,253.999998 2179.7903,254.47868 C2175.72038,254.957361 2171.65052,255.555705 2167.5806,256.273728 C2163.75009,256.99175 2159.97949,257.9491 2156.26868,259.145805 C2152.55787,260.342509 2149.32592,261.958037 2146.57274,263.992435 C2143.81956,266.026833 2141.60508,268.599709 2139.92923,271.711142 C2138.25338,274.822574 2137.41547,278.77164 2137.41547,283.558459 C2137.41547,288.105937 2138.25338,291.935335 2139.92923,295.046768 C2141.60508,298.1582 2143.87941,300.611408 2146.75229,302.406465 C2149.62518,304.201522 2152.97683,305.458043 2156.80734,306.176066 C2160.63785,306.894089 2164.58801,307.253095 2168.65793,307.253095 C2178.71303,307.253095 2186.49364,305.577733 2192,302.22696 C2197.50636,298.876187 2201.57622,294.867286 2204.2097,290.200138 C2206.84318,285.532989 2208.45915,280.806076 2209.05767,276.019257 C2209.65618,271.232438 2209.95544,267.40304 2209.95544,264.530949 L2209.95544,245.503439 Z M2403.15596,336.332875 L2346.41678,336.332875 L2282.85452,150.724897 L2336.36173,150.724897 L2375.50459,277.455296 L2376.2228,277.455296 L2415.36566,150.724897 L2466,150.724897 L2403.15596,336.332875 Z" id="chetan-keshav" fill="#000000"></path>
                <circle id="Oval" fill="#40BCA9" cx="2516.5" cy="310.5" r="30.5"></circle>
            </g>
        </g>
    </g>
</svg>