<?xml version="1.0" encoding="utf-8"?>
<!-- Generator: Adobe Illustrator 22.0.1, SVG Export Plug-In . SVG Version: 6.00 Build 0)  -->
<svg version="1.1" id="Layer_1" xmlns="http://www.w3.org/2000/svg" xmlns:xlink="http://www.w3.org/1999/xlink" x="0px" y="0px"
	 viewBox="0 0 76.2 111.1" style="enable-background:new 0 0 76.2 111.1;" xml:space="preserve">
<style type="text/css">
	.st0{fill:#211E1F;}
	.st1{fill:#40BCA9;}
	.st2{fill:#221F1F;}
</style>
<g>
	<g>
		<g>
			<path class="st0" d="M10.1,12.8H18v28l14.1-14.4h9.7L28.1,39.5l15,22.5h-9.6L22.6,44.8l-4.7,4.6v12.8h-7.8V12.8z"/>
		</g>
		<circle class="st1" cx="70" cy="45.6" r="6.1"/>
		<g>
			<polygon class="st0" points="0.1,0.1 0.1,3.2 0.1,68.4 0.1,71.6 3.2,71.6 10,71.6 10,68.4 3.2,68.4 3.2,3.2 10,3.2 10,0.1 
				3.2,0.1 			"/>
		</g>
		<g>
			<polygon class="st0" points="68.4,57.1 68.4,68.4 18,68.4 18,71.6 68.4,71.6 71.6,71.6 71.6,68.4 71.6,57.1 			"/>
		</g>
		<g>
			<polygon class="st0" points="71.6,34.1 71.6,3.2 71.6,0.1 68.4,0.1 18,0.1 18,3.2 68.4,3.2 68.4,34.1 			"/>
		</g>
	</g>
	<g>
		<path class="st2" d="M8.3,81.9c-0.2-0.3-0.4-0.5-0.6-0.7s-0.5-0.3-0.8-0.4S6.3,80.6,6,80.6c-0.6,0-1.1,0.1-1.5,0.3
			c-0.4,0.2-0.8,0.5-1,0.9c-0.3,0.4-0.4,0.8-0.6,1.3c-0.1,0.5-0.2,1-0.2,1.5s0.1,1,0.2,1.5s0.3,0.9,0.6,1.3c0.3,0.4,0.6,0.7,1,0.9
			c0.4,0.2,0.9,0.3,1.5,0.3c0.8,0,1.4-0.2,1.9-0.7s0.7-1.1,0.8-2h2.6c-0.1,0.8-0.2,1.4-0.5,2s-0.7,1.1-1.1,1.5c-0.5,0.4-1,0.8-1.6,1
			s-1.3,0.3-2,0.3c-0.9,0-1.7-0.2-2.5-0.5c-0.7-0.3-1.4-0.8-1.9-1.3c-0.5-0.6-0.9-1.2-1.2-2c-0.3-0.8-0.4-1.6-0.4-2.4
			c0-0.9,0.1-1.7,0.4-2.5s0.7-1.4,1.2-2s1.1-1,1.9-1.3c0.7-0.3,1.6-0.5,2.5-0.5c0.7,0,1.3,0.1,1.9,0.3c0.6,0.2,1.1,0.5,1.6,0.8
			c0.5,0.4,0.9,0.8,1.2,1.4c0.3,0.5,0.5,1.2,0.6,1.9H8.8C8.5,82.4,8.4,82.1,8.3,81.9z"/>
		<path class="st2" d="M16.5,78.7v4.6h4.9v-4.6H24v12h-2.6v-5.2h-4.9v5.2h-2.6v-12H16.5z"/>
		<path class="st2" d="M36.2,78.7v2.2h-6.3v2.6h5.8v2.1h-5.8v2.9h6.5v2.2h-9.1v-12C27.3,78.7,36.2,78.7,36.2,78.7z"/>
		<path class="st2" d="M38,80.9v-2.2h9.8v2.2h-3.6v9.8h-2.6v-9.8H38z"/>
		<path class="st2" d="M54.5,78.7l4.5,12h-2.7L55.4,88h-4.5L50,90.7h-2.7l4.5-12H54.5z M54.7,86l-1.5-4.4l0,0L51.6,86H54.7z"/>
		<path class="st2" d="M63.5,78.7l5,8.1l0,0v-8.1H71v12h-2.6l-5-8l0,0v8h-2.5v-12H63.5z"/>
		<path class="st2" d="M3.2,98.9v5l4.7-5h3.3l-4.7,4.7l5.1,7.3H8.3l-3.6-5.4L3.2,107v3.9H0.6v-12H3.2z"/>
		<path class="st2" d="M22.6,98.9v2.2h-6.3v2.6h5.8v2.1h-5.8v2.9h6.5v2.2h-9.1v-12H22.6z"/>
		<path class="st2" d="M27.3,107.9c0.1,0.3,0.3,0.5,0.6,0.7c0.2,0.2,0.5,0.3,0.8,0.4s0.7,0.1,1,0.1c0.2,0,0.5,0,0.8-0.1
			c0.3,0,0.5-0.1,0.8-0.2c0.2-0.1,0.4-0.3,0.6-0.5c0.2-0.2,0.2-0.4,0.2-0.7c0-0.3-0.1-0.6-0.3-0.8c-0.2-0.2-0.5-0.4-0.8-0.5
			s-0.7-0.3-1.1-0.4c-0.4-0.1-0.9-0.2-1.3-0.3c-0.4-0.1-0.9-0.2-1.3-0.4c-0.4-0.2-0.8-0.4-1.1-0.6c-0.3-0.3-0.6-0.6-0.8-1
			s-0.3-0.9-0.3-1.4c0-0.6,0.1-1.2,0.4-1.6c0.3-0.5,0.6-0.8,1-1.1c0.4-0.3,0.9-0.5,1.4-0.7c0.5-0.1,1.1-0.2,1.6-0.2
			c0.6,0,1.2,0.1,1.8,0.2s1.1,0.4,1.5,0.7c0.4,0.3,0.8,0.7,1.1,1.2s0.4,1.1,0.4,1.8h-2.6c0-0.4-0.1-0.7-0.2-0.9
			c-0.1-0.2-0.3-0.4-0.5-0.6c-0.2-0.1-0.5-0.2-0.7-0.3c-0.3-0.1-0.6-0.1-0.9-0.1c-0.2,0-0.4,0-0.6,0.1c-0.2,0-0.4,0.1-0.6,0.2
			c-0.2,0.1-0.3,0.3-0.4,0.4s-0.2,0.4-0.2,0.6s0,0.4,0.1,0.6c0.1,0.1,0.3,0.3,0.5,0.4c0.3,0.1,0.6,0.2,1.1,0.4s1.1,0.3,1.8,0.5
			c0.2,0,0.5,0.1,0.9,0.2c0.4,0.1,0.8,0.3,1.2,0.6c0.4,0.3,0.7,0.6,1,1s0.4,1,0.4,1.7c0,0.5-0.1,1.1-0.3,1.5c-0.2,0.5-0.5,0.9-1,1.2
			c-0.4,0.3-0.9,0.6-1.6,0.8c-0.6,0.2-1.3,0.3-2.2,0.3c-0.7,0-1.3-0.1-1.9-0.2s-1.2-0.4-1.6-0.8c-0.5-0.3-0.9-0.8-1.1-1.3
			c-0.3-0.5-0.4-1.2-0.4-1.9h2.6C27.1,107.3,27.2,107.6,27.3,107.9z"/>
		<path class="st2" d="M39.7,98.9v4.6h4.9v-4.6h2.6v12h-2.6v-5.2h-4.9v5.2h-2.6v-12H39.7z"/>
		<path class="st2" d="M56.4,98.9l4.5,12h-2.8l-0.9-2.7h-4.5l-0.9,2.7h-2.7l4.5-12H56.4z M56.5,106.2l-1.5-4.4l0,0l-1.6,4.4H56.5z"
			/>
		<path class="st2" d="M64.6,110.9l-3.9-12h2.7l2.7,8.4l0,0l2.7-8.4h2.7l-4,12H64.6z"/>
	</g>
</g>
</svg>
