<?xml version="1.0" encoding="utf-8"?>
<!-- Generator: Adobe Illustrator 22.0.1, SVG Export Plug-In . SVG Version: 6.00 Build 0)  -->
<svg version="1.1" id="Layer_1" xmlns="http://www.w3.org/2000/svg" xmlns:xlink="http://www.w3.org/1999/xlink" x="0px" y="0px"
	 viewBox="0 0 76 71.5" style="enable-background:new 0 0 76 71.5;" xml:space="preserve">
<style type="text/css">
	.st0{fill:#211E1F;}
	.st1{fill:#40BCA9;}
</style>
<g>
	<g>
		<g>
			<path class="st0" d="M10,12.7h7.9v28L32,26.3h9.7L28,39.4l15,22.5h-9.6L22.5,44.7l-4.7,4.6v12.8H10C10,62.1,10,12.7,10,12.7z"/>
		</g>
		<circle class="st1" cx="69.9" cy="45.5" r="6.1"/>
		<g>
			<polygon class="st0" points="0,0 0,3.1 0,68.3 0,71.5 3.1,71.5 9.9,71.5 9.9,68.3 3.1,68.3 3.1,3.1 9.9,3.1 9.9,0 3.1,0 			"/>
		</g>
		<g>
			<polygon class="st0" points="68.3,57 68.3,68.3 17.9,68.3 17.9,71.5 68.3,71.5 71.5,71.5 71.5,68.3 71.5,57 			"/>
		</g>
		<g>
			<polygon class="st0" points="71.5,34 71.5,3.1 71.5,0 68.3,0 17.9,0 17.9,3.1 68.3,3.1 68.3,34 			"/>
		</g>
	</g>
</g>
</svg>
