<?xml version="1.0" encoding="utf-8"?>
<!-- Generator: Adobe Illustrator 22.0.1, SVG Export Plug-In . SVG Version: 6.00 Build 0)  -->
<svg version="1.1" id="Layer_1" xmlns="http://www.w3.org/2000/svg" xmlns:xlink="http://www.w3.org/1999/xlink" x="0px" y="0px"
	 viewBox="0 0 520.3 120.6" style="enable-background:new 0 0 520.3 120.6;" xml:space="preserve">
<style type="text/css">
	.st0{fill:#F54123;}
</style>
<g>
	<path class="st0" d="M43.3,0c6,0,11.1,0.9,15.3,2.6c4.2,1.8,7.7,4.1,10.3,6.9c2.6,2.9,4.6,6.1,5.8,9.8c1.2,3.7,1.8,7.5,1.8,11.4
		s-0.6,7.7-1.8,11.4c-1.2,3.7-3.1,7-5.8,9.9c-2.6,2.9-6.1,5.2-10.3,6.9c-4.2,1.7-9.3,2.6-15.3,2.6l-22.2,0l0,34.5L0,96L0,0L43.3,0z
		 M37.5,45.2c2.4,0,4.8-0.2,7-0.5c2.2-0.4,4.2-1.1,5.9-2.1c1.7-1,3.1-2.5,4.1-4.4s1.5-4.4,1.5-7.4c0-3-0.5-5.5-1.5-7.4
		s-2.4-3.3-4.1-4.4c-1.7-1-3.7-1.7-5.9-2.1c-2.2-0.4-4.6-0.5-7-0.5l-16.4,0l0,28.8L37.5,45.2z"/>
	<path class="st0" d="M105.9,26.5l0,12.9h0.3c0.9-2.2,2.1-4.1,3.6-6c1.5-1.8,3.3-3.4,5.2-4.7c2-1.3,4.1-2.3,6.3-3
		c2.2-0.7,4.6-1.1,7-1.1c1.3,0,2.6,0.2,4.2,0.7v17.8c-0.9-0.2-2-0.3-3.2-0.5c-1.3-0.1-2.5-0.2-3.6-0.2c-3.5,0-6.5,0.6-8.9,1.8
		c-2.4,1.2-4.4,2.8-5.9,4.8s-2.5,4.4-3.2,7.1c-0.6,2.7-0.9,5.6-0.9,8.7l0,31.4l-19.1,0l0-69.7L105.9,26.5z"/>
	<path class="st0" d="M138,46.2c1.7-4.5,4.1-8.4,7.3-11.6c3.1-3.2,6.9-5.7,11.3-7.4s9.3-2.6,14.8-2.6s10.4,0.9,14.9,2.6
		c4.4,1.8,8.2,4.2,11.4,7.4c3.1,3.2,5.6,7,7.3,11.6c1.7,4.5,2.6,9.6,2.6,15.1c0,5.6-0.9,10.6-2.6,15.1c-1.7,4.5-4.1,8.3-7.3,11.5
		c-3.1,3.2-6.9,5.6-11.4,7.3c-4.5,1.7-9.4,2.6-14.9,2.6s-10.4-0.9-14.8-2.6c-4.4-1.7-8.2-4.1-11.3-7.3c-3.1-3.2-5.6-7-7.3-11.5
		c-1.7-4.5-2.6-9.5-2.6-15.1C135.5,55.8,136.3,50.8,138,46.2z M155.4,69.5c0.5,2.6,1.5,5,2.8,7.1c1.3,2.1,3,3.8,5.2,5
		c2.2,1.3,4.8,1.9,8.1,1.9s5.9-0.6,8.1-1.9s3.9-2.9,5.2-5c1.3-2.1,2.2-4.5,2.8-7.1c0.5-2.6,0.8-5.4,0.8-8.1c0-2.8-0.3-5.5-0.8-8.2
		s-1.5-5.1-2.8-7.1c-1.3-2.1-3.1-3.7-5.2-5c-2.2-1.3-4.9-2-8.1-2s-5.9,0.7-8.1,2c-2.2,1.3-3.9,3-5.2,5c-1.3,2.1-2.2,4.4-2.8,7.1
		s-0.8,5.4-0.8,8.2C154.6,64.2,154.9,66.9,155.4,69.5z"/>
	<path class="st0" d="M221.6,15.7V0l19.1,0v15.7L221.6,15.7z M214.2,104.7c2,0,3.7-0.4,5.2-1.1c1.5-0.8,2.2-2.4,2.2-5l0-72l19.1,0
		l0,73c0,3.6-0.4,6.7-1.1,9.3c-0.8,2.6-2.1,4.8-3.9,6.5c-1.8,1.8-4.3,3-7.5,3.9c-3.1,0.9-7.1,1.3-12,1.3c-2.2,0-4.3-0.2-6.1-0.5
		l0-15.7C211.2,104.5,212.5,104.7,214.2,104.7z"/>
	<path class="st0" d="M277.8,79.4c2.9,2.8,7,4.2,12.4,4.2c3.9,0,7.2-1,10-2.9c2.8-1.9,4.5-4,5.1-6.1h16.8
		c-2.7,8.3-6.8,14.3-12.4,17.9c-5.6,3.6-12.3,5.4-20.2,5.4c-5.5,0-10.4-0.9-14.8-2.6c-4.4-1.8-8.1-4.2-11.2-7.5
		c-3.1-3.2-5.4-7.1-7.1-11.6s-2.5-9.4-2.5-14.8c0-5.2,0.9-10,2.6-14.5c1.7-4.5,4.1-8.4,7.3-11.6c3.1-3.3,6.9-5.9,11.2-7.7
		c4.4-1.9,9.2-2.8,14.5-2.8c5.9,0,11.1,1.1,15.5,3.4s8,5.4,10.8,9.2c2.8,3.9,4.9,8.3,6.1,13.2c1.3,4.9,1.7,10.1,1.3,15.5l-50.2,0
		C273.3,72.1,274.9,76.6,277.8,79.4z M299.4,42.8c-2.3-2.5-5.8-3.8-10.4-3.8c-3.1,0-5.6,0.5-7.6,1.5c-2,1-3.6,2.3-4.8,3.8
		c-1.2,1.5-2.1,3.1-2.6,4.8s-0.8,3.2-0.9,4.6l31.1,0C303.2,49,301.6,45.3,299.4,42.8z"/>
	<path class="st0" d="M367.8,39c-3.1,0-5.6,0.7-7.7,2.1c-2.1,1.4-3.7,3.2-5,5.4s-2.2,4.6-2.8,7.3c-0.5,2.6-0.8,5.3-0.8,7.9
		c0,2.5,0.3,5.1,0.8,7.7s1.4,5,2.6,7.1c1.2,2.1,2.8,3.8,4.9,5.2c2.1,1.3,4.6,2,7.5,2c4.6,0,8.1-1.3,10.6-3.8c2.5-2.6,4-6,4.6-10.3
		l18.4,0c-1.3,9.2-4.8,16.3-10.8,21.1c-5.9,4.8-13.5,7.3-22.7,7.3c-5.2,0-10-0.9-14.3-2.6c-4.4-1.8-8.1-4.2-11.1-7.3
		c-3.1-3.1-5.4-6.9-7.1-11.2c-1.7-4.4-2.6-9.1-2.6-14.3c0-5.4,0.8-10.4,2.4-15c1.6-4.6,3.9-8.6,6.9-12s6.8-6,11.2-7.9
		s9.4-2.8,15.1-2.8c4.1,0,8.1,0.5,11.9,1.6c3.8,1.1,7.2,2.7,10.2,4.9s5.5,4.9,7.3,8.2c1.9,3.3,3,7.2,3.2,11.6l-18.7,0
		C380.7,43,376,39,367.8,39z"/>
	<path class="st0" d="M450,26.5v12.8l-14,0v34.5c0,3.2,0.5,5.4,1.6,6.5s3.2,1.6,6.5,1.6c1.1,0,2.1,0,3.1-0.1s1.9-0.2,2.8-0.4l0,14.8
		c-1.6,0.3-3.4,0.4-5.4,0.5s-3.9,0.1-5.8,0.1c-3,0-5.8-0.2-8.4-0.6c-2.6-0.4-5-1.2-7-2.4c-2-1.2-3.6-2.8-4.8-5s-1.8-5-1.8-8.5v-41
		l-11.6,0V26.5l11.6,0V5.7l19.2,0v20.9L450,26.5L450,26.5z"/>
	<path class="st0" d="M475.3,78.8c0.9,1.5,2,2.7,3.3,3.6c1.3,0.9,2.9,1.6,4.6,2.1c1.7,0.4,3.6,0.7,5.5,0.7c1.3,0,2.8-0.2,4.2-0.5
		c1.5-0.3,2.8-0.8,4-1.5c1.2-0.7,2.2-1.6,3-2.7c0.8-1.1,1.2-2.5,1.2-4.2c0-2.9-1.9-5-5.7-6.5c-3.8-1.4-9.1-2.9-16-4.3
		c-2.8-0.6-5.5-1.4-8.1-2.2c-2.6-0.9-5-2-7.1-3.4s-3.7-3.1-5-5.2c-1.3-2.1-1.9-4.7-1.9-7.7c0-4.5,0.9-8.2,2.6-11
		c1.8-2.9,4.1-5.1,6.9-6.8c2.9-1.7,6.1-2.8,9.7-3.5c3.6-0.7,7.3-1,11-1c3.7,0,7.4,0.4,11,1.1c3.5,0.7,6.7,1.9,9.5,3.6
		c2.8,1.7,5.1,4,6.9,6.8c1.8,2.8,2.9,6.4,3.3,10.7l-18.2,0c-0.3-3.7-1.7-6.2-4.2-7.5s-5.5-2-8.9-2c-1.1,0-2.2,0.1-3.5,0.2
		c-1.3,0.1-2.4,0.4-3.4,0.9c-1,0.5-1.9,1.1-2.6,2c-0.7,0.9-1.1,2-1.1,3.4c0,1.7,0.6,3.1,1.9,4.2c1.3,1.1,2.9,2,4.9,2.6
		c2,0.7,4.3,1.3,6.9,1.8c2.6,0.5,5.2,1.1,7.9,1.8c2.8,0.6,5.5,1.4,8.1,2.3c2.6,0.9,5,2.1,7.1,3.6c2.1,1.5,3.7,3.3,5,5.5
		c1.6,2.1,2.2,4.8,2.2,8.1c0,4.6-0.9,8.4-2.8,11.5c-1.8,3.1-4.2,5.6-7.2,7.5c-3,1.9-6.3,3.2-10.2,4c-3.8,0.8-7.7,1.1-11.6,1.1
		c-4,0-8-0.4-11.8-1.2c-3.9-0.8-7.3-2.2-10.3-4c-3-1.9-5.5-4.4-7.4-7.5c-1.9-3.1-3-7-3.2-11.6l18.2,0
		C474,75.6,474.4,77.3,475.3,78.8z"/>
</g>
</svg>
