<?xml version="1.0" encoding="utf-8"?>
<!-- Generator: Adobe Illustrator 22.0.1, SVG Export Plug-In . SVG Version: 6.00 Build 0)  -->
<svg version="1.1" id="Layer_1" xmlns="http://www.w3.org/2000/svg" xmlns:xlink="http://www.w3.org/1999/xlink" x="0px" y="0px"
	 viewBox="0 0 120.5 520.4" style="enable-background:new 0 0 120.5 520.4;" xml:space="preserve">
<style type="text/css">
	.st0{fill:#F54123;}
</style>
<g>
	<path class="st0" d="M0,477c0-6,0.9-11.1,2.6-15.3c1.8-4.2,4.1-7.7,6.9-10.3c2.9-2.6,6.1-4.6,9.8-5.8c3.7-1.2,7.5-1.8,11.4-1.8
		c3.9,0,7.7,0.6,11.4,1.8c3.7,1.2,7,3.1,9.9,5.8c2.9,2.6,5.2,6.1,6.9,10.3c1.7,4.2,2.6,9.3,2.6,15.3v22.2h34.5v21.1H0V477z
		 M45.2,482.8c0-2.4-0.2-4.8-0.5-7c-0.4-2.2-1.1-4.2-2.1-5.9c-1-1.7-2.5-3.1-4.4-4.1c-1.9-1-4.4-1.5-7.4-1.5c-3,0-5.5,0.5-7.4,1.5
		c-1.9,1-3.3,2.4-4.4,4.1c-1,1.7-1.7,3.7-2.1,5.9c-0.4,2.2-0.5,4.6-0.5,7v16.4h28.8V482.8z"/>
	<path class="st0" d="M26.5,414.4h12.9v-0.3c-2.2-0.9-4.1-2.1-6-3.6c-1.8-1.5-3.4-3.3-4.7-5.2c-1.3-2-2.3-4.1-3-6.3
		c-0.7-2.2-1.1-4.6-1.1-7c0-1.3,0.2-2.6,0.7-4.2h17.8c-0.2,0.9-0.3,2-0.5,3.2c-0.1,1.3-0.2,2.5-0.2,3.6c0,3.5,0.6,6.5,1.8,8.9
		c1.2,2.4,2.8,4.4,4.8,5.9c2,1.5,4.4,2.5,7.1,3.2c2.7,0.6,5.6,0.9,8.7,0.9h31.4v19.1H26.5V414.4z"/>
	<path class="st0" d="M46.2,382.3c-4.5-1.7-8.4-4.1-11.6-7.3c-3.2-3.1-5.7-6.9-7.4-11.3c-1.7-4.4-2.6-9.3-2.6-14.8
		c0-5.5,0.9-10.4,2.6-14.9c1.8-4.4,4.2-8.2,7.4-11.4c3.2-3.1,7-5.6,11.6-7.3c4.5-1.7,9.6-2.6,15.1-2.6c5.6,0,10.6,0.9,15.1,2.6
		c4.5,1.7,8.3,4.1,11.5,7.3c3.2,3.1,5.6,6.9,7.3,11.4s2.6,9.4,2.6,14.9c0,5.5-0.9,10.4-2.6,14.8s-4.1,8.2-7.3,11.3
		c-3.2,3.1-7,5.6-11.5,7.3c-4.5,1.7-9.5,2.6-15.1,2.6C55.8,384.8,50.8,384,46.2,382.3z M69.5,364.9c2.6-0.5,5-1.5,7.1-2.8
		c2.1-1.3,3.8-3,5-5.2c1.3-2.2,1.9-4.8,1.9-8.1s-0.6-5.9-1.9-8.1c-1.3-2.2-2.9-3.9-5-5.2c-2.1-1.3-4.5-2.2-7.1-2.8
		c-2.6-0.5-5.4-0.8-8.1-0.8c-2.8,0-5.5,0.3-8.2,0.8c-2.7,0.5-5.1,1.5-7.1,2.8c-2.1,1.3-3.7,3.1-5,5.2c-1.3,2.2-2,4.9-2,8.1
		s0.7,5.9,2,8.1c1.3,2.2,3,3.9,5,5.2c2.1,1.3,4.4,2.2,7.1,2.8s5.4,0.8,8.2,0.8C64.2,365.7,66.9,365.4,69.5,364.9z"/>
	<path class="st0" d="M15.7,298.7H0v-19.1h15.7V298.7z M104.7,306.1c0-2-0.4-3.7-1.1-5.2c-0.8-1.5-2.4-2.2-5-2.2h-72v-19.1h73
		c3.6,0,6.7,0.4,9.3,1.1c2.6,0.8,4.8,2.1,6.5,3.9c1.8,1.8,3,4.3,3.9,7.5c0.9,3.1,1.3,7.1,1.3,12c0,2.2-0.2,4.3-0.5,6.1h-15.7
		C104.5,309.1,104.7,307.8,104.7,306.1z"/>
	<path class="st0" d="M79.4,242.5c2.8-2.9,4.2-7,4.2-12.4c0-3.9-1-7.2-2.9-10c-1.9-2.8-4-4.5-6.1-5.1v-16.8
		c8.3,2.7,14.3,6.8,17.9,12.4c3.6,5.6,5.4,12.3,5.4,20.2c0,5.5-0.9,10.4-2.6,14.8c-1.8,4.4-4.2,8.1-7.5,11.2
		c-3.2,3.1-7.1,5.4-11.6,7.1c-4.5,1.7-9.4,2.5-14.8,2.5c-5.2,0-10-0.9-14.5-2.6c-4.5-1.7-8.4-4.1-11.6-7.3
		c-3.3-3.1-5.9-6.9-7.7-11.2c-1.9-4.4-2.8-9.2-2.8-14.5c0-5.9,1.1-11.1,3.4-15.5c2.3-4.4,5.4-8,9.2-10.8c3.9-2.8,8.3-4.9,13.2-6.1
		c4.9-1.3,10.1-1.7,15.5-1.3v50.2C72.1,247,76.6,245.4,79.4,242.5z M42.8,220.9c-2.5,2.3-3.8,5.8-3.8,10.4c0,3.1,0.5,5.6,1.5,7.6
		c1,2,2.3,3.6,3.8,4.8c1.5,1.2,3.1,2.1,4.8,2.6c1.7,0.5,3.2,0.8,4.6,0.9v-31.1C49,217.1,45.3,218.7,42.8,220.9z"/>
	<path class="st0" d="M39,152.5c0,3.1,0.7,5.6,2.1,7.7c1.4,2.1,3.2,3.7,5.4,5c2.2,1.3,4.6,2.2,7.3,2.8c2.6,0.5,5.3,0.8,7.9,0.8
		c2.5,0,5.1-0.3,7.7-0.8c2.6-0.5,5-1.4,7.1-2.6c2.1-1.2,3.8-2.8,5.2-4.9c1.3-2.1,2-4.6,2-7.5c0-4.6-1.3-8.1-3.8-10.6
		c-2.6-2.5-6-4-10.3-4.6v-18.4c9.2,1.3,16.3,4.8,21.1,10.8c4.8,5.9,7.3,13.5,7.3,22.7c0,5.2-0.9,10-2.6,14.3
		c-1.8,4.4-4.2,8.1-7.3,11.1c-3.1,3.1-6.9,5.4-11.2,7.1c-4.4,1.7-9.1,2.6-14.3,2.6c-5.4,0-10.4-0.8-15-2.4c-4.6-1.6-8.6-3.9-12-6.9
		c-3.4-3-6-6.8-7.9-11.2c-1.9-4.4-2.8-9.4-2.8-15.1c0-4.1,0.5-8.1,1.6-11.9c1.1-3.8,2.7-7.2,4.9-10.2c2.2-3,4.9-5.5,8.2-7.3
		c3.3-1.9,7.2-3,11.6-3.2v18.7C43,139.6,39,144.3,39,152.5z"/>
	<path class="st0" d="M26.5,70.3h12.8v14h34.5c3.2,0,5.4-0.5,6.5-1.6c1.1-1.1,1.6-3.2,1.6-6.5c0-1.1,0-2.1-0.1-3.1
		c-0.1-1-0.2-1.9-0.4-2.8h14.8c0.3,1.6,0.4,3.4,0.5,5.4c0.1,2,0.1,3.9,0.1,5.8c0,3-0.2,5.8-0.6,8.4c-0.4,2.6-1.2,5-2.4,7
		c-1.2,2-2.8,3.6-5,4.8c-2.2,1.2-5,1.8-8.5,1.8H39.3v11.6H26.5v-11.6H5.7V84.3h20.9V70.3z"/>
	<path class="st0" d="M78.8,45c1.5-0.9,2.7-2,3.6-3.3c0.9-1.3,1.6-2.9,2.1-4.6c0.4-1.7,0.7-3.6,0.7-5.5c0-1.3-0.2-2.8-0.5-4.2
		c-0.3-1.5-0.8-2.8-1.5-4c-0.7-1.2-1.6-2.2-2.7-3c-1.1-0.8-2.5-1.2-4.2-1.2c-2.9,0-5,1.9-6.5,5.7c-1.4,3.8-2.9,9.1-4.3,16
		c-0.6,2.8-1.4,5.5-2.2,8.1c-0.9,2.6-2,5-3.4,7.1c-1.4,2.1-3.1,3.7-5.2,5c-2.1,1.3-4.7,1.9-7.7,1.9c-4.5,0-8.2-0.9-11-2.6
		c-2.9-1.8-5.1-4.1-6.8-6.9c-1.7-2.9-2.8-6.1-3.5-9.7c-0.7-3.6-1-7.3-1-11s0.4-7.4,1.1-11c0.7-3.5,1.9-6.7,3.6-9.5
		c1.7-2.8,4-5.1,6.8-6.9c2.8-1.8,6.4-2.9,10.7-3.3v18.2c-3.7,0.3-6.2,1.7-7.5,4.2c-1.3,2.5-2,5.5-2,8.9c0,1.1,0.1,2.2,0.2,3.5
		c0.1,1.3,0.4,2.4,0.9,3.4c0.5,1,1.1,1.9,2,2.6c0.9,0.7,2,1.1,3.4,1.1c1.7,0,3.1-0.6,4.2-1.9c1.1-1.3,2-2.9,2.6-4.9
		c0.7-2,1.3-4.3,1.8-6.9c0.5-2.6,1.1-5.2,1.8-7.9c0.6-2.8,1.4-5.5,2.3-8.1c0.9-2.6,2.1-5,3.6-7.1c1.5-2.1,3.3-3.7,5.5-5
		C67.8,0.6,70.5,0,73.8,0c4.6,0,8.4,0.9,11.5,2.8c3.1,1.8,5.6,4.2,7.5,7.2c1.9,3,3.2,6.3,4,10.2c0.8,3.8,1.1,7.7,1.1,11.6
		c0,4-0.4,8-1.2,11.8c-0.8,3.9-2.2,7.3-4,10.3c-1.9,3-4.4,5.5-7.5,7.4c-3.1,1.9-7,3-11.6,3.2V46.3C75.6,46.3,77.3,45.9,78.8,45z"/>
</g>
</svg>
