<?xml version="1.0" encoding="UTF-8"?>
<svg width="285px" height="285px" viewBox="0 0 285 285" version="1.1" xmlns="http://www.w3.org/2000/svg" xmlns:xlink="http://www.w3.org/1999/xlink">
    <!-- Generator: Sketch 53 (72520) - https://sketchapp.com -->
    <title>Group 4</title>
    <desc>Created with Sketch.</desc>
    <g id="Page-2" stroke="none" stroke-width="1" fill="none" fill-rule="evenodd">
        <g id="Desktop-HD" transform="translate(-594.000000, -2681.000000)">
            <g id="Group-4" transform="translate(594.000000, 2681.000000)">
                <rect id="Rectangle" fill="#FFFCFC" x="0" y="0" width="285" height="285"></rect>
                <path d="M132.092031,283 C125.136516,283 119.205786,282.091342 114.299663,280.274 C109.393541,278.456658 105.356918,276.012682 102.189675,272.942 C99.0224309,269.871318 96.7246611,266.268021 95.2962963,262.132 C93.8679315,257.995979 93.1537598,253.609357 93.1537598,248.972 L93.1537598,238.632 C93.1537598,234.245311 92.9364032,230.673347 92.5016835,227.916 C92.0669638,225.158653 91.3217412,223.028008 90.2659933,221.524 C89.2102454,220.019992 87.7198001,219.017336 85.7946128,218.516 C83.8694255,218.014664 81.416401,217.764 78.4354658,217.764 L63.7171717,217.764 L63.7171717,253.296 C63.7171717,259.061362 70.610481,261.944 84.3973064,261.944 L84.3973064,281.684 L0,281.684 L0,261.944 C11.0543014,261.944 16.5813692,259.061362 16.5813692,253.296 L16.5813692,170.388 C16.5813692,164.622638 11.0543014,161.74 0,161.74 L0,142 L97.0662177,142 C103.152294,142 109.114075,142.407329 114.95174,143.222 C120.789404,144.036671 125.974912,145.697321 130.508418,148.204 C135.041923,150.710679 138.674883,154.25131 141.407407,158.826 C144.139931,163.40069 145.506173,169.447962 145.506173,176.968 C145.506173,181.856024 144.76095,186.148648 143.270483,189.846 C141.780015,193.543352 139.823806,196.707987 137.401796,199.34 C134.979786,201.972013 132.216252,204.102659 129.111111,205.732 C126.00597,207.361341 122.776672,208.551996 119.42312,209.304 C126.130224,211.058675 131.284681,214.31731 134.886644,219.08 C138.488608,223.84269 140.289562,231.049285 140.289562,240.7 L140.289562,253.672 C140.289562,256.429347 140.848479,258.465993 141.96633,259.782 C143.084181,261.098007 144.512524,261.756 146.251403,261.756 C148.114487,261.756 149.604933,261.098007 150.722783,259.782 C151.840634,258.465993 152.399551,256.429347 152.399551,253.672 L152.399551,244.648 L166,244.648 L166,253.296 C166,257.432021 165.34793,261.317315 164.043771,264.952 C162.739612,268.586685 160.69025,271.719987 157.895623,274.352 C155.100996,276.984013 151.59224,279.083326 147.369248,280.65 C143.146256,282.216674 138.053902,283 132.092031,283 Z M64,198 L81,198 C84.3626542,198 87.1336887,197.691718 89.3131868,197.075145 C91.4926849,196.458571 93.2362572,195.44124 94.543956,194.023121 C95.8516549,192.605003 96.7545763,190.693654 97.2527473,188.289017 C97.7509182,185.884381 98,182.894045 98,179.317919 C98,175.12522 96.8168616,171.85743 94.4505495,169.514451 C92.0842373,167.171472 87.6007656,166 81,166 L64,166 L64,198 Z M222.149201,236.241758 C222.522204,246.329721 224.138529,253.521957 226.998224,257.818681 C229.857918,262.115406 234.458228,264.263736 240.79929,264.263736 C245.524002,264.263736 249.937813,262.862651 254.040853,260.06044 C258.143893,257.258228 260.817045,253.241784 262.060391,248.010989 L281.829485,249.318681 C281.083478,253.80222 279.591485,258.192286 277.353464,262.489011 C275.115442,266.785736 272.131457,270.584233 268.401421,273.884615 C264.671385,277.184998 260.164325,279.862627 254.880107,281.917582 C249.595888,283.972538 243.53467,285 236.69627,285 C228.863194,285 221.496482,284.159349 214.595915,282.478022 C207.695347,280.796695 201.665212,277.994525 196.505329,274.071429 C191.345445,270.148332 187.304633,264.917615 184.382771,258.379121 C181.460909,251.840627 180,243.776605 180,234.186813 C180,217.871713 184.600309,205.261949 193.801066,196.357143 C203.001822,187.452336 216.367586,183 233.898757,183 C242.72651,183 250.341886,183.965192 256.745115,185.895604 C263.148345,187.826017 268.463567,190.908404 272.690941,195.142857 C276.918316,199.377311 280.026633,204.888244 282.015986,211.675824 C284.005339,218.463404 285,226.651967 285,236.241758 L222.149201,236.241758 Z M251,220 C251,217.743578 250.778869,215.330497 250.336601,212.760684 C249.894333,210.19087 249.104581,207.809128 247.96732,205.615385 C246.83006,203.421641 245.313735,201.603996 243.418301,200.162393 C241.522866,198.720791 239.185199,198 236.405229,198 C227.938955,198 223.137261,205.33326 222,220 L251,220 Z" id="Re" fill="#E13E5C" fill-rule="nonzero"></path>
                <rect id="Rectangle" fill="#E13E5C" x="0" y="0" width="285" height="13"></rect>
            </g>
        </g>
    </g>
</svg>