<svg xmlns="http://www.w3.org/2000/svg" xmlns:xlink="http://www.w3.org/1999/xlink" viewBox="0 0 1161.19 493.02"><defs><style>.cls-1{fill:none;}.cls-2{fill:#ffc857;}.cls-3{clip-path:url(#clip-path);}.cls-4{fill:#fff;}.cls-5{font-size:25px;font-family:DIN2014-Regular, "DIN 2014";}.cls-6{font-size:20px;fill:#333;font-family:DIN2014-Light, "DIN 2014";font-weight:300;}.cls-7{letter-spacing:0em;}.cls-8{letter-spacing:-0.01em;}.cls-9{letter-spacing:-0.01em;}.cls-10{letter-spacing:0em;}.cls-11{fill:#ff915a;}.cls-12{letter-spacing:0em;}.cls-13{letter-spacing:-0.01em;}.cls-14{letter-spacing:0em;}.cls-15{letter-spacing:-0.01em;}.cls-16{letter-spacing:-0.01em;}.cls-17{fill:#5ce8ff;}.cls-18{letter-spacing:-0.01em;}.cls-19{clip-path:url(#clip-path-2);}</style><clipPath id="clip-path" transform="translate(0 -40)"><rect class="cls-1" x="136.72" y="131.79" width="84.19" height="149"/></clipPath><clipPath id="clip-path-2" transform="translate(0 -40)"><rect class="cls-1" x="1014.61" y="132.88" width="112.18" height="125"/></clipPath></defs><title>Asset 3</title><g id="Layer_2" data-name="Layer 2"><g id="scroll"><path class="cls-2" d="M254.53,150c5.92,15.11-4.36,35.13-15.72,50.24s-24,25.37-35.49,40.6-22.16,35.49-35.59,36.32S138,259.47,119.27,248.84s-39.92-13.41-56-24.92-27-31.77-25.46-50.31,15.67-35.36,26.48-55.81S82.55,73.3,97.7,71.17s38.06,17.6,57.13,28.48,34.34,12.91,53,19S248.58,134.88,254.53,150Z" transform="translate(0 -40)"/><g class="cls-3"><path d="M207.12,131h-60a10.65,10.65,0,0,0-10.38,10.88V269.6a10.64,10.64,0,0,0,10.38,10.88h60A10.64,10.64,0,0,0,217.5,269.6V141.9A10.65,10.65,0,0,0,207.12,131Zm-44.81,6.62h29.61c.76,0,1.37,1.17,1.37,2.61s-.61,2.63-1.37,2.63H162.31c-.77,0-1.36-1.17-1.36-2.63s.59-2.61,1.36-2.61Zm14.81,132.09a6.95,6.95,0,1,1,6.6-6.94,6.82,6.82,0,0,1-6.6,6.94Zm32.58-23.8H144.51V149.4H209.7Z" transform="translate(0 -40)"/></g><path d="M166.38,52.28A5.29,5.29,0,0,0,159,53.52L138.72,81.39,116.84,97.22a5,5,0,0,0-1.21,1.21L68.89,162.72a5.25,5.25,0,1,0,8.5,6.17l46.22-63.58L145.5,89.48a5.15,5.15,0,0,0,1.21-1.21L167.49,59.7a5.31,5.31,0,0,0-1.11-7.42Z" transform="translate(0 -40)"/><path d="M139.4,75.07l18.46-25.4a2.87,2.87,0,0,0-.59-4L150.86,41a5.31,5.31,0,0,0-7.4,1.24,5.38,5.38,0,0,0-.74,4.92,5.41,5.41,0,0,0-5.2,7.14,5.42,5.42,0,0,0-5.19,7.15,5.36,5.36,0,0,0-4.45,2.23,5.3,5.3,0,0,0,1.1,7.41l6.41,4.66a2.88,2.88,0,0,0,4-.67Z" transform="translate(0 -40)"/><path class="cls-4" d="M194.09,205l-13.59-9.71,13.59-9.7a2.33,2.33,0,0,0,1-1.89,2.29,2.29,0,0,0-1-1.88l-16.23-11.6a2.32,2.32,0,0,0-3.66,1.89V189.7l-7.64-7.64a2.32,2.32,0,0,0-3.27,3.28l10,9.95-10,10a2.3,2.3,0,0,0-.64,2.25,2.36,2.36,0,0,0,1.66,1.66,2.3,2.3,0,0,0,2.25-.64l7.64-7.63v17.58a2.31,2.31,0,0,0,3.66,1.89l16.23-11.59a2.32,2.32,0,0,0,0-3.77Zm-15.26-28.38,9.92,7.08-9.92,7.09Zm0,37.35V199.8l9.92,7.08Z" transform="translate(0 -40)"/><text class="cls-5" transform="translate(13.4 373.33)">Connect your toothbrush</text><text class="cls-6" transform="translate(11.42 420.77)"><tspan class="cls-7">k</tspan><tspan x="9.68" y="0">eep </tspan><tspan class="cls-8" x="44.36" y="0">y</tspan><tspan x="53.4" y="0">our </tspan><tspan class="cls-9" x="86.58" y="0">t</tspan><tspan x="92.64" y="0">oothbrush near </tspan><tspan class="cls-8" x="225.14" y="0">y</tspan><tspan x="234.18" y="0">our </tspan><tspan x="-4.35" y="24">phone </tspan><tspan class="cls-7" x="51.61" y="24">t</tspan><tspan x="57.67" y="24">o connect and s</tspan><tspan class="cls-10" x="186.89" y="24">t</tspan><tspan x="193.01" y="24">art using</tspan></text><path class="cls-11" d="M657.35,119.66c10.46,6.48,20.92,15.3,27.64,28.49a67.13,67.13,0,0,1,4.6,47.93c-4.84,17.25-17.56,34.27-34.35,40.67S617.54,239.09,582,241s-85.79,9.84-104-7.57-4.45-60.11,10.38-95.47S519,74.62,542.14,70.4s53.31,15.14,73.76,26.93S646.81,113.18,657.35,119.66Z" transform="translate(0 -40)"/><text class="cls-5" transform="translate(462.39 373.33)">Monitor daily progress</text><text class="cls-6" transform="translate(446.4 420.77)">see <tspan class="cls-8" x="33.58" y="0">y</tspan><tspan x="42.62" y="0">our p</tspan><tspan class="cls-12" x="86.12" y="0">r</tspan><tspan x="93.78" y="0">og</tspan><tspan class="cls-12" x="114.02" y="0">r</tspan><tspan x="121.68" y="0">e</tspan><tspan class="cls-7" x="131.36" y="0">s</tspan><tspan x="140.48" y="0">s </tspan><tspan class="cls-10" x="154.7" y="0">ov</tspan><tspan x="174.14" y="0">er time and </tspan><tspan class="cls-12" x="4.14" y="24">r</tspan><tspan class="cls-13" x="11.8" y="24">e</tspan><tspan class="cls-10" x="21.32" y="24">w</tspan><tspan x="35.3" y="24">a</tspan><tspan class="cls-14" x="45.02" y="24">r</tspan><tspan x="52.68" y="24">d </tspan><tspan class="cls-15" x="68" y="24">y</tspan><tspan x="77.04" y="24">ourself </tspan><tspan class="cls-16" x="140.18" y="24">f</tspan><tspan x="145.68" y="24">or good habits </tspan></text><path d="M674.92,143.75H662.65v-4.24a3.74,3.74,0,0,0-7.48,0v4.24H638.63v-4.24a3.74,3.74,0,0,0-7.48,0v4.24H614.61v-4.24a3.74,3.74,0,0,0-7.47,0v4.24H590.59v-4.24a3.74,3.74,0,0,0-7.47,0v4.24H570.84a11.7,11.7,0,0,0-11.74,11.68V235a11.7,11.7,0,0,0,11.74,11.67H674.92A11.71,11.71,0,0,0,686.67,235V155.43a11.71,11.71,0,0,0-11.75-11.68Zm-44,23.89h8a3.72,3.72,0,1,1,0,7.43h-8a3.72,3.72,0,1,1,0-7.43Zm0,23.88h8a3.72,3.72,0,1,1,0,7.43h-8a3.72,3.72,0,1,1,0-7.43Zm-40,31.31h-8a3.72,3.72,0,1,1,0-7.43h8a3.72,3.72,0,1,1,0,7.43Zm0-23.88h-8a3.72,3.72,0,1,1,0-7.43h8a3.72,3.72,0,1,1,0,7.43Zm0-23.88h-8a3.72,3.72,0,1,1,0-7.43h8a3.72,3.72,0,1,1,0,7.43Zm24,47.76h-8a3.72,3.72,0,1,1,0-7.43h8a3.72,3.72,0,1,1,0,7.43Zm0-23.88h-8a3.72,3.72,0,1,1,0-7.43h8a3.72,3.72,0,1,1,0,7.43Zm0-23.88h-8a3.72,3.72,0,1,1,0-7.43h8a3.72,3.72,0,1,1,0,7.43Zm30.66,47.39a3.72,3.72,0,0,1-5.28,5.25l-3.37-3.34-3.36,3.34a3.72,3.72,0,0,1-5.28-5.25l3.36-3.34-3.36-3.35a3.69,3.69,0,0,1,0-5.25,3.75,3.75,0,0,1,5.28,0l3.36,3.34,3.37-3.34a3.75,3.75,0,0,1,5.28,0,3.69,3.69,0,0,1,0,5.25l-3.36,3.35ZM662.92,199h-8a3.72,3.72,0,1,1,0-7.43h8a3.72,3.72,0,1,1,0,7.43Zm0-23.88h-8a3.72,3.72,0,1,1,0-7.43h8a3.72,3.72,0,1,1,0,7.43Z" transform="translate(0 -40)"/><path class="cls-17" d="M1125.68,141.84c8.22,34,32.47,69.06,24.3,85.14s-48.79,13.19-80.22,13.13-53.62,2.66-84.56,1.87-70.49-5-88-26.24-13-59.39,6.35-82.26S957,103,982.05,89.65s40.7-32.6,64.43-41.53,55.27-7.51,67.09,9.63S1117.5,107.82,1125.68,141.84Z" transform="translate(0 -40)"/><text class="cls-5" transform="translate(900.39 373.33)">Monitor daily progress</text><text class="cls-6" transform="translate(886.17 420.77)">look <tspan class="cls-18" x="39.98" y="0">f</tspan><tspan x="45.48" y="0">or a</tspan><tspan class="cls-12" x="77.86" y="0">r</tspan><tspan x="85.52" y="0">eas of mouth that </tspan><tspan class="cls-8" x="235.38" y="0">y</tspan><tspan x="244.42" y="0">ou </tspan><tspan x="1.48" y="24">might ha</tspan><tspan class="cls-10" x="74.16" y="24">v</tspan><tspan x="83.72" y="24">e mi</tspan><tspan class="cls-7" x="118.84" y="24">s</tspan><tspan x="127.96" y="24">sed and fix them</tspan></text><g class="cls-19"><path d="M1122.37,157.15c-1.74-6.63-6.87-12.94-14.41-17.78a33.25,33.25,0,0,0-18.1-5,42.65,42.65,0,0,0-16.18,3.26l-.39.15-.63.27c-1,.34-1.75.63-2.37.87a11.49,11.49,0,0,1-1.45.51l5.66,5.51c7.14,6.07,7.11,12.07,7.06,23v2.8a2.14,2.14,0,0,1-4.27,0v-2.82c0-10.53,0-14.89-5.67-19.78l-10.89-10.58a66.57,66.57,0,0,0-16.37-2.47,28.13,28.13,0,0,0-9.4,1.44c-12.24,4.33-23.09,18.7-19.74,41,.4,2.65.78,5.31,1.18,8,2.8,19.26,5.7,39.18,13.15,57.17l.25.62c1.85,4.5,5,12,10.34,12h.43l.4-.17c5-2.09,6.79-6.83,8.15-10.31.91-2.34,1.72-4.71,2.5-7,2-5.82,3.86-11.31,7.23-16.25,3.62-5.3,8.19-8.33,12.53-8.33a11.14,11.14,0,0,1,5.75,1.71c5.88,3.5,7.73,10.58,9.53,17.42.5,1.95,1,4,1.65,5.86,2.69,8.28,6.18,16.75,11.79,16.75,2.62,0,5-1.84,7.12-5.64,4.19-7.35,6-15.52,7.72-23.43l.62-2.76c.68-3.06,1.44-6.21,2.21-9.43,4.37-18.15,9.32-38.7,4.59-56.56Zm-68.59,5h-3.39l-5.15,5.16v3.39a2.14,2.14,0,0,1-4.28,0v-3.39l-5.15-5.16h-3.4a2.14,2.14,0,1,1,0-4.27h3.4l5.15-5.16v-3.39a2.14,2.14,0,0,1,4.28,0v3.39l5.15,5.16h3.39a2.14,2.14,0,1,1,0,4.27Zm55.56,38.47H1106l-5.16,5.15v3.39a2.14,2.14,0,1,1-4.27,0v-3.39l-5.16-5.15H1088a2.14,2.14,0,0,1,0-4.28h3.39l5.16-5.16V187.8a2.14,2.14,0,1,1,4.27,0v3.39l5.16,5.16h3.39a2.14,2.14,0,1,1,0,4.28Z" transform="translate(0 -40)"/></g></g></g></svg>