<?xml version="1.0" encoding="utf-8"?>
<!-- Generator: Adobe Illustrator 21.1.0, SVG Export Plug-In . SVG Version: 6.00 Build 0)  -->
<svg version="1.1" id="Layer_1" xmlns="http://www.w3.org/2000/svg" xmlns:xlink="http://www.w3.org/1999/xlink" x="0px" y="0px"
	 viewBox="0 0 181 172" style="enable-background:new 0 0 181 172;" xml:space="preserve">
<style type="text/css">
	.st0{fill:#231F20;}
	.st1{fill:#40BCA9;}
</style>
<g>
	<path class="st0" d="M26.5,33.5h18.1v64.3l32.6-33.1h22.2L68,94.8l34.4,51.8h-22l-25-39.8l-10.8,10.5v29.3H26.5V33.5z"/>
</g>
<circle class="st1" cx="164.2" cy="108.8" r="14"/>
<g>
	<polygon class="st0" points="3.5,4.1 3.5,11.4 3.5,161.1 3.5,168.4 10.8,168.4 26.4,168.4 26.4,161.1 10.8,161.1 10.8,11.4 
		26.4,11.4 26.4,4.1 10.8,4.1 	"/>
</g>
<g>
	<polygon class="st0" points="160.5,135.3 160.5,161.1 44.8,161.1 44.8,168.4 160.5,168.4 167.8,168.4 167.8,161.1 167.8,135.3 	"/>
</g>
<g>
	<polygon class="st0" points="167.8,82.3 167.8,11.4 167.8,4.1 160.5,4.1 44.8,4.1 44.8,11.4 160.5,11.4 160.5,82.3 	"/>
</g>
</svg>
