<svg xmlns="http://www.w3.org/2000/svg" viewBox="0 0 512.001 512.001"><path d="M43.16 131.785l5.754 46.861-22.089 2.712c-10.404 1.277-17.802 10.747-16.525 21.151 1.277 10.404 10.747 17.802 21.151 16.525l22.089-2.712 2.355 19.18c5.605 45.646 47.151 78.105 92.797 72.501 45.646-5.605 78.105-47.151 72.501-92.797l-12.735-103.717L43.16 131.785z" fill="#fca"/><path d="M182.366 114.693l12.735 103.716c5.059 41.205-20.905 79.061-59.582 90.161a83.783 83.783 0 0 0 13.173-.568c45.646-5.605 78.105-47.151 72.501-92.797l-12.735-103.717-26.092 3.205z" fill="#f2a077"/><g fill="#475d6d"><path d="M93.578 199.784a7.5 7.5 0 0 1-5.905-12.117 22.184 22.184 0 0 1 14.877-8.417c5.922-.724 11.771.896 16.471 4.568a7.5 7.5 0 0 1-9.234 11.82 7.286 7.286 0 0 0-5.409-1.5 7.285 7.285 0 0 0-4.885 2.764 7.493 7.493 0 0 1-5.915 2.882zM172.895 190.044a7.5 7.5 0 0 1-5.904-12.118c7.582-9.704 21.645-11.43 31.348-3.849a7.5 7.5 0 1 1-9.234 11.82c-3.186-2.49-7.804-1.923-10.293 1.264a7.491 7.491 0 0 1-5.917 2.883z"/></g><path d="M158.949 263.587c-14.439 1.773-27.581-8.495-29.354-22.934l-.882-7.182a3.988 3.988 0 0 1 3.472-4.444l44.372-5.448a3.988 3.988 0 0 1 4.444 3.472l.882 7.182c1.772 14.439-8.495 27.582-22.934 29.354z" fill="#ce3a4c"/><path d="M209.585 120.675L59.25 139.133c-8.269 1.015-14.138 8.539-13.124 16.798l2.789 22.714-22.09 2.712a18.797 18.797 0 0 0-4.876 1.273L9.189 78.706c-1.805-14.703 8.649-28.084 23.352-29.889L145.563 34.94C171.341 31.774 195.032 19.808 205.21 0c60.216 23.945 44.529 115.744 4.375 120.675z" fill="#475d6d"/><path d="M205.21 0c-2.428 4.724-5.631 8.997-9.441 12.816 40.114 32.664 23.785 106.634-12.148 111.046l25.964-3.188c40.154-4.93 55.841-96.729-4.375-120.674z" fill="#2c3f4f"/><path d="M468.842 335.153l-5.754 46.861 22.089 2.712c10.404 1.277 17.802 10.747 16.525 21.151-1.277 10.404-10.747 17.802-21.151 16.525l-22.089-2.712-2.355 19.18c-5.605 45.646-47.151 78.105-92.797 72.501-45.646-5.605-78.105-47.151-72.501-92.797l12.735-103.717 165.298 20.296z" fill="#fca"/><path d="M485.177 384.727l-22.089-2.712 5.754-46.861-165.297-20.296 140.806 17.289-5.754 46.861-4.626 37.676-2.355 19.18c-5.331 43.417-38.223 75.487-74.883 74.409 2.163.441 4.349.825 6.578 1.099 45.646 5.605 87.192-26.855 92.797-72.501l2.355-19.18 22.089 2.712c10.404 1.278 19.873-6.121 21.151-16.525 1.276-10.404-6.122-19.874-16.526-21.151z" fill="#f2a077"/><g fill="#475d6d"><path d="M418.424 403.152a7.49 7.49 0 0 1-5.916-2.883c-2.489-3.186-7.106-3.753-10.293-1.264a7.5 7.5 0 0 1-9.234-11.82c9.705-7.581 23.767-5.854 31.348 3.849a7.502 7.502 0 0 1-5.905 12.118zM339.107 393.413c-2.23 0-4.437-.99-5.916-2.883a7.287 7.287 0 0 0-4.885-2.764 7.277 7.277 0 0 0-5.409 1.5 7.5 7.5 0 1 1-9.234-11.82 22.191 22.191 0 0 1 16.471-4.568 22.184 22.184 0 0 1 14.877 8.417 7.5 7.5 0 0 1-1.293 10.527 7.455 7.455 0 0 1-4.611 1.591z"/></g><path d="M353.053 466.956c14.439 1.773 27.581-8.495 29.354-22.934l.882-7.182a3.988 3.988 0 0 0-3.472-4.444l-44.372-5.448a3.988 3.988 0 0 0-4.444 3.472l-.882 7.182c-1.772 14.439 8.495 27.581 22.934 29.354z" fill="#ce3a4c"/><path d="M479.461 252.185L373.292 239.15a22.156 22.156 0 0 1-15.269-9.061c-9.914-13.758-25.636-23.267-44.107-24.61-30.542-2.221-58.135 19.6-63.04 49.827-5.447 33.569 18.102 64.633 51.54 68.738l150.335 18.459c8.263 1.015 14.139 8.535 13.124 16.798l-2.789 22.714 22.09 2.712c1.715.211 3.343.642 4.876 1.273l12.76-103.925c1.806-14.703-8.649-28.084-23.351-29.89z" fill="#be6351"/><path d="M479.461 252.185l-19.21-2.359c14.702 1.805 25.157 15.187 23.352 29.889l-12.679 103.261 14.252 1.75c1.715.211 3.343.642 4.876 1.273l12.76-103.925c1.806-14.702-8.649-28.083-23.351-29.889z" fill="#aa473a"/><g fill="#8ba7bc"><path d="M394.029 91.226a7.5 7.5 0 0 1-7.5-7.5V64.813a7.5 7.5 0 0 1 15 0v18.913a7.5 7.5 0 0 1-7.5 7.5zM394.029 149.366a7.5 7.5 0 0 1-7.5-7.5v-18.913a7.5 7.5 0 0 1 15 0v18.913a7.5 7.5 0 0 1-7.5 7.5zM432.556 110.839h-18.913a7.5 7.5 0 0 1 0-15h18.913a7.5 7.5 0 0 1 0 15zM374.416 110.839h-18.913a7.5 7.5 0 0 1 0-15h18.913a7.5 7.5 0 0 1 0 15zM117.973 396.547a7.5 7.5 0 0 1-7.5-7.5v-18.913a7.5 7.5 0 0 1 15 0v18.913a7.5 7.5 0 0 1-7.5 7.5zM117.973 454.688a7.5 7.5 0 0 1-7.5-7.5v-18.913a7.5 7.5 0 0 1 15 0v18.913a7.5 7.5 0 0 1-7.5 7.5zM156.5 416.161h-18.913a7.5 7.5 0 0 1 0-15H156.5a7.5 7.5 0 0 1 0 15zM98.359 416.161H79.446a7.5 7.5 0 0 1 0-15h18.913a7.5 7.5 0 0 1 0 15z"/></g></svg>