<svg xmlns="http://www.w3.org/2000/svg" viewBox="0 0 512.001 512.001"><path d="M365.275 22.135h51.247a31.855 31.855 0 0 1 29.235 19.204l3.275 7.569h15.466C490.733 48.908 512 70.175 512 96.41v174.683c0 18.635-15.107 33.742-33.742 33.742H307.826c-18.635 0-33.742-15.107-33.742-33.742V113.327c0-50.364 40.827-91.192 91.191-91.192z" fill="#475d6d"/><path d="M464.498 48.908h-15.465l-3.275-7.569a31.853 31.853 0 0 0-29.235-19.204h-26.544a31.855 31.855 0 0 1 29.235 19.204l3.275 7.569h15.466c26.235 0 47.502 21.267 47.502 47.502v174.683c0 18.635-15.107 33.742-33.742 33.742h26.544c18.635 0 33.742-15.107 33.742-33.742V96.411c-.001-26.235-21.268-47.503-47.503-47.503z" fill="#2c3f4f"/><path d="M205.84 49.221l-97.19-23.119a30.673 30.673 0 0 0-28.788 8.151L52.225 61.89H40.512c-16.941 0-30.674 13.733-30.674 30.674 0 0-1.547 37.634 0 50.051 1.838 14.753 14.592 57.649 14.592 57.649h207.289l38.844-153.726c1.991-7.886-7.168-13.794-13.532-8.729a59.936 59.936 0 0 1-51.191 11.412z" fill="#f9dc6a"/><path d="M257.031 37.808a59.859 59.859 0 0 1-13.077 7.891c-.043.279-.07.554-.142.838l-38.844 153.726h26.751l38.844-153.726c1.99-7.885-7.169-13.794-13.532-8.729z" fill="#e5ac51"/><path d="M505.4 386.451v103.41H317.8v-96.59H39.02v-62.07h411.13c30.51 0 55.25 24.729 55.25 55.25z" fill="#2bb4f3"/><g fill="#1687c4"><path d="M450.148 331.199h-23.651c30.514 0 55.25 24.736 55.25 55.25v103.416h23.651V386.448c0-30.513-24.736-55.249-55.25-55.249zM270.829 393.273v-6.824c0-30.513-24.734-55.248-55.247-55.25H101.364c-30.512.001-55.247 24.737-55.247 55.25v6.824h224.712z"/></g><path d="M359.754 275.685v67.098c0 18.385 33.288 36.936 33.288 36.936s33.288-18.552 33.288-36.936v-67.098h-66.576z" fill="#f2a077"/><path d="M509.355 195.566v9.801c0 11.442-9.265 20.72-20.708 20.72h-7.028c-2.808 54.051-52.94 91.589-102.128 83.026h-.012c-41.051-6.299-72.824-40.747-75.013-83.026h-7.028c-11.442 0-20.72-9.278-20.72-20.72v-9.801c0-11.442 9.278-20.72 20.72-20.72h6.894V129.88c0-1.204.024-2.395.085-3.575 12.16 2.347 24.72 3.563 37.561 3.563 39.13 0 75.608-11.333 106.336-30.91a196.084 196.084 0 0 0 19.358-14.02c8.663 12.243 14.068 28.143 14.068 44.942v44.966h6.907c11.443 0 20.708 9.278 20.708 20.72z" fill="#fca"/><path d="M488.648 174.846h-6.907v-18.357h-.009c-.004-30.478-.007-28.09-.015-28.518-.395-16.163-5.754-31.318-14.044-43.033a196.084 196.084 0 0 1-19.358 14.02 78.64 78.64 0 0 1 6.299 30.922v44.966l-.134 51.241c-1.216 23.407-11.491 44.431-27.408 59.594-12.816 12.22-29.28 20.611-47.58 23.432 44.883 7.814 90.543-22.759 100.328-69.233l.002-.009a88.696 88.696 0 0 0 1.15-6.73l.025-.208a92.28 92.28 0 0 0 .325-2.913c.023-.245.047-.489.069-.735.093-1.06.174-2.124.229-3.198H488.648c11.442 0 20.708-9.278 20.708-20.72v-9.801c-.001-11.442-9.266-20.72-20.708-20.72z" fill="#f2a077"/><g fill="#475d6d"><path d="M393.042 258.579c-11.585 0-22.49-4.514-30.707-12.709-4.155-4.155-7.361-8.993-9.536-14.385a7.5 7.5 0 1 1 13.91-5.611 28.072 28.072 0 0 0 6.226 9.384c5.378 5.364 12.521 8.322 20.107 8.322 11.634 0 21.972-6.955 26.338-17.719a7.5 7.5 0 0 1 13.901 5.638c-6.674 16.45-22.468 27.08-40.239 27.08zM348.637 188.095a7.5 7.5 0 0 1-7.5-7.5v-4.285c0-4.142 3.357-7.5 7.5-7.5s7.5 3.358 7.5 7.5v4.285a7.5 7.5 0 0 1-7.5 7.5zM437.447 188.095a7.5 7.5 0 0 1-7.5-7.5v-4.285c0-4.142 3.357-7.5 7.5-7.5s7.5 3.358 7.5 7.5v4.285a7.5 7.5 0 0 1-7.5 7.5z"/></g><path d="M240.43 386.451v103.41H15.72v-103.41c0-30.52 24.73-55.25 55.25-55.25h114.21c30.51 0 55.25 24.729 55.25 55.25z" fill="#ff5a59"/><path d="M185.18 331.199h-23.651c30.514 0 55.25 24.736 55.25 55.25v103.416h23.651V386.448c0-30.513-24.736-55.249-55.25-55.249z" fill="#ce3a4c"/><path d="M94.786 275.685v67.098c0 18.385 14.904 33.288 33.288 33.288 18.385 0 33.288-14.904 33.288-33.288v-67.098H94.786z" fill="#f2a077"/><path d="M244.398 195.566v9.801c0 11.442-9.278 20.72-20.72 20.72h-7.028c-.928 17.153-6.838 33.287-15.187 45.173 0 .012-.012.012-.012.024-16.693 25.675-51.065 43.249-86.929 37.828h-.012c-41.051-6.299-72.824-40.747-75.013-83.026h-7.028c-11.442 0-20.708-9.278-20.708-20.72v-9.801c0-11.442 9.266-20.72 20.708-20.72h6.907v-32.612c23.796-1.605 31.493-8.901 31.493-32.357 0 0 30.277 53.928 118.775 37.853 8.5-1.544 17.534-3.733 27.14-6.676v33.791h6.894c11.442.002 20.72 9.28 20.72 20.722z" fill="#fca"/><path d="M223.678 174.846h-6.894V141.055c-9.606 2.943-18.641 5.131-27.14 6.676v27.116l-.134 51.241c-1.216 23.407-11.491 44.431-27.408 59.594-12.816 12.22-29.268 20.611-47.58 23.432 35.853 5.419 70.297-12.248 86.929-37.828 0-.012.012-.012.012-.024 5.357-6.82 11.086-19.637 13.756-33.706h.049a91.702 91.702 0 0 0 1.097-7.822c.01-.105.023-.209.033-.315.103-1.105.191-2.214.252-3.33H223.678c11.442 0 20.72-9.278 20.72-20.72v-9.801c0-11.444-9.278-20.722-20.72-20.722z" fill="#f2a077"/><g fill="#475d6d"><path d="M128.074 258.579c-11.586 0-22.491-4.514-30.708-12.709-4.153-4.154-7.359-8.991-9.536-14.384a7.5 7.5 0 0 1 4.148-9.762c3.841-1.553 8.211.308 9.762 4.148a28.074 28.074 0 0 0 6.227 9.385c5.378 5.364 12.521 8.322 20.107 8.322 11.634 0 21.972-6.955 26.338-17.719a7.5 7.5 0 0 1 13.901 5.638c-6.673 16.451-22.468 27.081-40.239 27.081zM83.669 188.095a7.5 7.5 0 0 1-7.5-7.5v-4.285c0-4.142 3.357-7.5 7.5-7.5s7.5 3.358 7.5 7.5v4.285a7.5 7.5 0 0 1-7.5 7.5zM172.479 188.095a7.5 7.5 0 0 1-7.5-7.5v-4.285c0-4.142 3.357-7.5 7.5-7.5s7.5 3.358 7.5 7.5v4.285a7.5 7.5 0 0 1-7.5 7.5z"/></g><path d="M38.075 402.245H19.259C8.623 402.245 0 393.622 0 382.985V340.95c0-10.637 8.623-19.259 19.259-19.259h18.816c7.814 0 14.149 6.335 14.149 14.149v52.255c.001 7.815-6.334 14.15-14.149 14.15z" fill="#fca"/><g fill="#ce3a4c"><path d="M210.82 430.37v59.49h-15v-59.49c0-4.14 3.36-7.5 7.5-7.5s7.5 3.36 7.5 7.5zM60.33 430.37v59.49h-15v-59.49c0-4.14 3.36-7.5 7.5-7.5s7.5 3.36 7.5 7.5z"/></g><path d="M475.79 430.37v59.49h-15v-59.49c0-4.14 3.35-7.5 7.5-7.5 4.14 0 7.5 3.36 7.5 7.5z" fill="#1687c4"/></svg>