<svg width="768" height="1052" viewBox="0 0 768 1052" xmlns="http://www.w3.org/2000/svg" xmlns:xlink="http://www.w3.org/1999/xlink"><title>Artboard</title><defs><linearGradient x1="50%" y1="0%" x2="50%" y2="100%" id="c"><stop stop-color="#CFD9DF" offset="0%"/><stop stop-color="#E2EBF0" offset="100%"/></linearGradient><rect id="b" x="192" y="412" width="568" height="682" rx="48"/><filter x="-26.4%" y="-22%" width="152.8%" height="144%" filterUnits="objectBoundingBox" id="a"><feMorphology radius="25" operator="dilate" in="SourceAlpha" result="shadowSpreadOuter1"/><feOffset in="shadowSpreadOuter1" result="shadowOffsetOuter1"/><feGaussianBlur stdDeviation="25" in="shadowOffsetOuter1" result="shadowBlurOuter1"/><feColorMatrix values="0 0 0 0 0 0 0 0 0 0 0 0 0 0 0 0 0 0 0.126217165 0" in="shadowBlurOuter1"/></filter><circle id="d" cx="120" cy="120" r="120"/><path d="M12 160H0V0h264v160h-12c0 66.274-53.726 120-120 120S12 226.274 12 160z" id="f"/><path d="M124 144.611V163h4c39.765 0 72 32.235 72 72v9H0v-9c0-39.765 32.235-72 72-72h4v-18.389c-17.237-8.189-29.628-24.924-31.695-44.73C38.48 99.058 34 94.052 34 88V74c0-5.946 4.325-10.882 10-11.834V56c0-30.928 25.072-56 56-56s56 25.072 56 56v6.166c5.675.952 10 5.888 10 11.834v14c0 6.052-4.48 11.058-10.305 11.881-2.067 19.806-14.458 36.541-31.695 44.73z" id="h"/><path d="M108 13.07V32c0 13.255 10.745 24 24 24s24-10.745 24-24V13.07c17.919 2.006 31.72 7.482 31.996 21.575C213.854 45.568 232 71.165 232 100.999V110H32v-9c0-29.835 18.146-55.432 44.004-66.355.276-14.093 14.077-19.57 31.996-21.574z" id="j"/><path id="l" d="M0 0h264v280H0z"/><path d="M48.725 89.219A12 12 0 0 0 42 100v13c0 6.019 4.43 11.002 10.209 11.867 1.743 20.248 14.26 37.416 31.791 45.744V189h-4c-1.586 0-3.16.051-4.721.152a72.113 72.113 0 0 1-13.689-9.103A48.013 48.013 0 0 1 48 182c-26.51 0-48-21.49-48-48 0-14.41 6.349-27.335 16.402-36.134A43.802 43.802 0 0 1 8 72c0-21.84 15.911-39.962 36.774-43.41C51.019 11.89 67.12 0 86 0a43.798 43.798 0 0 1 22 5.886A43.798 43.798 0 0 1 130 0c18.88 0 34.981 11.89 41.226 28.59C192.09 32.039 208 50.16 208 72a43.802 43.802 0 0 1-8.402 25.866C209.65 106.665 216 119.591 216 134c0 26.51-21.49 48-48 48-4.72 0-9.281-.681-13.59-1.951a72.113 72.113 0 0 1-13.689 9.103A73.084 73.084 0 0 0 136 189h-4v-18.389c17.53-8.328 30.048-25.496 31.791-45.744C169.57 124.002 174 119.02 174 113v-13a11.99 11.99 0 0 0-5.476-10.073 24.329 24.329 0 0 1-3.235-1.47c-.42-.12-.85-.218-1.289-.291v-.453c-8.68-5.303-17.235-16.538-22.55-30.914C131.312 58.835 119.547 60 107 60c-11.961 0-23.212-1.059-33.02-2.921C68.756 71.064 60.465 82.043 52 87.423v.743a11.912 11.912 0 0 0-3.275 1.053z" id="n"/></defs><g transform="translate(-92 -142)" fill="none" fill-rule="evenodd"><use fill="#000" filter="url(#a)" xlink:href="#b"/><use fill="url(#c)" xlink:href="#b"/><rect fill="url(#c)" x="136" y="298" width="679" height="818" rx="48"/><g transform="translate(344 132)"><g transform="translate(12 40)"><mask id="e" fill="#fff"><use xlink:href="#d"/></mask><use fill="#E6E6E6" xlink:href="#d"/><path d="M0 0h240v240H0z" mask="url(#e)" fill="#65C9FF"/></g><mask id="g" fill="#fff"><use xlink:href="#f"/></mask><g mask="url(#g)"><g transform="translate(32 36)"><mask id="i" fill="#fff"><use xlink:href="#h"/></mask><use fill="#D0C6AC" xlink:href="#h"/><path d="M0 0h264v244H0z" transform="translate(-32)" mask="url(#i)" fill="#D08B5B"/><path d="M156 94v8c0 30.928-25.072 56-56 56s-56-25.072-56-56v-8c0 30.928 25.072 56 56 56s56-25.072 56-56z" fill-opacity=".1" fill="#000" mask="url(#i)"/></g><g transform="translate(0 170)"><mask id="k" fill="#fff"><use xlink:href="#j"/></mask><use fill="#B7C1DB" xlink:href="#j"/><path d="M0 0h264v110H0z" mask="url(#k)" fill="#FF5C5C"/><path d="M102 61.74V110h-7V58.15a64.54 64.54 0 0 0 7 3.59zm67-3.59V98.5a3.5 3.5 0 1 1-7 0V61.74a64.54 64.54 0 0 0 7-3.59z" fill="#F4F4F4" mask="url(#k)"/><path d="M131.99 68C98.53 67.997 65.5 52.018 65.5 32.308c0-11.065 10.41-16.737 25.46-19.584C81.875 16.074 76 21.706 76 31.077c0 20.39 27.815 36.919 55.99 36.923zm41.05-55.276c15.05 2.847 25.46 8.519 25.46 19.584 0 19.71-33.031 35.689-66.49 35.692C160.185 67.996 188 51.467 188 31.077c0-9.37-5.875-15.003-14.96-18.353z" fill-opacity=".16" fill="#000" mask="url(#k)"/></g><g fill="#000"><path d="M118 150c0 5.372 6.158 9 14 9s14-3.628 14-9c0-1.105-.95-2-2-2-1.293 0-1.87.905-2 2-1.242 2.938-4.317 4.716-10 5-5.683-.284-8.758-2.062-10-5-.13-1.095-.707-2-2-2-1.05 0-2 .895-2 2z" fill-opacity=".6" fill-rule="nonzero"/><path d="M120 130c0 4.418 5.373 8 12 8s12-3.582 12-8" fill-opacity=".16"/><g transform="translate(76 90)" fill-opacity=".6"><circle cx="30" cy="22" r="6"/><circle cx="82" cy="22" r="6"/></g><g fill-rule="nonzero" fill-opacity=".6"><path d="M91.63 99.159c3.915-5.51 14.648-8.598 23.893-6.328a2 2 0 0 0 .954-3.884c-10.737-2.637-23.165.94-28.107 7.894a2 2 0 0 0 3.26 2.318zM172.37 99.159c-3.915-5.51-14.648-8.598-23.893-6.328a2 2 0 0 1-.954-3.884c10.737-2.637 23.165.94 28.108 7.894a2 2 0 0 1-3.26 2.318z"/></g></g><mask id="m" fill="#fff"><use xlink:href="#l"/></mask><g mask="url(#m)"><path d="M104.985 27.764C113.013 26.627 121.796 26 131 26c10.358 0 20.183.794 29 2.216C182.451 38.75 198 61.56 198 88v17.044c-11.538-.371-25.169-14.28-32.55-34.245C155.312 72.835 143.547 74 131 74c-11.961 0-23.212-1.059-33.02-2.921-7.304 19.548-20.597 33.223-31.98 33.943V88c0-26.825 16.004-49.913 38.985-60.236z" fill-opacity=".16" fill="#000"/><g transform="translate(24 10)"><mask id="o" fill="#fff"><use xlink:href="#n"/></mask><use fill="#314756" xlink:href="#n"/><path d="M0 0h264v280H0z" transform="translate(-24 -10)" mask="url(#o)" fill="#4A312C"/></g></g></g></g><text font-family="Nunito-SemiBold, Nunito" font-size="45" font-weight="500" fill="#000"><tspan x="401" y="494">Tammy</tspan></text><text font-family="Nunito-SemiBold, Nunito" font-size="25" font-weight="500" fill="#686767"><tspan x="286.85" y="535">captain of the college rugby team</tspan></text><text font-family="Nunito-Regular, Nunito" font-size="30" fill="#000"><tspan x="208" y="609">During one of the pre-season practices, </tspan> <tspan x="208" y="650">she got a partial ACL (anterior cruciate </tspan> <tspan x="208" y="691">ligament) and sprained LCL (lateral </tspan> <tspan x="208" y="732">collateral ligament) tear.</tspan>  <tspan x="208" y="814" font-family="Nunito-Bold, Nunito" font-weight="bold">She hopes to recover as soon as </tspan> <tspan x="208" y="855" font-family="Nunito-Bold, Nunito" font-weight="bold">possible</tspan> <tspan x="321.58" y="855"> so she attempts to connect </tspan> <tspan x="208" y="896">with other athletes to get useful </tspan> <tspan x="208" y="937" font-family="Nunito-Bold, Nunito" font-weight="bold">recovery tips.</tspan></text></g></svg>