<?xml version="1.0" encoding="UTF-8"?>
<svg width="768px" height="1052px" viewBox="0 0 768 1052" version="1.1" xmlns="http://www.w3.org/2000/svg" xmlns:xlink="http://www.w3.org/1999/xlink">
    <!-- Generator: Sketch 52.5 (67469) - http://www.bohemiancoding.com/sketch -->
    <title>Artboard</title>
    <desc>Created with Sketch.</desc>
    <defs>
        <linearGradient x1="50%" y1="0%" x2="50%" y2="100%" id="linearGradient-1">
            <stop stop-color="#CFD9DF" offset="0%"></stop>
            <stop stop-color="#E2EBF0" offset="100%"></stop>
        </linearGradient>
        <rect id="path-2" x="192" y="412" width="568" height="682" rx="48"></rect>
        <filter x="-26.4%" y="-22.0%" width="152.8%" height="144.0%" filterUnits="objectBoundingBox" id="filter-3">
            <feMorphology radius="25" operator="dilate" in="SourceAlpha" result="shadowSpreadOuter1"></feMorphology>
            <feOffset dx="0" dy="0" in="shadowSpreadOuter1" result="shadowOffsetOuter1"></feOffset>
            <feGaussianBlur stdDeviation="25" in="shadowOffsetOuter1" result="shadowBlurOuter1"></feGaussianBlur>
            <feColorMatrix values="0 0 0 0 0   0 0 0 0 0   0 0 0 0 0  0 0 0 0.126217165 0" type="matrix" in="shadowBlurOuter1"></feColorMatrix>
        </filter>
        <circle id="path-4" cx="120" cy="120" r="120"></circle>
        <path d="M12,160 L-3.19744231e-14,160 L-3.19744231e-14,-1.42108547e-14 L264,-1.42108547e-14 L264,160 L252,160 C252,226.27417 198.27417,280 132,280 C65.72583,280 12,226.27417 12,160 Z" id="path-6"></path>
        <path d="M124,144.610951 L124,163 L128,163 C167.764502,163 200,195.235498 200,235 L200,244 L0,244 L0,235 C-4.86974701e-15,195.235498 32.235498,163 72,163 L76,163 L76,144.610951 C58.7626345,136.422372 46.3722246,119.687011 44.3051388,99.8812385 C38.4803105,99.0577866 34,94.0521096 34,88 L34,74 C34,68.0540074 38.3245733,63.1180731 44,62.1659169 L44,56 C44,25.072054 69.072054,5.68137151e-15 100,0 C130.927946,-5.68137151e-15 156,25.072054 156,56 L156,62.1659169 C161.675427,63.1180731 166,68.0540074 166,74 L166,88 C166,94.0521096 161.51969,99.0577866 155.694861,99.8812385 C153.627775,119.687011 141.237365,136.422372 124,144.610951 Z" id="path-8"></path>
        <path d="M108,13.0708856 L108,32 C108,45.254834 118.745166,56 132,56 C145.254834,56 156,45.254834 156,32 L156,13.0708856 C173.918699,15.075938 187.720158,20.5518341 187.995797,34.6449676 C213.853567,45.5680933 232,71.1646257 232,100.999485 L232,110 L32,110 L32,100.999485 C32,71.1646257 50.1464329,45.5680933 76.0042027,34.6449832 C76.2798424,20.5518341 90.0813006,15.075938 108,13.0708856 Z" id="path-10"></path>
        <rect id="path-12" x="0" y="0" width="264" height="280"></rect>
        <path d="M48.7246602,89.2187346 C44.7420117,91.1711421 42,95.2653555 42,100 L42,113 C42,119.018625 46.4308707,124.002364 52.2085808,124.867187 C53.9518066,145.114792 66.4692178,162.282984 84,170.610951 L84,189 L80,189 C78.4137385,189 76.8394581,189.051297 75.2787271,189.152323 C70.3620966,186.639548 65.7724391,183.578174 61.590479,180.048925 C57.2814481,181.318646 52.7202934,182 48,182 C21.490332,182 0,160.509668 0,134 C0,119.590902 6.34904132,106.664702 16.4021743,97.866349 C11.1175746,90.6060809 8,81.6671147 8,72 C8,50.160623 23.9112243,32.0375116 44.7738169,28.5905219 C51.0188047,11.8901624 67.1208542,0 86,0 C94.0143172,0 101.528186,2.14267429 108,5.88641659 C114.471814,2.14267429 121.985683,0 130,0 C148.879146,0 164.981195,11.8901624 171.226183,28.5905219 C192.088776,32.0375116 208,50.160623 208,72 C208,81.6671147 204.882425,90.6060809 199.597826,97.866349 C209.650959,106.664702 216,119.590902 216,134 C216,160.509668 194.509668,182 168,182 C163.279707,182 158.718552,181.318646 154.409521,180.048925 C150.227561,183.578174 145.637903,186.639548 140.721273,189.152323 C139.160542,189.051297 137.586262,189 136,189 L132,189 L132,170.610951 C149.530782,162.282984 162.048193,145.114792 163.791419,124.867187 C169.569129,124.002364 174,119.018625 174,113 L174,100 C174,95.778427 171.820067,92.0660046 168.524466,89.9269981 C167.450514,89.5343912 166.370126,89.0424011 165.289302,88.4564081 C164.868503,88.3367332 164.43828,88.2394463 164,88.1659169 L164,87.7130302 C155.319369,82.4100235 146.764694,71.1747746 141.449951,56.7992877 C131.312295,58.8351061 119.547256,60 107,60 C95.038684,60 83.7882341,58.9413637 73.9808476,57.0787685 C68.7546917,71.0641476 60.4637821,82.0431875 52,87.4230168 L52,88.1659169 C50.9777341,88.3374206 49.9992949,88.6381729 49.0820602,89.050796 C48.9628927,89.1079465 48.8437566,89.1639284 48.7246602,89.2187346 Z" id="path-14"></path>
    </defs>
    <g id="Page-1" stroke="none" stroke-width="1" fill="none" fill-rule="evenodd">
        <g id="Artboard" transform="translate(-92.000000, -142.000000)">
            <g id="Rectangle">
                <use fill="black" fill-opacity="1" filter="url(#filter-3)" xlink:href="#path-2"></use>
                <use fill="url(#linearGradient-1)" fill-rule="evenodd" xlink:href="#path-2"></use>
            </g>
            <rect id="Rectangle" fill="url(#linearGradient-1)" x="136" y="298" width="679" height="818" rx="48"></rect>
            <g id="Avataaar/Circle" transform="translate(344.000000, 132.000000)">
                <g id="Circle" stroke-width="1" fill-rule="evenodd" transform="translate(12.000000, 40.000000)">
                    <mask id="mask-5" fill="white">
                        <use xlink:href="#path-4"></use>
                    </mask>
                    <use id="Circle-Background" fill="#E6E6E6" xlink:href="#path-4"></use>
                    <g id="Color/Palette/Blue-01" mask="url(#mask-5)" fill="#65C9FF">
                        <rect id="ðŸ–Color" x="0" y="0" width="240" height="240"></rect>
                    </g>
                </g>
                <mask id="mask-7" fill="white">
                    <use xlink:href="#path-6"></use>
                </mask>
                <g id="Mask"></g>
                <g id="Avataaar" stroke-width="1" fill-rule="evenodd" mask="url(#mask-7)">
                    <g id="Body" transform="translate(32.000000, 36.000000)">
                        <mask id="mask-9" fill="white">
                            <use xlink:href="#path-8"></use>
                        </mask>
                        <use fill="#D0C6AC" xlink:href="#path-8"></use>
                        <g id="Skin/ðŸ‘¶ðŸ½-03-Brown" mask="url(#mask-9)" fill="#D08B5B">
                            <g transform="translate(-32.000000, 0.000000)" id="Color">
                                <rect x="0" y="0" width="264" height="244"></rect>
                            </g>
                        </g>
                        <path d="M156,94 L156,102 C156,132.927946 130.927946,158 100,158 C69.072054,158 44,132.927946 44,102 L44,94 C44,124.927946 69.072054,150 100,150 C130.927946,150 156,124.927946 156,94 Z" id="Neck-Shadow" fill-opacity="0.100000001" fill="#000000" mask="url(#mask-9)"></path>
                    </g>
                    <g id="Clothing/Hoodie" transform="translate(0.000000, 170.000000)">
                        <mask id="mask-11" fill="white">
                            <use xlink:href="#path-10"></use>
                        </mask>
                        <use id="Hoodie" fill="#B7C1DB" fill-rule="evenodd" xlink:href="#path-10"></use>
                        <g id="Color/Palette/Red" mask="url(#mask-11)" fill="#FF5C5C" fill-rule="evenodd">
                            <rect id="ðŸ–Color" x="0" y="0" width="264" height="110"></rect>
                        </g>
                        <path d="M102,61.7390531 L102,110 L95,110 L95,58.1502625 C97.2037542,59.4600576 99.5467694,60.6607878 102,61.7390531 Z M169,58.1502625 L169,98.5 C169,100.432997 167.432997,102 165.5,102 C163.567003,102 162,100.432997 162,98.5 L162,61.7390531 C164.453231,60.6607878 166.796246,59.4600576 169,58.1502625 Z" id="Straps" fill="#F4F4F4" fill-rule="evenodd" mask="url(#mask-11)"></path>
                        <path d="M131.989815,67.9999995 C98.5309773,67.9967574 65.5,52.0180096 65.5,32.3076923 C65.5,21.2428847 75.9093095,15.5711782 90.9601329,12.7243537 C81.8750795,16.0744598 76,21.7060546 76,31.0769231 C76,51.4665186 103.814501,67.9960167 131.989815,67.9999993 Z M173.039867,12.7243537 C188.09069,15.5711782 198.5,21.2428847 198.5,32.3076923 C198.5,52.0180096 165.469023,67.9967574 132.010185,67.9999995 C160.185499,67.9960167 188,51.4665186 188,31.0769231 C188,21.7060546 182.124921,16.0744598 173.039867,12.7243537 Z" id="Shadow" fill-opacity="0.16" fill="#000000" fill-rule="evenodd" mask="url(#mask-11)"></path>
                    </g>
                    <g id="Face" transform="translate(76.000000, 82.000000)" fill="#000000">
                        <g id="Mouth/Twinkle" transform="translate(2.000000, 52.000000)" fill-opacity="0.599999964" fill-rule="nonzero">
                            <path d="M40,16 C40,21.371763 46.1581544,25 54,25 C61.8418456,25 68,21.371763 68,16 C68,14.8954305 67.050301,14 66,14 C64.7072748,14 64.1302316,14.9051755 64,16 C62.7575758,18.9378973 59.6832595,20.7163149 54,21 C48.3167405,20.7163149 45.2424242,18.9378973 44,16 C43.8697684,14.9051755 43.2927252,14 42,14 C40.949699,14 40,14.8954305 40,16 Z" id="Mouth"></path>
                        </g>
                        <g id="Nose/Default" transform="translate(28.000000, 40.000000)" fill-opacity="0.16">
                            <path d="M16,8 C16,12.418278 21.372583,16 28,16 C34.627417,16 40,12.418278 40,8" id="Nose"></path>
                        </g>
                        <g id="Eyes/Default-ðŸ˜€" transform="translate(0.000000, 8.000000)" fill-opacity="0.599999964">
                            <circle id="Eye" cx="30" cy="22" r="6"></circle>
                            <circle id="Eye" cx="82" cy="22" r="6"></circle>
                        </g>
                        <g id="Eyebrow/Outline/Default" fill-opacity="0.599999964">
                            <g id="I-Browse" transform="translate(12.000000, 6.000000)">
                                <path d="M3.63024536,11.1585767 C7.54515501,5.64986673 18.2779197,2.56083721 27.5230268,4.83118046 C28.5957248,5.0946055 29.6788665,4.43856013 29.9422916,3.36586212 C30.2057166,2.2931641 29.5496712,1.21002236 28.4769732,0.94659732 C17.7403633,-1.69001789 5.31209962,1.88699832 0.369754639,8.84142326 C-0.270109626,9.74178291 -0.0589363917,10.9903811 0.84142326,11.6302454 C1.74178291,12.2701096 2.9903811,12.0589364 3.63024536,11.1585767 Z" id="Eyebrow" fill-rule="nonzero"></path>
                                <path d="M61.6302454,11.1585767 C65.545155,5.64986673 76.2779197,2.56083721 85.5230268,4.83118046 C86.5957248,5.0946055 87.6788665,4.43856013 87.9422916,3.36586212 C88.2057166,2.2931641 87.5496712,1.21002236 86.4769732,0.94659732 C75.7403633,-1.69001789 63.3120996,1.88699832 58.3697546,8.84142326 C57.7298904,9.74178291 57.9410636,10.9903811 58.8414233,11.6302454 C59.7417829,12.2701096 60.9903811,12.0589364 61.6302454,11.1585767 Z" id="Eyebrow" fill-rule="nonzero" transform="translate(73.000154, 6.039198) scale(-1, 1) translate(-73.000154, -6.039198) "></path>
                            </g>
                        </g>
                    </g>
                    <g id="Top">
                        <mask id="mask-13" fill="white">
                            <use xlink:href="#path-12"></use>
                        </mask>
                        <g id="Mask"></g>
                        <g id="Top/Long-Hair/Curly" mask="url(#mask-13)">
                            <g transform="translate(-1.000000, 0.000000)">
                                <path d="M105.984735,27.7643628 C114.013215,26.6267967 122.796163,26 132,26 C142.358003,26 152.182939,26.7938545 160.999342,28.2161842 C183.451688,38.7497687 199,61.559133 199,88 L199,105.044138 C187.461887,104.672508 173.831239,90.7644306 166.449951,70.7992877 C156.312295,72.8351061 144.547256,74 132,74 C120.038684,74 108.788234,72.9413637 98.9808476,71.0787685 C91.6758772,90.6271291 78.3831001,104.301811 67,105.021902 L67,88 C67,61.1745453 83.0039076,38.0870034 105.984735,27.7643628 Z" id="Shadow" fill-opacity="0.16" fill="#000000" fill-rule="evenodd"></path>
                                <g id="Hair" stroke-width="1" fill="none" fill-rule="evenodd" transform="translate(25.000000, 10.000000)">
                                    <mask id="mask-15" fill="white">
                                        <use xlink:href="#path-14"></use>
                                    </mask>
                                    <use id="Curly!" fill="#314756" xlink:href="#path-14"></use>
                                    <g id="Color/Hair/Brown-Dark" mask="url(#mask-15)" fill="#4A312C">
                                        <g transform="translate(-24.000000, -10.000000)" id="Color">
                                            <rect x="0" y="0" width="264" height="280"></rect>
                                        </g>
                                    </g>
                                </g>
                                <g id="Facial-Hair/-Blank" fill="none" transform="translate(49.000000, 72.000000)"></g>
                                <g id="Top/_Resources/Blank" fill="none" transform="translate(62.000000, 85.000000)"></g>
                            </g>
                        </g>
                    </g>
                </g>
            </g>
            <text id="Tammy" font-family="Nunito-SemiBold, Nunito" font-size="45" font-weight="500" fill="#000000">
                <tspan x="401" y="494">Tammy</tspan>
            </text>
            <text id="captain-of-the-colle" font-family="Nunito-SemiBold, Nunito" font-size="25" font-weight="500" fill="#686767">
                <tspan x="286.85" y="535">captain of the college rugby team</tspan>
            </text>
            <text id="During-one-of-the-pr" font-family="Nunito-Regular, Nunito" font-size="30" font-weight="normal" fill="#000000">
                <tspan x="208" y="609">During one of the pre-season practices, </tspan>
                <tspan x="208" y="650">she got a partial ACL (anterior cruciate </tspan>
                <tspan x="208" y="691">ligament) and sprained LCL (lateral </tspan>
                <tspan x="208" y="732">collateral ligament) tear.</tspan>
                <tspan x="208" y="773" font-family="Nunito-Bold, Nunito" font-weight="bold"></tspan>
                <tspan x="208" y="814" font-family="Nunito-Bold, Nunito" font-weight="bold">She hopes to recover as soon as </tspan>
                <tspan x="208" y="855" font-family="Nunito-Bold, Nunito" font-weight="bold">possible</tspan>
                <tspan x="321.58" y="855"> so she attempts to connect </tspan>
                <tspan x="208" y="896">with other athletes to get useful </tspan>
                <tspan x="208" y="937" font-family="Nunito-Bold, Nunito" font-weight="bold">recovery tips.</tspan>
            </text>
        </g>
    </g>
</svg>